<svg xmlns="http://www.w3.org/2000/svg" id="Layer_1" viewBox="0 0 3000 462"><defs><style>.st0{fill:#383635}.st5{fill:#b0a69c}.st13{fill:#f9f8f6}.st17{fill:#f3f2f1}.st18{fill:#b2a79d}.st25{fill:#ada7a1}.st27{fill:#b5aba1}.st35{isolation:isolate}.st37{fill:#a3988e}.st43{fill:#f8f8f7}.st46{fill:#816333}.st52{fill:#bcb2a9}.st60{fill:#f4f4f3}.st61{fill:#968c82}.st70{fill:#b9aea5}.st77{fill:#c4bab1}.st79{fill:#7b5d2f}.st88{fill:#ba975e}.st90{fill:#e9e4de}.st93{fill:#32302f}.st104{fill:#e5dfd9}.st115{fill:#92867d}.st119{fill:#a0958b}.st120{fill:#b1a69c}.st123{fill:#978b82}.st124{fill:#9d7b44}.st125{fill:#999b6a}.st126{fill:#f1efeb}.st127{fill:#f9f8f8}.st128{fill:#363231}.st130{fill:#94887e}.st131{fill:#5c5f35}.st134{fill:#bda992}.st136{fill:#beb4ac}.st146{fill:#b7ada3}.st154{fill:#c5bbb3}.st157{fill:#ebe7e2}.st163{fill:#a6834b}.st164{fill:#b9afa6}.st168{fill:#f6f6f6}.st172{fill:#f4f4f4}.st173{fill:#d4cbc3}.st174{fill:#bcb1a7}.st176{fill:#2e2b29}.st179{fill:#3a3836}.st182{fill:#c0b5ac}.st184{fill:#f8f7f5}.st188{fill:#a49a90}.st190{fill:#8d6e3c}.st198{fill:#9a7843}.st201{fill:#aba097}.st203{fill:#737648}.st205{fill:#b5aaa1}.st206{fill:#9e9389}.st211{fill:#4f4b48}.st215{fill:#a59d97}.st216{fill:#aca198}.st218{fill:#2d2b29}.st219{fill:#aea6a1}.st226{fill:#a89d94}.st227{fill:#765b2e}.st236{fill:#ad8950}.st237{fill:#e7e1dd}.st242{fill:#7f8257}.st245{fill:#b0a8a2}.st246{fill:#f4f3f2}.st250{fill:#aa9f96}.st251{fill:#ada299}.st254{fill:#2a2624}.st256{fill:#b6a28b}.st258{fill:#bbb0a7}.st261{fill:#a69b92}.st262{fill:#b28f54}.st263{fill:#afa49a}.st265{fill:#bfb6ac}.st270{fill:#c5bbb2}.st271{fill:#afa69d}.st274{fill:#939569}.st275{fill:#b1aaa4}.st277{fill:#8f6e3a}.st280{fill:#2b2625}.st288{fill:#c6bdb4}.st290{fill:#b4aca6}.st292{fill:#eae6e1}.st293{fill:#b9aea4}.st296{fill:#7a7c4e}.st301{fill:#968a81}.st302{fill:#c4bbb2}.st305{fill:#988c82}.st309{fill:#828456}.st312{fill:#d4ccc3}.st314{fill:#9a8f85}.st318{fill:#2b2926}.st323{fill:#292725}.st325{fill:#ccc4bb}.st326{fill:#7c7f51}.st330{fill:#262421}.st340{fill:#a79d93}.st341{fill:#e8e3dd}.st354{fill:#ad9983}.st358{fill:#b8aea5}.st359{fill:#b0a59b}.st369{fill:#312d2a}.st373{fill:#22201f}.st376{fill:#b3a89f}.st378{fill:#928a83}.st379{fill:#332f2b}.st383{fill:#c3b9b0}.st388{fill:#8b7f76}.st390{fill:#bdb3aa}.st402{fill:#c0b6ad}.st403{fill:#b8ada4}.st407{fill:#e9e4df}.st408{fill:#5e6237}.st414{fill:#f5f4f4}.st419{fill:#bdb2a9}.st424{fill:#dad6d3}.st426{fill:#bab1a8}.st429{fill:#987742}.st430{fill:#bab4af}.st433{fill:#6d6f42}.st438{fill:#b1a89e}.st449{fill:#d8d1c9}.st451{fill:#9d9288}.st453{fill:#9c9288}.st457{fill:#ccc3ba}.st458{fill:#9d9187}.st460{fill:#bbb1a8}.st473{fill:#e1dad5}.st474{fill:#34302e}.st477{fill:#f8f8f8}.st478{fill:#ebe9e8}.st484{fill:#2d2c2b}.st485{fill:#c8bfb5}.st487{fill:#8b7f75}.st496{fill:#37332e}.st501{fill:#bcb2a8}.st506{fill:#fefefe}.st507{fill:#bdb8b2}.st518{fill:#707348}.st520{fill:#aca097}.st521{fill:#302e2a}.st525{fill:#d0c8bf}.st531{fill:#b7aca3}.st537{fill:#b5aba2}.st548{fill:#383633}.st549{fill:#f5f5f5}.st550{fill:#d2ceca}.st551{fill:#a69b91}.st553{fill:#302d29}.st556{fill:#9e7c46}.st557{fill:#968b81}.st558{fill:#e5ded7}.st562{fill:#d7d2cf}.st563{fill:#ada298}.st564{fill:#a09892}.st565{fill:#b5aaa0}.st567{fill:#a6854d}.st569{fill:#b2a79e}.st580{fill:#90847a}.st581{fill:#797d4c}.st586{fill:#c2b7ae}.st593{fill:#c1b7ae}.st601{fill:#72562a}.st603{fill:#b4a9a0}.st612{fill:#c2b8af}.st614{fill:#9c9187}.st616{fill:#f2f1ef}.st617{fill:#baafa6}.st619{fill:#c4bfba}.st624{fill:#696a3e}.st625{fill:#a2978e}.st627{fill:#7a694c}.st628{fill:#b9afa5}.st631{fill:#62615f}.st633{fill:#93733e}.st634{fill:#afa49b}.st637{fill:#a18a6f}.st645{fill:#e4e3e1}.st649{fill:#e2e0de}.st650{fill:#997842}.st655{fill:#b6aba2}.st662{fill:#413937}.st663{fill:#cdc4bb}.st665{fill:#312f2c}.st668{fill:#91867d}.st676{fill:#787b4d}.st677{fill:#978c82}.st682{fill:#9e968e}.st684{fill:#c6bdb3}.st690{fill:#f7f7f5}.st692{fill:#91857c}.st693{fill:#f8f7f7}.st702{fill:#886938}.st703{fill:#90847b}.st713{fill:#91867c}.st715{fill:#f7f6f5}.st716{fill:#aca197}.st722{fill:#b3a9a0}.st730{fill:#a0968b}.st733{fill:#2f2d2b}.st737{fill:#b6aca3}.st738{fill:#3d3935}.st743{fill:#fdfdfd}.st745{fill:#aba096}.st746{fill:#d5cdc5}</style></defs><g class="st35"><path d="M749 354q4 5 10 5v6a1001 1001 0 0 0-94 0v-6q12 0 17-3 5-2 5-8l-4-15-19-50h-67l-8 21q-9 22-9 34 1 12 7 16 8 6 21 5v6h-62v-6q15-2 26-32l71-181h21l75 193q4 11 10 15M631 193l-32 83h63zm346 173q-9 4-23 4-18 0-28-8-10-7-14-26l-5-31-6-24q-3-9-8-14-6-5-15-5h-20v71l2 17q1 5 6 7l15 2v6a912 912 0 0 0-95 0v-6l15-2q5-2 6-7l2-17V179l-2-17q-1-5-6-7l-15-2v-7a893 893 0 0 0 95 1q43 0 64 14 22 13 22 40 0 13-7 26-6 12-22 21-15 9-41 12h1q18 2 30 7 13 4 19 13 7 8 10 21l7 32q2 12 6 17 3 6 9 5l6-2 6-5 4 4q-8 9-18 14m-79-117q10-8 14-18 4-12 4-27 0-26-9-38-9-13-30-13-7 0-12 2t-5 8l-2 16v76h13q18 0 27-6m318 117q-9 4-23 4-18 0-28-8-11-7-14-26l-5-31-6-24q-3-9-9-14-5-5-14-5h-20v71l1 17q3 5 7 7l15 2v6a912 912 0 0 0-96 0v-6l15-2q6-2 7-7l2-17V179l-2-17q-1-5-7-7l-15-2v-7a893 893 0 0 0 96 1q43 0 64 14 22 13 22 40-1 13-7 26-6 12-22 21-15 9-41 12 19 2 31 7 12 4 19 13 7 8 9 21l7 32 6 17q3 6 9 5l7-2 6-5 4 4q-9 9-18 14m-79-117q10-8 14-18 3-12 3-27 0-26-9-38-8-13-29-13-9 0-12 2-4 2-6 8l-1 16v76h13q18 0 27-6m296 69q0 29 2 47a1892 1892 0 0 0-172 0v-6l15-2q5-3 6-7 3-6 2-17V179l-1-17q-3-5-7-7l-15-2v-7h165a559 559 0 0 0-1 67h-7q-3-23-10-35-6-13-16-19-10-5-25-5h-12l-14 1q-4 2-6 6l-2 15v76h10q17 0 25-12 9-12 12-29h7l-1 30v14l2 44h-7q-6-41-38-41h-10v78l2 15q2 4 6 6 5 2 14 1h15q21 0 35-15t19-51h7zm88-170 10-1 48-1q61 0 91 28 30 27 30 80 0 33-15 58a98 98 0 0 1-42 40q-28 13-66 13h-93v-6l15-2q4-3 6-7l2-17V179l-2-17q-2-5-6-7l-15-2v-7zm37 202q1 5 7 8l14 2q26 0 41-12t22-35q6-24 6-58c0-34-2-43-7-58q-7-22-22-34-15-11-40-11l-14 2q-6 2-7 8l-2 17v154zm360-195q24 14 38 39t14 60c0 35-5 43-14 61q-14 26-39 40-25 15-57 15c-32 0-41-5-57-14q-25-12-38-38-14-25-14-60c0-35 5-43 14-61q14-26 39-40 24-15 57-15c33 0 40 5 57 13m-89 7q-12 14-19 38a207 207 0 0 0 0 113q9 24 22 38 13 13 30 13c17 0 21-4 30-14s15-22 19-38a207 207 0 0 0 0-113q-9-25-22-38-14-13-30-13c-16 0-21 4-30 14" class="st35" style="fill:#fff"/><path d="m2304 142 23-1v6q-7 3-15 12t-13 25l-66 176h-21l-79-193q-3-10-9-15-5-5-10-5v-6a1005 1005 0 0 0 94 0v6q-12 0-17 3-5 2-5 9 0 5 4 14l54 138 38-102q9-24 9-38 0-12-7-18-6-6-19-6v-6zm136 8q-5 1-7 7l-1 17v153l1 17q2 6 7 7l15 3v6a912 912 0 0 0-96 0v-6q11-1 15-3 5-1 7-7l1-17V174l-1-17q-2-6-7-7-5-3-15-3v-6a936 936 0 0 0 96 0v6q-10 0-15 3m60 43-3-52 96 1 95-1-1 76h-7q-5-26-13-41-6-15-17-21-11-7-25-7h-8v177q0 12 3 18t9 8q7 3 22 3v6l-59-1-57 1v-6q15 0 21-3 7-2 10-8l2-18V148h-7q-14 0-25 6-10 7-18 22-7 15-12 41h-7zm401 156 10 5v6a1001 1001 0 0 0-94 0v-6l17-3q6-3 5-9 0-5-4-14l-18-51h-67l-9 21q-8 22-8 35 0 11 7 16c7 5 11 4 20 5v6h-62v-6q16-3 27-33l70-181h22l75 194q4 11 9 15m-117-162-32 84h63z" class="st35" style="fill:#a78955"/></g><path d="M7-32h548v548H7z" style="fill:#fcfcfc"/><path d="M476 231v2l1 9c0 26-3 47-12 72q-1 1-1-2c20-58 12-124-23-174q0-3 2-1c18 26 32 62 33 94" style="fill:#a5844e"/><path d="M154 99c-46 37-70 91-69 151v2l-3 1a193 193 0 0 1 15-81q18-44 54-74z" style="fill:#a6854e"/><path d="M388 325q25 1 52-2l2 1-4 1-6 1h22v7q1 3-1 1l-1-7-178-1h2l-1-1h29l1-1 27 1z" class="st60"/><path d="m275 450-18 1q-5-2-10 0h-5l-31-2-49-1-62-5-25-3q-5 0-10-4l11-2 13-1c2 0 2-6 3-5l1 2v-2 1q1 3-1 4v1l-19 2q16 5 34 6a2196 2196 0 0 0 168 8" class="st693"/><path d="M401 95a200 200 0 0 0-113-40l1-2q64 2 114 42z" class="st567"/><path d="M278 5v120l-1 1h-2l1-121z" style="fill:#060606"/><path d="m315 258 6-2 3 1q6 0 7 5 5 2 2 6v1l-4 10-1 3q-2 2-1 4l-1 5v2l-1 6-1 3q-1 8-7 3l-4-5q-3-1-1-5h-1v-4q-2-3 0-5l-1-8v-3l-3-6v-5l3-3z" style="fill:#b08e55"/><path d="m357 265-1 4q5 1 2 4v6h-1l-1-6-2-1q-3-5-6 0h-2q2 8-1 15-2 6-1 14l-2 4-1 3q2 3-1 5v2q-1 3-6 4l-5 1h-6v-1l9-2 2-2 1-3q2-1 1-4v-2q5-2 3-7v-8l1-5q-1-2 2-3l-1-10 2-3 2-2 4-3q4 1 6-1z" style="fill:#876836"/><path d="m322 319 5-1q4-1 4-5h1l2-7 1-2 2-13q-1-6 2-10l1-4v-2q-1-5 5-8 0-3 3-3 2-4 5 1 0-3 2-1v2l-5 1h-2l-3 2-1 3-2 3 1 2h-1l1 7-2 2 1 1-2 2v3q-2 3 0 7l-1 1q2 0 1 3v1l-3 4 1 3h-1l1 1-3 2 1 2q-1-1-1 1h-2v2l-8 1-2 1h-9l1-1h7" style="fill:#8d6c39"/><path d="M423 298h21v1h-4q-1 2-3 0l-5 2-2 2q-1 3-5 3l-4 3-7 4h-4q-6 3-13 1h-9l-4-1q-9-3-14-11 0-3-4-2h-1q-1-2 1-1l5-1h2v1h-1l1 1q-1 3 4 5l6 3 1 2 9 1h4q7 1 13-1 5-3 8-7 6 1 7-3l1-1h-7q-2 2-1-1z" style="fill:#8f6f3c"/><path d="m444 299-1 4-1 3-1-1-1-1 1-3q-2 3-7 5-6 5-15 8l-9 2-13 1-19-2-5-4-4-1q-2 1-2-2v-1c1-1 2-5-1-4v-1q-2 1-1-1v-1h5q0 5 4 7l5 3q4 3 9 4h9q8 1 14-1h1l6-2q4 0 6-4l2-1q5 0 6-4l5-3z" class="st46"/><path d="m272 128 5 2 7 5 3 4q-2 9-9 15l-2 2q0 2-3 3-1 2-5 3h-3q-3 2-4-1-5-2-5-6-5-5-4-12l-1-3-1-2 5-5 5-2 1 2q-10 7-4 18c2 4 7 11 12 6l3-1 4-5 1-1q2 0 2-3l4-7-5-4q-1-4-6-4-4-2-2-4z" class="st262"/><path d="M298 135q-5 3-5 8l-2 2q0 3-4 5l-3 4v1q-2 0-2 2-5 3-6 8l1 2v3c-7 1-12 0-6-5q5-8 12-14l3-6h1q3-5 1-9 1-1-1-3l1-4q6 1 10 5" style="fill:#a4824a"/><path d="M249 140q2 0 3 4-1 7 4 10 1 5 4 6l1 2h5q5 3 6-1l6-6q0-2 2-2 2-2 3-1l-2 1-9 14-3 4h11-14c-1 1-3 9 1 8q8-4 15 2l4 2v1l-1 1-8-4q-4-3-8 0h-5l-1-3v-3l-1-3h-10v-1h3l7-1v-1q3 0 1-3-5 1-5-3-4-3-5-7l-1-4q-4-2-3-6-2-2 0-5z" style="fill:#a8854d"/><path d="m352 260 3 3-1 1c-2 2-2-3-4-2l-2 2h-2l-1 2-3 2v1l-2 3c-1 1 2 2-1 3l2 1q-3 3-1 4l-3 6v4l1 6-2-1v4l2 1h-2v3q2 1-1 3l1 1q-2 0-1 2h-1q1 2-1 2 1 1-1 1l1 2h-1c0 4-6 4-9 4l-1 1h-6v-1h-1q-1-2 2-1h7q2-2 3-1l1-1q3-3 2-6 4-4 3-9l2-4q-2-3 0-5v-8l3-7 3-10q4-5 9-6z" style="fill:#93723d"/><path d="M270 128c-1 3 5 4 6 4l3 4h1l4 4-1 2-3 5q1 2-2 3v2h-1l-2 3q-2 0-2 2l-4 1-2 2h-3l-5-4-3-5-1-1c-1-1-2-8-1-9l4-7 2-1c1-3-4 1-4 0l5-3h4z" style="fill:#b79459"/><path d="M304 142h-2q-3 2-6 1l-2 3h-1q0 4-4 7l-5 6-4 5-1 6-1 1h-1l-1-2v-2h-1l2-6 4-3q0-3 2-2l1-2q0-2 3-2l-1-1 4-3v-2l2-3q-1-2 1-4l5-4z" class="st124"/><path d="m310 261-2 3 1 3-1 2q3 2 2 5l1 1-1 1 1 2v9l1 1-1 1 1 2-1 1h1l1 1-2 1q2 1 1 3l1 3 1 1v3l4 7q2-2 4 1l1-2c5 1-1 6-4 4q-3 2-5-2-2 0 0-2l-1-2-2-5q-2-1-2-6l-1-4v-3l1-3-1-3-2-9 1-2-1-3q-2 0-2-3z" style="fill:#a7844d"/><path d="M282 164q2-1 2-4l5-5 4-4q0-3 3-5 0-3 4-2 3-1 3 4l5 7v4l1 12h-1l-1-8q-3-3-3-8l-3-5c1-3-7 2-6 4q-3 1-4 5l-3 3q0 3-3 5v3q2 3-3 1h-2c-2-1 0-7 2-7" class="st633"/><path d="M397 446h-1v-1q17 0 32-2l24-2 24-5-2-1v-1q5 0 9 2-1 3-4 2l-3 1-9 1-9 2-16 2-34 2z" class="st477"/><path d="M206 67q1-1 1 1-24 10-45 25l-2-1q21-16 46-25" style="fill:#a4854e"/><path d="M214 64q24-9 50-11v2q-24 3-48 10z" style="fill:#a5854e"/><path d="M454 422v-82l1 93 18 1h1v1h-1l-7-1h-12l-1 1v-13z" style="fill:#f6f6f5"/><path d="m301 274 1 1q0 2 3 2 3 6 1 14l2 12v3q3 2 2 4l1 3 1 3q4 0 1 1c1 3-3 2-4 1l-1-6-3-6-3-18q3-3 0-4l-1-3-1 1v-7z" style="fill:#93733f"/><path d="M304 142q6 8 5 18v11l-1-8-1-4v-4l-4-7-2-3-2-1-2 1v2q-4 1-3 5-4 0-3 2l-6 5q0 3-3 5v-1l2-5 5-5q3-2 3-5-1-2 2-2c1-5 2-3 6-4l2-1z" style="fill:#987640"/><path d="M301 274q5-1 5 4l2 6q1 0 0 0v3l1 3v3l1 9c0 3 1 11 3 13l5 1h2l-1 1-1 1-3-1v1q-2 2-2-1l-1-1-3-2 2-1-2-3v-1l-2-4 1-1q-2-2-1-3v-5h-1q1-2-1-5 2-5-1-10h1v-1l-1-3h-2z" class="st198"/><path d="m277 126 2 1 2 1 7 2 2 1h-1l-2 2 3 3v3q0 3-3 8h-1l-3 5-3 1v-1a21 21 0 0 0 6-13l-2-6q-4 0-8-4-3 1-4-1h-2q-1 0 0 0l4-1z" style="fill:#aa864d"/><path d="M334 243v2l7 1h-7q-4 1-3 7v3q-2 2 1 3l4 3c1 1 0 6-2 5l-1 1 1-2q-1-4-4-4l1-1c-2-4-7-2-10-4-2-1-4 3-6 1l5-2 1-5v-5h1q3 0 2 3l1 6v1l3-1v-9h4l1-1z" style="fill:#ae8a51"/><path d="M357 265c8 10 5 27 6 39h-1q-1 1-1-1l-2-23-1-7v-2l-3-2 1-2z" class="st190"/><path d="M245 148q3-3 5 3l2 1 1 4 5 7v2c2 1 6 3 4 5l-1 1c-3 0-9 0-5-1 1-2-4-9-5-10l-1-1c2-2-3-7-5-3q1 2-1 2v-7z" style="fill:#9e7c45"/><path d="M301 281v23c0 2 0 7 1 5-1-4 3-1 4 0 2 3 5 11 0 11q-4 0-5-4l-1-5-1-8v-13l1-7v-4h1z" style="fill:#876a3a"/><path d="M401 95v-1l1 2 1-1q14 11 26 24 1 3-2 1l-3-3q0-2 0 0l-11-11z" style="fill:#ab8a55"/><path d="M306 322q5 3 12 2l22 1-35-1h-1l-4-1c-1-1 6-4 6-1" style="fill:#eeecea"/><path d="m423 298-5 1h-10l-7 1-4 1q-2 3-6 1-3 2-6-2l-5-1h-8v-1z" style="fill:#c8a972"/><path d="M342 197q2-2 2 0l-6 18q-2 4 0 7l-4 8-1 2-1 4-1 6-1 1h-1q-1 0 0 0-1-4 1-5l1-3v-1l2-6 1-4h1l-1-1 1-6 1-2 1-5 2-5 1-1v-3q0-4 2-4" class="st134"/><path d="m360 208-4 1-6 8-7 4q-8 10-9 22l-1 2h-1q1-9 4-17c0-2 3-7 5-7l15-13 4-1z" style="fill:#6b573f"/><path d="M374 447h14l-4 1-4-1-6 1h-6l-10 1-5-1-1 1-4-1v1h-19q-1 2-4 0h13z" class="st477"/><path d="M244 166v-8q5-5 7 2l1 3c3 3 6 6 0 8l-1-2q1-4-2-4l-2-1q1 2-2 3v4h-1z" style="fill:#91713d"/><path d="m371 204-1 1 4 3 5 2 1 4h-2q-3 1-3-2l-2-1q-4-2-9-1c2 0 7 2 3 2l-6-3 1-1 1-3q0-2 4-1z" style="fill:#686c40"/><path d="M244 151v6l1-2 2-2q4 2 5 5l-1 2q4 3 6 8-1 2 2 2l-4 1h7-10l3-3h-1c1-2-3-4-3-5l-1-3-1-3-1 1-1-1-3 1v8l-1-10z" class="st650"/><path d="M98 403v1q-1-3 2-1c1 1-2 12-2 14v1c0 2-2 12-4 13l-1-2v-1z" style="fill:#4a4644"/><path d="M278 5h-2v121c-1 1 1 1-2 1l1-4V4z" style="fill:#bda26e"/><path d="m379 143-1 4c3 1 5-2 9-1l-2 1 3 1h-6l-5 2q-1 2-4 1 1 2-1 2 0 2-2 1v1h-2q-1-1 0 0l3-4q0-2 2-3l2-4q1-2 3-2" style="fill:#f9f9f8"/><path d="M291 171h18l-1 1zh-1l-1 6v2l-3 4v-1l-4-2q-7-6-15-2c-4 1-2-6-1-7v3l1 1q9-1 16 3 5 2 4-4l1-4z" class="st429"/><path d="M341 218q-1 0 0 0l3-1v1q1 2-2 2-5 3-7 10h-1l3-8-1-1 2-8 5-17v2l-1-1q-2-2 1-2 0-3 2-2l6-11 1-1v1q-9 16-13 34-2 5 2 2" class="st354"/><path d="m157 253 5 1 6 2 3 1q15 4 25 15v1l-4-3-3-3-6-4-9-3-15-4-4-2q-2-1 2-1" style="fill:#1a1818"/><path d="m304 267 1 2h1l1 3 1 1-1 2 1 1 1 7-1 1-2-4-1-2v-2l-1-2h-3z" class="st556"/><path d="m358 171 1 1-6 12q0 6-5 10 1 2-1 2l-1 2v2l-2 4h-1q-1 1 0 0l-1-1 14-30 1-1q-1-2 1-2z" style="fill:#705d44"/><path d="M443 324h5l-1 1h6l-2 2h-21l1-1v-1h6z" class="st127"/><path d="m327 245 3 1h2-3v9l-4 1v-1l-1-7-2-2h-1z" style="fill:#c9a76f"/><path d="M285 185h-3q-5-5-10-3l-3 3-4-4h4l3-2c5-1 10 4 14 6" style="fill:#b29056"/><path d="m324 449-17 2-5-1-3 1-3-1-10 1-4-1h-7 28l4-1z" class="st477"/><path d="M358 163q-1-1 0 0l-2-2v-1h-1v-1l-1-1q-2 2-2 0c-2-2 1-2 1-2l2-3q0-3 3-3c2 3 2 10 0 13" style="fill:#717346"/><path d="m429 119 11 14q1 2-2 1l-11-14v-1z" style="fill:#a78651"/><path d="m89 251 1 1-1 1c-10 2-21 7-19 19h-1v1c-2 2-2-2-1-2h-1v6q-2-1-1-3 1-7 4-13 1-3 4-5l7-3h1l3-1z" style="fill:#1f1c19"/><path d="m249 141-1 2 2 3q-1 2 1 5h1l1 5s-3-1-1-3c-4 0-3-4-5-5l-1 1-1-1z" style="fill:#a4814b"/><path d="M395 114q2 8-3 10-4 4-3 0v-2l-5 7-1-1q0-4 4-6l4-6q1-3 4-3" style="fill:#838556"/><path d="m443 303 1-1-3 8-3 4h-1l-2 5 6 1h-13l1-1 2-2 3-2q1-3 4-4l1-3q0-2 3-3z" class="st43"/><path d="m458 330-4 10v82h-1v-1l1-88 2-4 1-2q2 0 1 3" style="fill:#a78852"/><path d="M464 317c0 3-5 11-6 13l-1-3 1-3 5-10q2 0 1 3" class="st567"/><path d="M81 253q-6 2-11 8l-1-1 4-5q3 1 3-2 2 1 5-1v-19z" class="st13"/><path d="m344 181-1-3q2 4-1 3l-1-4-1-6v-1l1-1 1-3q3 7 3 15" class="st676"/><path d="m374 136 1 2v4l1 1-5 6v1l-1-1v-1q3-6 2-12v-1q1 1 1-2h1z" style="fill:#f5f5f2"/><path d="m354 169 2 3q0-1 0 0l-4 9-7 12v-1q-1-2 1-4l1-1 1-3q-2 0 1-1l1-3q4-5 4-11 0-1 0 0 1 0 0 0" style="fill:#c0ac95"/><path d="m284 185-3 2h-2q-3-6-9-1h-1l-1-1q2-1 2-3c5-4 10 3 14 3" style="fill:#bc995f"/><path d="M372 135v6q-1 7-4 3h-1v-6q0-5 2-2l1-3h1z" class="st131"/><path d="m77 360 6 20v3q3 1 4 5h-1q-3 0-3-4c-4-6-6-18-8-25z" style="fill:#201e1c"/><path d="m87 389 10 5h1l1 1-1 5q0 2 0 0l-1-2v-2l-10-5-4-4 1-2z" class="st168"/><path d="M397 133v1l-2 3h-3l-3 1q-2 2-4 1v-1h1l-1-2v-1l3-1h2v-1z" style="fill:#827f55"/><path d="M380 126v6l-2 6-1 2q0 2-1 1 0 3-1-1v-2q-1-3 1-4 2 0 2-3l1-4v-3z" style="fill:#64653c"/><path d="M374 211h-4q4 2 4 0 4-1 3 3h2-5l-6-2h1l-5-2 1-2q5 0 9 3" style="fill:#787c4d"/><path d="m371 164 5 2-2 1h-9q-2 1-1-1 2-4 7-2" style="fill:#74764c"/><path d="M364 193c0 2-1 7-3 7q-2 1-2-3 0-2 1-1l-1-1 3-6v-1q2 2 2 5" class="st309"/><path d="M388 154h7v1l-4 2h-7c-2 0-7-1-6 2h-4v-2c1-2 12-3 14-3" class="st408"/><path d="m306 320 2 2h-2c-1 0-6 0-5 1l4 1-9-1 5-1 1-4-1-2z" class="st43"/><path d="m378 159-2-1 2-1 6-1h7v1l-7 2h-2q-1-2-4 0" style="fill:#717446"/><path d="m349 183-1 1-1 2-2-2 1 4-1 2-2-3v-6h1v2l1-7v5z" style="fill:#f7f7f6"/><path d="m162 93-8 6-2 1v-2h-1l9-6z" style="fill:#a98b55"/><path d="M364 193v1zq0 3 3 4 0 2-2 1-2 1-1 3h-1l-5 4v-1q-1-2 2-2-1-2 1-2z" class="st184"/><path d="M364 127v2l1 11c0 1 0 5-1 3l-1-3v-8z" style="fill:#919260"/><path d="m269 186 1-1q6-5 11 1l-1 1h1-3q-4 2-1-1-3-3-3 1h-2z" style="fill:#caa76d"/><path d="m331 171 4 3 1 2q2 3-2 2l-5-5q-3-1-2-4z" style="fill:#9e9d6f"/><path d="M328 233q0 1 0 0l-1 2v-1l-2-2c-2-3-2-8 2-7z" style="fill:#5f633a"/><path d="M383 149h7q1 3-2 3l-10 1q-3-1 0-2z" style="fill:#929364"/><path d="M369 152q0 3-3 5l-3 6h-1q-2 4-2 0zq0-1 0 0" style="fill:#af9c85"/><path d="M395 114h-2l-10 13v7l-1 1q1 2-1 1v-2q2-1 2-3v-3l1-6q4-2 7-8 1-2 4-1" style="fill:#8a8d5b"/><path d="m343 195-1 2-2 4-1-2v-3l-1-1v-3q0-1 0 0l4 1zv-4z" class="st690"/><path d="M391 114v1l-5 7h-2q1-6 7-8" style="fill:#a6a775"/><path d="M369 130c1 1 2 7 0 7l-2-1-2-8v-2z" style="fill:#818454"/><path d="m390 149 1 1q2 2-2 2-1 2-4 1h-4c-1 1-6 2-7 0v-1l4-1v1l7-1h3z" style="fill:#838555"/><path d="M366 302q2 2 1 5v1l-2 1q-2 5-3 1v-6h1v2c4-1 1-3 1-4l1-1z" class="st715"/><path d="M319 214v2q0 3 3 7c1 1 1 5-1 3q-3-6-4-13z" style="fill:#888a5a"/><path d="M320 217q3 2 4 6l3-1v3q0 2-2 0l1 6-2-5 1 6-3-3q1-6-2-10z" style="fill:#6f7245"/><path d="M326 220c0 5-4 0-5-2l-1-2h-1l-1-2h1q6 2 7 6" class="st125"/><path d="m353 184 1 1q0 5-3 6 2-1 3 1-2-1-4 1h2c-1 1-5 3-4 1z" class="st43"/><path d="m214 64 2 1-9 3h-1l1-1h-1z" style="fill:#a98b56"/><path d="m365 167 8-1v1h-4 5q3-2 2 1l-13 2z" style="fill:#7f8152"/><path d="M364 205q6 0 10 3l-10-2v1l-2 1-2-1v-1l2-2z" style="fill:#565830"/><path d="M388 154q2 0 0 0l-11 2-3 2v1l-3-1q-3 0 0-1l2-1q1-2 2 0 4-3 9-2z" style="fill:#4f522a"/><path d="m365 126 3 10h1v-6l2 4-1 5q-3 1-2-3l-1 3v-1l-1-7-1 1v13h-1v-19z" style="fill:#7a7d4d"/><path d="m374 205 4 3 2 2c-3 1-6-3-8-4l-5-1 5-1z" class="st326"/><path d="M273 326c-2 0-3-5-4-6l-3-2-4-3q-2 1-3-2h-1v-1l4 1c4 2 12 7 11 13" style="fill:#1f1d1d"/><path d="M367 159h2l-1 2 3 1-2 1 2 1q-4-1-7 2h-1q-1-2 1-3z" class="st690"/><path d="M337 246v1l-1 8h2v-6q0-3 2-3h1l1 7v2q0 3-3 1c0 2-6 1-7 0 0 0 1-10 3-10z" style="fill:#8d6e3a"/><path d="m325 167 4 6v1l1 2 4 6-1 1-2-1-4-5q1-5-2-5l-1-3v-3z" style="fill:#757749"/><path d="m350 153 2 7 2 8-4-5z" style="fill:#4e522c"/><path d="M207 288v2l-1-1-8-12v-1l-1-1q-2 0-1-2v-1z" style="fill:#201e1e"/><path d="m342 253 1-2 1 4h2l1 2 5 2v1h-3l-7-3z" style="fill:#f8f7f6"/><path d="M136 250h4l5 1 5 1h1q2-1 3 1h3-2v1l-19-3-3-1z" style="fill:#272626"/><path d="M67 286v9l2 27v5-1l-1-2v-5l-1-2v-11l-1-4v-16q0-1 0 0z" style="fill:#272524"/><path d="M441 321h5l2 1h3v1l-2 1h-6l2-1-16-2z" class="st60"/><path d="M343 204v2l-3 8 1 4-2 1c-2-2 2-12 3-15z" style="fill:#65523b"/><path d="m329 174 4 5v1l4 4-1 1-4-2q1-2-1-3l-3-4zq0-2 0 0" style="fill:#62643a"/><path d="m340 162-1 4v1l-1-3v-1l-1 8-1-1v-1l-1-3 2-6 1-1z" style="fill:#878a5a"/><path d="m385 135 1 1h6l-6 2-6 2v-1q0-3 1-2h1l1-1z" style="fill:#6d6d43"/><path d="m250 138 2 1 1 12 3 2 1 2q1 4 5 5v2l7-1 1-1h2l1-2h2l1-2 2-1-5 6-1 2q-2 2-5 1l-1-1h-5c-2-1-1-5-4-3q1-3-2-4v-1q-2-2-2-5h-2v-6l-2-4z" style="fill:#ac894f"/><path d="M324 169c0 3 1 1 1 2q3 3 4 7s4 2 2 4l-5-6q1-2-1-3z" style="fill:#858657"/><path d="m334 190 1 2v2l1 3v1l-1-1-4-6-1-4z" style="fill:#848557"/><path d="M274 326q2 0 0 0v1l1 1v3q2 0 1 2v3q3 3 1 5l-1 2q0 1 0 0l-3-15v-3q-1-1 0 0z" class="st330"/><path d="m320 216 1 1 4 5 1-2 1 2-2 2-1 1z" style="fill:#888b59"/><path d="M272 187h1v-1q3-5 5 1h-3 3z" style="fill:#d7b781"/><path d="M339 167v-5 2l1-2 1 4v4h-2z" style="fill:#949867"/><path d="M351 195h2l-3 4v-1h-1q-2 2-3 1l1-3q3-2 4-1" style="fill:#898b5f"/><path d="M338 449h-16z" class="st693"/><path d="M98 400v2q0-3 2-1c1 1-1 16-2 17v-1l1-13q-1-2-1 1z" style="fill:#45413e"/><path d="m243 307 15 5v1l-6-2-4-1z" style="fill:#1f1e1e"/><path d="m350 139-1 5h-1v6q0 5-2 3v-2l-1-6q1 1 1-1l2-5 2-1z" style="fill:#996"/><path d="M396 153c0 2-6 1-7 0v-1l3-2h-1q3 0 5 3" style="fill:#67693e"/><path d="m331 171 3-1v-2l1 6 1-2q0-1 0 0v2q2 1 0 2 1 2 0 0zm-33 135v-19z" class="st184"/><path d="M360 166q1 4-2 4l-1 2-1 1-1 2-2 6h-1l4-8v-3l1-3 1-1h1l1-2zl2-2q1 2-2 2" style="fill:#a39077"/><path d="m72 343-3-16v-1l1 1 3 15z" style="fill:#2b2826"/><path d="M320 216v1q3 4 3 10l-1 1-1-3h1c0-4-4-7-3-10z" style="fill:#7c7f4f"/><path d="M366 131v17l-2-3c3-5 0-11 1-17z" style="fill:#6b6f41"/><path d="M115 249h-6l-4 1h-3l-4-1 4-1z" class="st549"/><path d="M349 144v16l-3-5q3-4 2-9zq0-1 0 0" style="fill:#78794a"/><path d="M350 153v9-1l-1-10v-1l1-6z" style="fill:#5d5f34"/><path d="M348 139c1 4-3 7-2 12v-6 6q-2-7 2-12" style="fill:#a8a775"/><path d="m358 150-2 5v-1l1-3-2 2-1-2v-3z" style="fill:#897c52"/><path d="m270 128-3 1-2 3v-1q-3 1-4-1z" class="st262"/><path d="m367 139 1 2v9q1 1-1 1l-1-2 1-11z" style="fill:#51552c"/><path d="m354 145-1 4q1 3-2 5l-1-7q3-1 3-4z" style="fill:#5b5f36"/><path d="M102 250h7q-7 3-15 1h-2l2-1z" style="fill:#262423"/><path d="m362 189-2 7h-2q-1 3-1 0l1-3 3-3z" style="fill:#919364"/><path d="M395 114q1 5-1 9l-1 1h-1q0 2-2 3-1-1 2-3l2-2z" style="fill:#6f7347"/><path d="m334 190 2 1q4 3 0 4l-1-1-2-4z" style="fill:#8f9162"/><path d="M392 137q3 0 4 2l-6 1-5 1v-1l4-2z" style="fill:#96986a"/><path d="M115 249h14l3 1h4-27q0 1 0 0v-1z" class="st218"/><path d="m350 199-7 7v-2h1q2-5 6-6z" style="fill:#828458"/><path d="m378 159 1-2 6 1-3 1h2-7z" class="st581"/><path d="M290 172v5l-1 3-1-8z" style="fill:#b2915e"/><path d="m367 138-1 11v-11q-2-3 0-7z" style="fill:#5e6136"/><path d="m356 160 1 6v1l-2 2h-1v-9h1l1-3z" style="fill:#5f5f36"/><path d="M354 148v3l-2 3q-1 2-1 0 3-3 1-5l2-4z" style="fill:#565b35"/><path d="m449 324 2-1v-1h-3l-2-1h-4 7l1-1 5 2-1 1z" class="st127"/><path d="m376 166 4 2h-4l-2-1v-1z" style="fill:#606339"/><path d="m443 137-2 1-3-4 2-1z" style="fill:#a2814c"/><path d="M82 253v-18l1-7z" class="st13"/><path d="m424 117-11-11h2l9 9z" style="fill:#a58651"/><path d="M378 121v3q0 2 0 0v4l-1 4q-1 1-1-1l-1-2 1-5v-2l1-1z" style="fill:#848456"/><path d="M329 243q-1 0 0 0v-1h1l-1 4-3-1 1-5z" style="fill:#a4907a"/><path d="M353 143q1 3-1 4h-2v-2l2-4 1-1z" style="fill:#6f7349"/><path d="M390 133h3l1 1q-3 2-7 0h1z" style="fill:#8e9162"/><path d="M262 172h2l-1 6q-2-3-1-6" style="fill:#ceaf7d"/><path d="m357 206-2 2-5 5h-1v-1l1-2zq0-1 0 0" style="fill:#b09c84"/><path d="m212 293 2 1 1 1-1 1-4-3-3-3v-2q3 1 5 4" style="fill:#272525"/><path d="M393 124q-2 6-8 9-2-1 0-3 2 1 4-1z" style="fill:#585d35"/><path d="m327 235 2 2v1l-1 5-1-3-1-6z" style="fill:#ac9882"/><path d="m456 329-2 4v-7z" class="st127"/><path d="M348 144q1 6-1 11h-1v-2h1z" style="fill:#8c8d5a"/><path d="M162 254c2-2 3 1 6 0v2z" class="st168"/><path d="m338 192 1 4q0 3-2 1-2 0-1-2v-2l2 1-2-3z" class="st242"/><path d="m381 136-1 2-2 3q-2 1-2-1l1-1 2-2zq0-1 0 0" style="fill:#a79075"/><path d="m376 124-2 9h-1q-1-6 3-11z" style="fill:#a7a87b"/><path d="m359 197 1 3h1l-1 2h-1l-2 3v1-7l1 1 1-1z" style="fill:#686b43"/><path d="m385 139-2 2-2 1-2-1z" class="st581"/><path d="m378 214 3 1h-9l2-1z" class="st690"/><path d="M396 153v2h-5l-3-1 1-1z" style="fill:#4c502b"/><path d="M207 288h1l4 4v1l-5-4z" class="st414"/><path d="m352 139 1 1-2 6-1-1 1-6q1-2 1 0" style="fill:#7d8056"/><path d="M291 172v5q-2-3-1-5z" style="fill:#dfc495"/><path d="m327 169 2 4v1q-3-3-4-7z" style="fill:#8c8d5e"/><path d="M338 184h2l2 3h-1l-4-2zq-1-1 0 0" style="fill:#545332"/><path d="M369 198v4l1 1q-2 0-3-2v-1z" class="st715"/><path d="m364 168 1 1-2 1-4 2-1-1 1-1z" style="fill:#7c7d53"/><path d="m397 133 1 6h-2l-4-2h3l2-3z" style="fill:#6d6342"/><path d="m350 162-1-2q-2-4 0-8v5z" class="st624"/><path d="m365 202 1 1h-1v1h3l-4 1h-3l2-2z" class="st715"/><path d="m370 153-1 2v2h2v1h-5z" style="fill:#7e684b"/><path d="m375 205 2 1 1 2h-2z" style="fill:#898b5a"/><path d="m343 188 2 4v1q-2 0-2 3v-5z" style="fill:#a69179"/><path d="m331 191 3 5q-4-1-4-6" style="fill:#9c9c6d"/><path d="M389 138v1l-4 2-2 1 2-3z" style="fill:#8c8f62"/><path d="m145 251 5-1 1 1-1 1z" class="st172"/><path d="m352 139-1 6v-7l1-1z" style="fill:#87895f"/><path d="M337 197v-2l1 2 1-1v5h-1v-1z" class="st518"/><path d="m328 233 1 3 1-2 1 1-1 2-2 1-1-3z" style="fill:#877357"/><path d="m350 213-3 2-1-1 5-4q1 2-1 3" style="fill:#c4b29e"/><path d="M321 248c1-1 0 3 1 3l-1 5z" style="fill:#a07c43"/><path d="M335 224h-1l1-7z" style="fill:#b4a089"/><path d="m370 195-1 2h-1l-1 2-1 1q-4 2-1-2l2-1 1-1z" style="fill:#ab967b"/><path d="M378 121v6h-1v-3q-2-1 0-3" class="st296"/><path d="m396 139-7 1q2-3 6-1" style="fill:#a2a478"/><path d="M244 166v-10z" style="fill:#8d692d"/><path d="M392 446h-4z" class="st477"/><path d="m360 196-1 1v1l-1-1q1 3-2 2l1-3v1l1-2z" style="fill:#878859"/><path d="M367 199v2l-2 1-2 1q-1-1 1-1v-1l2-1zq0-1 0 0" style="fill:#7d664e"/><path d="m464 312 1 2-1 3-1-3z" style="fill:#ae8e5b"/><path d="M325 173q2 0 2 3h-1z" style="fill:#989867"/><path d="M225 302q-3 0-5-2v-1z" style="fill:#282626"/><path d="m344 218 1-1v-1l3-1 3-2c-1 1-5 6-6 5" class="st134"/><path d="m331 235 3-6z" style="fill:#ae9d89"/><path d="M278 125v2h-3v-1z" style="fill:#856c3d"/><path d="M67 277v9h-1v-12z" class="st484"/><path d="M353 195h-2l1-2 1-1q2 2 0 3" style="fill:#858a60"/><path d="M94 250h-2q2-2 5-1l-1 1z" class="st549"/><path d="m368 158-1 1-3 4h-1l4-5z" style="fill:#6c5840"/><path d="m339 198 1 3v2h-1l-1-3z" style="fill:#6c6c44"/><path d="M359 199v1l-1-1q-2 1-1 4l-1-4q2 0 2-2z" style="fill:#75774c"/><path d="m151 252 4-1v1l-1 1z" class="st172"/><path d="M309 167v-7z" class="st633"/><path d="M299 302v-11z" class="st190"/><path d="M75 356v2l-1-7q3 2 1 5" style="fill:#1b1a18"/><path d="m356 161 1 1h1v3c-2 1-2-3-2-4" style="fill:#5e6135"/><path d="M66 299v-11z" class="st733"/><path d="M243 307q-2 1-5-2h1z" style="fill:#31302f"/><path d="m343 187-1-1h1v-1q0-2 1-1z" style="fill:#756545"/><path d="m168 256 4-1-1 2z" class="st168"/><path d="m337 160-1 4v-1 6q-2-4 1-9" class="st274"/><path d="M393 446h4l-4 1h-1v-1z" class="st477"/><path d="M92 251h2c0 2-4 2-4 1l-1-1z" style="fill:#343230"/><path d="m358 193 3-3q0 2-3 3" style="fill:#bfc098"/><path d="M369 197v1l-2 2v-1l1-2zq1-2 0 0" style="fill:#6f573f"/><path d="M123 249h-8z" class="st93"/><path d="M66 286v-8z" style="fill:#0e0f0d"/><path d="M337 210q2 2-1 5z" style="fill:#bba68f"/><path d="m212 294 2-1 1 1-1 1z" class="st414"/><path d="m369 197 1-2v-1q2 2-1 3" style="fill:#9e8a70"/><path d="m228 303 3 1-1 1h-1z" style="fill:#2a2726"/><path d="M371 299h-5l-1 1-1-1 1-1z" style="fill:#826130"/><path d="m74 349-1-3 1-1q2 1 1 4" style="fill:#090806"/><path d="m379 138-2 3v-1z" class="st126"/><path d="m252 171-8-1z" class="st650"/><path d="M228 303q-2 1-3-2h1z" style="fill:#3c3a39"/><path d="m299 290 1-7z" class="st190"/><path d="m235 305-1-1q2-1 3 1zl2 1z" class="st172"/><path d="m76 360-1-2v-2q3 1 1 4" style="fill:#242522"/><path d="M372 298h-7z" class="st429"/><path d="M347 215q-2 2-3 1z" style="fill:#c4b3a0"/><path d="M380 132v-6z" class="st126"/><path d="M219 299q-2 1-3-2h1z" style="fill:#343231"/><path d="m369 151-2 1v-2l1-1z" class="st131"/><path d="m457 327 1-3z" class="st60"/><path d="m336 195 1 2 1 2v1l-1-1-1-2-1-3z" style="fill:#6e7043"/><path d="M238 306h-2v-1z" style="fill:#0b0809"/><path d="m234 305-1 1q-2 1-3-1l1-1z" style="fill:#302e2d"/><path d="m300 311-1-8z" class="st190"/><path d="M476 233v3-5z" style="fill:#9b7941"/><path d="m381 142-2 1q-2-1 0-2z" class="st627"/><path d="M73 345v-3z" style="fill:#040202"/><path d="m74 351-1-2h1z" style="fill:#373634"/><path d="M217 298q-2 1-2-1l1-1z" style="fill:#272625"/><path d="M386 129q0 2-1 1v3l-1 1h-1v-2q1-4 4-6c1 0 0 4-1 3" style="fill:#77774a"/><path d="M234 305h1v1q-1 2-2-1z" style="fill:#0c0b0b"/><path d="m274 127-4 1z" class="st236"/><path d="M232 303h-2v-1z" class="st172"/><path d="m67 306-1-4z" class="st548"/><path d="m132 250-3-1z" class="st128"/><path d="M381 134q1 0 0 0v1z" class="st126"/><path d="m383 135-1 1h-1v-1z" style="fill:#6c543b"/><path d="m340 204-1 2v-2z" style="fill:#b19d84"/><path d="m377 206-1-1z" class="st326"/><path d="m384 134-1 1h-1z" style="fill:#59482c"/><path d="M336 170v2zv-3z" class="st274"/><path d="m337 199-1-1v-1z" class="st242"/><path d="M383 131v-3z" class="st126"/><path d="M100 250h-2z" class="st549"/><path d="M67 311v-3z" class="st548"/><path d="M226 301h-1l-1-1h1zm3 1h-2z" class="st172"/><path d="M359 166v-1z" style="fill:#cfc9b9"/><path d="M67 315v-2zm1 4-1-2z" class="st0"/><path d="M140 250h-3z" class="st218"/><path d="M68 323v-2z" class="st179"/><path d="m274 324-1-1h1z" class="st60"/><path d="M371 204h-3z" class="st715"/><path d="m69 326-1-2z" style="fill:#32312e"/><path d="m281 128-2-1z" class="st236"/><path d="M274 327h179v94q0 1 0 0v-92l-1-1z" style="fill:#0b0a0a"/><path d="M428 321h1l19 1v1l-5 1h-1l-54 1v-1l43-1v-1l-4-1z" style="fill:#e9e7e5"/><path d="M92 434H82l-3 1-1-1-1 1 9 3q33 5 67 6l108 2q102 2 202-9h2v1l-52 5-2 1h-24l-2 1h-15l-2 1-74 2a2082 2082 0 0 1-203-8l-14-2-6-2v-2z" class="st616"/><path d="m371 446 2 1-35 2h-44l74-2z" class="st17"/><path d="M94 431c0 1 0 5-2 3v-1l1-4z" class="st496"/><path d="m334 267-1 4q0 4-3 7v5l-2 2v7l-1 6v3l-2 6q0 3-3 4l-1 1-4-1v1c-3-2-2-6-5-8l1-1q0-2-1-1v-2l5 4q0 2 2 2 2-1 1-2c3 1 2-3 2-3l1-1v-2l1-1q-1-3 1-5l-1-1v-2q-1-1 1-3h-1l3-5v-2l5-11z" style="fill:#aa874f"/><path d="M314 282v-3q-2 1-2-3v-5q-3-3-1-7l4-4c4 0 10-3 14 1l1 2 1 1-1 2 1 1v3h-2l1 1-2 2h-1q-2-1 0-3v-1q3-2 0-5-1-6-6-2h-4q-6 1-4 7v1q1 2-1 3l2 3v2q5 0 2 3l-1 1q2 3-1 2z" style="fill:#b9965d"/><path d="m314 284 2 8q-1 6 4 2l1-4v-1l2 1-2 8-3 1h2v3h-3l-2-5h-1l-1-8h-1 1q-1-2 1-3l-2-2 1-2z" style="fill:#b59259"/><path d="M328 273q1 2-1 2l-2 6-1-1q-1 3 1 2l-1 1-1 2v3l-1 1-1 3 1 1h-1v1q-2 2-2-1l3-12 1-2 3-5q-1-1 1-1z" style="fill:#b7935a"/><path d="M329 320h1l6-2c2 2 6-3 6-4q-3-2 1-3l2-9q-1-3 1-4l-1-2v-6l1-5 1-2v-5l4-8 2 2q3 2 2 6l2 2 2 17 1 18v-1q-3 1-1-2l-1-3-1-3-1-13q1-2-2-3-3-2-1 0l-2 4v4l-1 6-2 4q1 4-1 6v2c-1 3-16 7-19 6l-1 1h-16q-3-1 0-2l3-1z" class="st79"/><path d="m329 320 5-2h1l4-2v-4l2-2-1-2 2-2-2-2h3v-9l1-6 2-12-1-5q2 0 2-2h1l1-2 5 1c-1 3 4 3 3 6l1 4 2 10-1 1v7-6l-1-4-1-2c2-3-2-5-2-7-1-1 2-5-3-5v-2h-1l-1 4-2 1v3h-1l1 4-2 3 1 2-1 2 1 1v4h-1l1 4h-1v2l-2 6v5l-1-1c-3 2 1 1 0 4q-2 3-6 4h-2l-5 2z" style="fill:#816233"/><path d="m358 273 1 7 1 1 1 16v7l1-1v5l-1-2-2-6 1-10h-1l-1-11z" class="st702"/><path d="M315 319q-1 2 1 1h10l-4 2-2-1h-4l-6 1 1 1-3-1c-1-2 5-4 7-3" style="fill:#846636"/><path d="M322 319h-5z" class="st190"/><path d="M426 299h5zl-2 5h-5l-1 2-9 5-6 1h-6l-2 1-3-1-9-1v-2l-6-2-1-2q-4 0-4-6l3 1q12 13 29 9 2-2 4 0 4-2 6-5 3 0 3-3l2-2z" class="st429"/><path d="M418 299h1v1l-4 3-6 6h-3l-1 1h-18l-7-4-6-6-2-1h5q2 4 5 5 6 6 14 3h3q6 2 11-4 2 0 2-3l1-1z" style="fill:#a28049"/><path d="m366 300 5-1v3l3 5 9 4 3 2h2l1 1q3-1 5 1 3-2 7-1h7q2-3 3-1l-10 2-2 1-2-1h-1l-13-1c-5-1-3-2-6-4l-3-2h-2l-3-8-3 1z" style="fill:#896a38"/><path d="m437 299-2 2-3 2-2 3-4 1-2 2-5 3-1-1-1 1-3 1h-2l5-2 3-3h2l7-4q-1-2 2-2c0-4 4-2 6-3" class="st702"/><path d="M444 299h-13z" style="fill:#7c5d2a"/><path d="M426 299h-7l1 3h-2v1l-4 2-4 4h-2q-1-2 1-1l3-2 2-4 5-3z" style="fill:#9e7b46"/><path d="M378 299h-5v-1z" class="st429"/><path d="m367 308 2 2q3 1 1 2l1 1q0 3 3 4h1l1 1c3 3-2 3-4 3h-12l-1-2q-1-1 0 0 3-3 3-8v-1l1 2 1-4z" class="st743"/><path d="m410 316 4-1 9-3 10-7q3 0 5-2l1-1 2-3 2 1-2 4v1l-1 2q0 3-2 3-5-3-8 1l-3 1c-1 2-15 6-15 5v-1z" style="fill:#7b5e2f"/><path d="M369 310q5-1 9 4l1-1v2h5q13 2 26 1h2v1c-1 1-18 2-21 1h-2l-10-1-4-1q0-4-4-3-1 2-1-1z" style="fill:#7a5d2f"/><path d="m442 306-8 10q-3-3-8 1h-10v-1l8-2 9-5h2l3 1 1-1v-2l2-2 1-1z" class="st601"/><path d="M366 302c2 0 3 5 0 5z" style="fill:#785c30"/><path d="M272 128h5l3 3 5 1 1 1c-1 3 3 5 1 7v1l-1 1-3 8-3 3-2 2-2 1 4-5 3-3 2-5q2-3-1-5l-2-4-6-3c-1-1-5 0-4-3" class="st236"/><path d="M304 155q-2 1-4-2-6 4-9 10l-1 1-2 7-1 4-1-3h-13v-1h13l-4-1q2 1 3-2v-1l1-2 1-4 4-3c1-1 1-5 3-4v-1c1-1 6-6 8-4v2z" class="st277"/><path d="m294 146-1 1q1 2-1 2l-1 2-2 2v2q-2 0-3 2l-2 2q-2 2 0 3l-2 2q-2 2-2 7h-2l1-7 2-2 11-14q0-3 2-2" style="fill:#987741"/><path d="m253 156 3 4 1 1 2 1 1 3h3l2 3q-1 3-3 2 0-3-3-4h-2v-3l-3-3v-2l-1-1z" style="fill:#a28149"/><path d="M266 171v6l4-1q7-1 12 4l4 2-4-1q-5-6-13-4-2 2-4 1z" style="fill:#a17f49"/><path d="M245 171h10-11v-2z" style="fill:#8a6833"/><path d="M273 171h-7v-1z" class="st429"/><path d="M280 171h2z" class="st124"/><path d="m335 246-1 2-1 8h6l2 2q2 2 0 3 2 3-1 4l-2 6q1 2-1 4 2 3-1 4h1q-1 4-3 5 1 5-1 9 2 3-1 7 2 4-1 7l-1 5h-1l-2 4-3 1h-5l1-1q-3-2 0-2 5 0 6-5l1-5 1-1q-1-8 3-15l1-8q-1-3 3-6l2-9v-1c3-3-3-7-6-7l1-4h-1c0-2 0-7 3-7z" style="fill:#9d7a44"/><path d="M301 281q2 0 2 2l1 2-1 4 1 2v4l2 12v2q4 3 3 8l2 1 2-1 2 1-1 1 2-1v1h-1l-7 3q-1 2 0 0l-2-2 1-1 1-2-3-8-1-1h-2q3 2-1 3v-1q-2-14 0-29" class="st190"/><path d="m342 255 4 2 4 3-2 1-6 4-2 7-1 1v4l-2 2-1 8-1 2-1-1v-5s3-3 1-4l2-2v-1q2-3 0-6h1v-2h1l-1-1c2-1 0-2 3-3l-1-1h1l-1-3h2l-3-4h3z" style="fill:#977640"/><path d="m335 289 1 1-1 3 1 3-3 4 2 2q-2 1-1 3l-2 3q-2 1 0 4h-1q0 3-3 4h-1l2-4v-4q2 0 0-2 3 0 3-3l-1-3 2-5-1-2 2-5v-4z" style="fill:#98763f"/><path d="M327 316h-2l1 1-3 1-3-1 4-1zv-1l3-3z" class="st198"/><path d="M266 133q5-2 9 1c2 2 8 6 5 9l-3 6-4 6c-1 0-6 3-7 2l-5-1-2-2-1-1v-3q-3-1-3-6 1-9 11-11" style="fill:#bf9b60"/><path d="M266 133q2-3 4-1l2-1v1l5 3 3 3 2 2-1 2h1c-3 1-1 2-2 3l-2 4h1l-3 3-3 4-7 2c-2 1-3-2-5-1v-2q-2 1-2-1 6 4 10 1h2l2-2 1-2 2-1c-2 0 1-2 1-1v-2c3 0 1-2 2-3l1-1v-3l-2-2q-1-2-3-2l-2-2z" style="fill:#bb975c"/><path d="M332 253v4h2l1 2h1q1 2 3 2l-1 3-3 7 1 3-2 2-2 3 1 2-2 6v3l-2 7v8l-1-1h-1q2 3-1 6h2l-2 2c-1 1 1 2-2 2v2l-2-1-1 1-2-1 1 1h-1c-1 1-6-1-6-2l-3-10 1-1 2 2v2h1l1 4h-2l2 1q1 4 5 1l2 1v-1q3 0 2-3l-2 2v-2h1l1-2 1 1v-2l2-6-1-3q2 1 1-2l1-1-1-2h2q-2-3-1-4v-4l2-2v-6l2-2 2-4 2-8q0-4-5-4l-1-1z" style="fill:#a37f48"/><path d="m309 287 1 5-1 1 1 6v2l1 1v1l1 8 1 1v1l3 3 1-1 1 1-1 1-5-1 1-1q-3-6-3-11l-2-5v-6h-1l1-3h-1c2-2-1-3 1-3z" style="fill:#a07e47"/><path d="m308 284 2 2h-1v1h-1z" class="st556"/><path d="M288 171h-1l1-2 1-6 2-1 1-2 2-3 6-5 2 3h2l2 6 2 2v8h-1q-1-6-4-10l-2-4c-1 0-8 6-8 8q-3 2 0 5v1z" style="fill:#8b6b38"/><path d="M293 171h15-17z" style="fill:#7b5b28"/><path d="m474 435 4 1 1 1h-2q-24 5-49 6l37-5 6-2-2-1-15-1v-1l2 1h10z" class="st616"/><path d="M428 443q-6 2-13 2l-19 1h-4l-11 1h-7v-1h11l2-1h24l2-1h10l3-1z" class="st17"/><path d="M465 438q-34 5-68 6-121 7-244 1-31-1-63-5l-15-4 3-1 2 2h1l3 1q0-3 1 0h3l4 1h3l3 1h5l3 1h5l2 1h12l3 1h9l5 1h8l7 1h28l10 1h12a848 848 0 0 0 99 0h28q60-1 120-8h1l12-2-3-1h-10v-1l13 1 6 1-1 1z" style="fill:#e8e7e5"/><path d="m454 434 15 1q0 2-2 2l-13 1a1296 1296 0 0 1-192 8v-1h77l19-1q0-2 0 0l13-1z" style="fill:#dddad8"/><path d="M453 422v13h-1l-1-2v-7l1-1z" style="fill:#2e2d2b"/><path d="M334 246q-3 2-2 6v1l-1 5h2l-1 1q4 0 5 3l-1 2 1 1-2 2 1 1q-2 2-1 3h-1v-4l1-1-1-1q3-3-1-4 0-2-2-1l-2-2v-1l-5-1h7v-9z" class="st163"/><path d="M340 246q-2 2 0 6l-1 2 1 2h-5v-6l2-4z" style="fill:#826434"/><path d="m322 246 3 2v8h-1q1-6-2-10" style="fill:#c29e67"/><path d="M333 245h-2v-1h2" class="st163"/><path d="m357 320 24 1 2 1-1 1 20 1 22-1 2 1h2-72l3-1h1q3 0 1-1h-1l-3-1z" style="fill:#cbc5c1"/><path d="m308 322 3 1h7l35 1h-35l-11-1q-2 0-1-1z" style="fill:#c7c3bf"/><path d="M380 299h5l4 3 2-1q2 2 4 0v1l4-2-1-1q5 1 10-1 1 2-2 2-4 5-11 5-9 0-15-6-2 1 0 0" style="fill:#bc9a60"/><path d="M411 299q2 1-2 1l-6 6h-5q-5 2-8 0l-3-1-6-3q-2-1-1-3l4 2q2 0 2 2 8 3 15 0l4-4q2 1 3-1z" style="fill:#b69359"/><path d="M412 299q3 1 0 1l-2 3q-4 6-11 4h-2q-2 2-3 1c-1 0-7 0-7-2v-1h3l4 2v-1h9l5-5v-2z" style="fill:#af8b52"/><path d="M413 299h4c-2 0-6 2-4 4q-5 1-7 5l-5 1-2-1-2 1q0-2-1-1v1h-3q-5 0-9-3l-3-1v-1h-1q-3-2-3-5 2 0 3 2l7 5h3v1l3 1q2-2 2 0 1-2 2 0l1-1q4 1 8-2l1-1h2v-2l2-1z" style="fill:#aa874e"/><path d="M380 299q-1 0 0 0 3 5 7 6v1l-5-3-2-1q0-2-3-3h-2l3-1z" style="fill:#ae8c53"/><path d="m342 220-1 1-5 7-5 17v1h-1l1-4 1-6 1-4 1-2c1-2 4-8 6-9z" style="fill:#968068"/><path d="m332 236 1-4z" class="st256"/><path d="m335 224-1 3v-3z" style="fill:#9e866c"/><path d="m331 235-1 3v-1z" class="st256"/><path d="M340 201v1l-1-3z" class="st518"/><path d="m330 243-1 2v-2z" class="st256"/><path d="m356 208-6 6q-4 5-9 7l1-1 2-2 6-5z" style="fill:#8a745d"/><path d="m332 245 5-17z" style="fill:#7b664e"/><path d="m363 203-2 2-1 2-4 1 2-2z" style="fill:#715c43"/><path d="M374 446h-1l-2-1z" class="st616"/><path d="M245 171v-5l1-1q-1-2 1-3l3 3 1-1 1 4h-1l1 3z" style="fill:#8b6c3a"/><path d="M102 394q-2 0 1 4c1 7-3 24-6 31q0 1 0 0l-2 5h-1q-2 0 0 0l-1-1h2v-3l1-3 3-11v-2c1-3 3-10 2-13l-2-2v2-2l1-5-1-1z" style="fill:#3e3a37"/><path d="M374 152q4 3 8 0c4-3 6 1 7 0v1l-1 1h-4l-9 1-2-1z" class="st433"/><path d="M386 138h-1l-6 3v2l-3 2 1-3h1l2-3z" style="fill:#5f5d33"/><path d="m373 154 3 1h-1l-2 1-2-1z" style="fill:#53552e"/><path d="m375 140 1 2v-1l2 1-2 3-2 4-1-1v-1q2-2 2-5z" class="st627"/><path d="m374 149-2 3h-2l2-3z" style="fill:#846e55"/><path d="m372 152-3 3 1-2v-1z" style="fill:#705e44"/><path d="M388 149h-5z" style="fill:#828757"/><path d="M371 157h-3l1-1h2z" style="fill:#9a916c"/><path d="m373 156-2 1v-2z" class="st433"/><path d="M266 172q0 4 4 3l8 1h1l5 2q2 0 2-2v-1q1 3-1 5h-2l-10-4-8 1z" style="fill:#906f3b"/><path d="M343 204q-3 7-4 15l2-1-3 2v-6q5-16 14-33l3-6-6 15z" style="fill:#806c53"/><path d="M121 250h12l22 4 28 10h-1l-9-2-2-3-5-1q-1 2-1-1h-7l-1-1-19-2-3-1q0 2 0 0h-12l-8-1-1 1-11 1c-12 1-25 3-31 13l-1 1-1 3v1h-1q-1-6 2-10 7-9 19-10l4-1 15-1z" style="fill:#ede9e4"/><path d="M142 254q8-1 16 3h7l1 2h5l3 1v1l9 3 6 3 7 6 1 2q-1 2-4-1-11-9-23-13l-7-2-24-5z" class="st341"/><path d="m183 263 6 4h-4l-2-3z" class="st292"/><path d="m350 198-6 6 2-5v-1l1 1 3-3z" style="fill:#737349"/><path d="M360 166q3-2 2 1l-3 3-1 1v-1z" style="fill:#5d5237"/><path d="m352 193-1 2-4 1 1-2v1z" style="fill:#9a9c6e"/><path d="m356 173 1-1z" style="fill:#937f65"/><path d="m350 139 1-1q-2 4-1 7v2l1 7v1l1-1v2l3-3q1 4-3 4v-1 4l-2-7-1-9q-1-3 1-5" style="fill:#7b7d4e"/><path d="m352 158 2-2v2q-2 2-1 4v1l1 4h-1l-2-8z" style="fill:#6a693d"/><path d="M355 160v3l-1 1-1-4 2-1z" style="fill:#52522d"/><path d="m356 161 1 3h1v3h-1l-1-1v-6z" style="fill:#575731"/><path d="m68 271 1 2v3l1 1q0 3-3 4l1 1-1 8v5q3 1 1 2v3l2 19c1 0 1 5-1 4v-5l-1-2v-2l-1-8v-36z" style="fill:#ede9e5"/><path d="M71 272q1 3-1 2h-1v-2z" class="st312"/><path d="M67 280v-5q0-1 0 0z" class="st407"/><path d="m68 271 1-2z" style="fill:#bbb6b1"/><path d="M67 275v-2z" class="st484"/><path d="m389 122-2 4-4 6v-4l2-1 4-7z" style="fill:#63663b"/><path d="M389 124v2l1 1-1 2q-3 3-3 0l1-3 2-4z" style="fill:#6c7042"/><path d="M394 116q0 4-3 7c-2 0 2-7 3-7" style="fill:#8e9161"/><path d="M389 124v1l3-1-2 3-3 2z" style="fill:#767a4b"/><path d="M434 316q-2 3-5 4l-4 1-5-2-10 1v-1l4-2h2l3-1h4c3 2 3-2 6-2q4-2 5 2" style="fill:#6b5127"/><path d="m410 319 11-1 4 1v2l4-1-1 1h-1l-1 1h-2q-3-3-7-1l-34 1-2-1-3-1-1-1q0-2 2-1l3 2 11-1z" style="fill:#654c24"/><path d="M453 421H276l-1 1q-1 1-3-1v-1z" style="fill:#191919"/><path d="m340 177 2 4v-3l1 1v-2 8l-1 1-1-3q-2 0-1-2z" style="fill:#4d502c"/><path d="M339 170v1l1 9h-1q-1 1-1-1l-1-1v-2l1-8h1z" style="fill:#626539"/><path d="M340 177v4q-2 1-1-1v-9z" style="fill:#55572e"/><path d="m370 149-1 2-1-1v-5l1-2v3c4-1 1-7 3-10q1 7-2 13" style="fill:#50542b"/><path d="M375 129v7h-1v-7zl1-4z" class="st125"/><path d="M376 131v3h-1v4l-1-2 1-7 1-2z" class="st203"/><path d="m375 142 2 1-4 5-1 1h-1q3-3 4-7" style="fill:#b29e89"/><path d="m372 149-2 3v1h-1v-1q-1-2 2-2v-1z" style="fill:#9e886e"/><path d="m371 150-2 2v-1z" style="fill:#ccc1ac"/><path d="m347 186-1 1q0 2 0 0c-3-3-1-7 1-2" style="fill:#81684e"/><path d="m343 187 1 3 2-2-1 4h-1z" style="fill:#8b735b"/><path d="M354 169h1v2l-2 1z" style="fill:#866d4a"/><path d="M347 187v-1l1-2 1 1z" class="st354"/><path d="M368 150v-5z" style="fill:#666d41"/><path d="M85 384c-3-4-8-19-8-24v-7q-5-20-6-41v-1h1z" class="st237"/><path d="m71 311 3 28 3 14v5-1 3h-1l-1-4-1-5v-2l-1-4-1-2-3-17v-3l1-4v-8z" class="st407"/><path d="M71 283v4a347 347 0 0 0 15 94v1l1 3 2 1 4 4 8 3h3q2 0 0 0h-5q-7 1-11-4-3-2-3-5l-2-12-7-29-5-32v-1q-2-12-1-24-1-3 1-6z" style="fill:#ddd6d1"/><path d="M99 393h-1q-7 0-11-5h1q5 4 11 4" style="fill:#272423"/><path d="m99 394 8-1 2 1 4 1h-5q1 2-1 2h-1l-2-3h-6z" style="fill:#21201e"/><path d="M397 134v4l-1-1h-1v-2h-1z" style="fill:#7a6a4e"/><path d="m379 127-1 7-1 1-1 2v-3l2-6v-1z" class="st203"/><path d="M376 134v-3 1h1l1-4z" class="st296"/><path d="M374 211q2 0 1 2-4 1-6-3z" style="fill:#8b8e5d"/><path d="m365 167-5 2 3-3q0-2 1-1h1z" style="fill:#63653d"/><path d="M343 184v-3z" class="st676"/><path d="m364 202-5 3h-1v-1l1-1h1l4-3z" style="fill:#977f66"/><path d="M357 205v-4h2l1 1z" style="fill:#625f3d"/><path d="m365 198-1 2h2v1l-2 1-1-1v-2z" class="st637"/><path d="M329 173q3 4 7 4v-1q3 0 1 2l1 1q2 2-3 0h-1l-5-5z" style="fill:#7f8053"/><path d="m328 233-1-3h1z" style="fill:#4a5222"/><path d="m367 158-3 5-1 3-1 1v-1h-2l2-2z" style="fill:#6e5c43"/><path d="M359 290h1v10q-1 4 2 5v6l-1 2-1-1-1-3z" class="st46"/><path d="m362 205-2 2v-1z" style="fill:#d8d4cc"/><path d="m384 154 1-1v1z" class="st408"/><path d="m262 315 7 4q2 5-2 1-2 1-1-1l-2-1q-5-3-2-3" style="fill:#ece7e3"/><path d="m269 319 4 7q-4 2-4-3l-2-3 2 1z" class="st558"/><path d="M258 313h1q0 3-5 0l-2-1-3-1q-2 0 0-1z" style="fill:#e7e4df"/><path d="m259 313 3 2-1 1 3 2q-3 1-6-2l-4-3q3 2 5 0" class="st104"/><path d="m207 290 7 7 2 1 3 2 5 2 3 2 2 1h-1v1q-9-1-16-8-2 1-3-3c-3-2-13-15-13-18q0-2 2-1z" style="fill:#e8e2dc"/><path d="m197 275 1 1-1 2 8 13 4 4q-4-1-6-6h-1l-6-10-3-5 2 1z" class="st473"/><path d="M67 295q0 1 0 0v-14z" class="st407"/><path d="M67 300v2-7z" class="st733"/><path d="M67 304q0 1 0 0v-4z" class="st407"/><path d="M67 306v2-4z" class="st548"/><path d="M68 309v-3z" class="st157"/><path d="M68 314q0 2 0 0v-3z" class="st407"/><path d="M68 311v1l-1-3h1z" style="fill:#353330"/><path d="M68 316v-2z" class="st0"/><path d="M69 318v-2z" class="st407"/><path d="m69 320-1-2h1z" style="fill:#302e2c"/><path d="M69 323v-2z" class="st179"/><path d="M451 322h1v1h-1zm-3 0-2-1z" class="st43"/><path d="m334 179 3 1q1 2 1 0l1 1 1 1 1 2h-1q-1 1-3-2z" style="fill:#7b7a4f"/><path d="m335 180 3 4-5-4z" style="fill:#4b4c27"/><path d="m338 164-1 11-1-1v-4l1 1zl1-2z" style="fill:#7a7b4d"/><path d="M339 167v1q-2 5 0 10h-2l-1-2v-2h1l1-10z" style="fill:#6c6e41"/><path d="M274 327h179v94H272v1q2 1 1 3 2 3 1 5l-1 3q3 5-2 3l-4-12-1-2h-2v-1l2-1-1-4 1-1-1-4q2-2 4 1v1q4 2 3 8h179l1-1v-92z" style="fill:#45403c"/><path d="M221 306q1 2 4 1h1l2 2q-2 4 3 3 2 4 6 4l3 3q1 5 7 6 2 3 6 4 2-1 2 2 3 0 4 3l5 2q2 3 3 0l-1-13h3q1 4 4 3v1l-2 1v1l-2 10-3 1h-3l-2-2q-5 1-7-3l-13-6-4-5q-5 0-7-5l-5-3q0-4-5-3-1-4-6-5v-6z" class="st146"/><path d="M452 328q0 2 0 0-8 3-15 0l-78 1-2-1h-54q-8 2-14 0h-9q0 2-2 0l-3 1-1-1z" style="fill:#e6e6e3"/><path d="M276 337c0-4 3 0 4 2l1 3q0 7 4 12v6q-2 3-3-3-3-2-3-6h-1l-2-6h1-1l1-3z" style="fill:#a0958c"/><path d="m277 334 4 3q3 7 3 13l1 1v3h-1l-3-5-1-8-3-5-1 1v-3z" style="fill:#a79c93"/><path d="M276 344c1 2-4 1-3-1l-1-2c-3-2 0-8 1-11v-1z" class="st625"/><path d="M273 328v2l-2 9q0 3-4 2-1 1-1-1h-1l4-1c1-3-1-9 2-11z" class="st271"/><path d="M275 329q6-1 4 2l6 1q5-2 8 1h-17l-1-1z" style="fill:#9c9086"/><path d="M286 333h7l1 1zh-1l-1 1-5-1h-3l-1-2z" style="fill:#897d72"/><path d="M277 345q0 2-1 1-2 1-2-1h-1l-4-2q-2-1 1-1l3 1 3 2zl1-2z" class="st318"/><path d="M273 327h-2v-1z" style="fill:#676460"/><path d="M229 305h4l2 1h2l5 2 7 2v1q2 0 0 0l-20-4-1-1zh-1zm128-138-1 3h-1v-1q0-2 2-2" style="fill:#e7e3dd"/><path d="M109 249h-4z" class="st474"/><path d="m350 145-1 6v-7l1-1z" class="st624"/><path d="m355 153-2 3-1-2 2-3z" style="fill:#8c8b5a"/><path d="m389 129 1-2 2-3z" style="fill:#5e6239"/><path d="M116 250h-7z" class="st93"/><path d="M127 250h-6zm6 0h-3z" class="st128"/><path d="m378 124-1 4v-1z" style="fill:#91915d"/><path d="M386 129v1l3-1-3 2h-1v-1z" style="fill:#5d6137"/><path d="M359 198v1l-1-2 1-1z" class="st309"/><path d="M340 183v1l-2-1-3-4 1-1z" style="fill:#65663d"/><path d="M342 186q0-2-2-3v-1h1z" style="fill:#b4af8d"/><path d="m367 199 1-2z" class="st637"/><path d="M395 446h-2z" class="st477"/><path d="m427 321 11 2h-3l-7 1h-2v-2z" style="fill:#b7b0ab"/><path d="M92 435q-6 1 2 3l15 1 7 1h1l10 1 6 1h15l43 2 15 1 65-1 4 1h33l-46 1a1168 1168 0 0 1-177-8h-1v-1q-5 0-2-2z" class="st424"/><path d="m92 435-11 1 3 1h-4q-3-2 2-2z" class="st649"/><path d="M93 435h2l4 1 7-1v1h-6v1l-10-1q0-2 2-2z" class="st215"/><path d="m82 435-3 1 1 1-2-1v-1z" class="st645"/><path d="m426 443-3 1zm-13 1-2 1zm-18 1h-2zm-8 0-2 1zm-17 1-2 1z" class="st616"/><path d="M313 269q-3-4 1-7h2l1-1h4q2-2 3-1l3 1q-1 1 2 3l-1 1h1q1 3-1 4v1l-2 1 1 2-1 1-3 5-1 2-1 3q1 3-2 2-4 4-3-2v-3h-1v-1l2-1h-2l-1-1v-2l-2-3zl2 5 3 4 1-2q4-1 5-4 3-3 3-7-2 1-2-1-2-4-4-1-5 0-7 5z" style="fill:#bd9b62"/><path d="m326 274-2 4v1l-2 2v7c-2 0 0 2-2 3l1 1q-2 1 0 2v1l-1 2h-3l-1-3 1-2-1-3-1-1 1-1-2-1v-4l2-1c3 1-1 3 1 5h-1l2 1v-2l2 1c2-2-2-1 0-3h2q-2-3 1-4l2-3-1-2z" class="st88"/><path d="m327 265 1 2-2 4-1 1-1 1-2 4q-3-1-4 2c-1 1-2-4-2-4l-2-2-1-3v-2h1l2 4 4 1 1-2q4-1 5-4-2-3 1-2" style="fill:#c2a169"/><path d="m314 276-2-3q3 2 2 3m0 1q3-1 0 0" class="st88"/><path d="M327 323q2-2 3-1l7-2c4-2 4 1 4-2l1 1c1-1 7-3 4-4v-1q2-1 1-4l-1-1 4-6v-9l1-1q-1-2 1-3h-1v-2l2 1-1-1 3 1q2 0 2 3v7l1 10 1 3v2h1l-1 2q-4 0-1 3l-1 1c-3 2-4-4-2-6q2-2 1-5l-1-3q-2-2-3 1 2 3-1 5 1 2-2 3v2q-9 8-22 6" style="fill:#74582b"/><path d="M327 323h7v-1l1 1q8-2 14-6 0-4 1-3v-2l2-2-1-4 2-1q0-3 2-2v1q2 2 2 5l1 2-1 1v1q-3 2-2 6l2 1v1l-1 1-43 1h-1z" style="fill:#6f5429"/><path d="M360 315q2 3-1 4 0 3-2 1-3-2 1-5l1 1 1-2v-1z" class="st227"/><path d="M362 311c2 3-1 4 0 7h-1l-1 1h-1l1-4 1-2z" class="st715"/><path d="m359 313-1-4z" class="st227"/><path d="m438 310-1 2q-2-2-6-2l-1 2h-2l-3 2-9 3h-2q-4 3-9 2h-24l-6-2h-1q-3-1-3-4c2-3 5 1 5 3h2l5 1q1-1 2 1l6-1h19q2 1 2-1h3l5-1 8-4 7-3z" style="fill:#73572c"/><path d="m375 317 8 2 2-1q2 2 5 0h1l2 1h17v1h-28c-2 0-4-3-5-1l-1-1z" style="fill:#6b5128"/><path d="m377 319 4 2h-23l-1-1 2-1q3 2 8 1h9v-2z" class="st715"/><path d="m371 313 3 4q0 2-1 0l-3-2z" class="st715"/><path d="m270 172 8 1h6l2-1-1 5q-7-2-15-2-3 1-3-3z" style="fill:#7b5d2e"/><path d="m267 172 1 3h9q5-1 8 1l1-4h1v4q-1 3-3 2l-4-2h-13z" style="fill:#856635"/><path d="M273 172h13l-1 2-4-1-3 1zh-3z" style="fill:#74572a"/><path d="M260 138v2q-2 5 1 10l1-1q4 3 7 1 2 1 3-2l2-1q0-2 2-2h1l-2 4-6 6q-1-2-2 0-3-2-5-1v-2h-2l-2-5h-1v-5l2-4z" style="fill:#c3a166"/><path d="m259 138 1-1 1-1 6-2 1 1 2-1 2 1 6 5v5h-2l-1-2c3-5-9-8-12-6q-1 2-3 1z" style="fill:#c3a064"/><path d="M293 170h-2l-1-3 1-2q1 1 2-2l4-5 5-3 3 5-1 1q4 4 3 10h-3l2-1c0-1-2-6-4-6-1-3-6-3-3 1v3l2 3h-3z" style="fill:#846433"/><path d="M298 171h-5v-1z" class="st277"/><path d="m301 171-3-1c2-2-1-3-1-4l1-1-1-3h4l2 2 2 2v2l2 2-3 1z" style="fill:#7d6030"/><path d="M262 446h49-5l-30 1h-47l-22-1h-12l-10-1h-28l-7-1h-8l-5-1h-9l-3-1h-6l-4-1h-9l-3-1h-4l-4-1h-3l-4-1h-3l11 1q82 8 166 7" class="st649"/><path d="m306 446-3 1h-27l2-1zm-77 1h-19l-3-1h20zm89-1h14-21z" class="st645"/><path d="M334 445h-16l2-1z" class="st649"/><path d="M274 447h-15l2-1h11zm-90-2h-12zm11 1-10-1zm-27-1h-9zm-11 0-7-1zm-22-2h-6zm15 1h-6zm55 2h-6zm-63-2-5-1zm-18-2h-4zm-5 0h-4zm-27-3-4-1zm7 1-4-1zm29 3-3-1zm-18-2h-3zm-4 0-3-1zm7 1-2-1zm-11-2h-2zm-18-3-3-1z" class="st645"/><path d="m446 438-25 2q-24 3-50 3l-13 1-19 1h-64l10-1q65 0 128-4h8l5-1h8z" class="st562"/><path d="M454 435h9l2 1-18 2h-1l-12 1v-1h2z" class="st550"/><path d="m358 444-12 1h-7l9-1zm13-1-2 1h-11l3-1z" class="st424"/><path d="m454 435 4 1-4 1-1-1z" class="st564"/><path d="M336 445h-8z" class="st424"/><path d="M454 438h-7z" class="st562"/><path d="M312 445h-4z" class="st424"/><path d="M452 422v3h-2l-7 1q-3 0-1-3h-4l-1 1-2-2H276h2c58-1 117 2 174 0" style="fill:#363330"/><path d="M452 425v10l-2-2q-4-2-7-6v-1l5-2z" style="fill:#3e3b39"/><path d="M452 435h1v1l-2-1q-2 0-1-1-2 0 0 0v-1z" style="fill:#22201e"/><path d="M383 322a206 206 0 0 0 42 0h1l5 1-5 1q-25 1-49-1l1-1z" style="fill:#afa7a1"/><path d="M360 322q3 1-1 1h-1l-3 1h-36l-2-1h39-2l1-1z" style="fill:#9d948d"/><path d="M361 322h5l3 1h-9zm-1 0h-4l1-1zm-1 1-3 1z" style="fill:#c0b9b4"/><path d="M318 323q2 0 0 0h-5z" class="st79"/><path d="M101 395q3 3 2 8 2-1 2 1v2l-5 17-1 1-1 3q1 3-1 4h-1l-1 5-1-1 2-6c2-7 6-23 5-30l-1-4z" class="st496"/><path d="m104 394 3 1h-1l1 2v2l-1 5h-1l-1-1-1 4q-2 0-1-2v-7l-1-3h1z" style="fill:#312d28"/><path d="M96 431v4h-1v1h-3l1-1h2q-1-3 1-4 1-1 0 0" class="st553"/><path d="m104 394-2 1v-1z" class="st496"/><path d="m287 176-1 3h-3l-3-3 5 2z" class="st277"/><path d="M120 253h15l3 1h1l8 2h-2l-3-1q0 2 0 0l-35-1-15 3-1-1q-4 3-8 2l-4 4 3 4q-3 17 7 29h1l4 4c2-1 8 2 4 2l-4-1q-5 0-7-3v-2l-6-6v-3q-3-3-2-7-2-2-1-5l-1-1c0-1 0-5-1-2l-5 1q0 1 0 0h-1v-2l1-2c5-14 31-15 44-16z" style="fill:#d1c8bf"/><path d="m142 254 3-1 13 3v1z" class="st90"/><path d="M123 253h12zh-3z" class="st341"/><path d="m166 258 5 1h-5z" class="st292"/><path d="M123 253h-3l-5-1zm40 4-2 1-1-1z" class="st90"/><path d="M71 268v3h-1z" class="st312"/><path d="M166 258v1h-1zm-33-5h-3z" class="st90"/><path d="m138 254-3-1z" class="st341"/><path d="m193 274 3 5v-1l-10-9-2-1z" class="st288"/><path d="m147 256 16 3h-4l-2-1h-1l-6-1-4-1z" class="st302"/><path d="m163 259 7 2v1l-4-1-3-1h-1v-1z" class="st593"/><path d="M71 310v8h-1l-2-21 1-1 1-9h1z" class="st407"/><path d="m71 310-1 9h-1l1-3-2-17 2 2-1 1 1 7z" class="st157"/><path d="m71 280-1 15 1 15-1-6v-17q0-3-2-1v4h-1v-9l2-2z" class="st237"/><path d="M70 287v1q-2 3-1 5v3q1 1-1 1l-1-2 1-5v-4q1-2 2 1" class="st157"/><path d="M73 282q0 2-1 1l-1-1v-3l-1-1v-1l-1-2 1-1h1z" style="fill:#292623"/><path d="M70 279v1zl-1 1h-1v-2l1 1zl1-1zm-3 16v-5h1z" class="st407"/><path d="M69 274h1v1l-1 1z" style="fill:#383735"/><path d="M71 272q5 2 3 6 2 3-1 3v1l-3-7v-1z" class="st663"/><path d="m414 317-3 1h-5l4-1z" class="st601"/><path d="m383 322 8-1 26-1 3-1 5 3h-1l1 1h-38z" style="fill:#5f4722"/><path d="M277 422h158l2 2H278q1 2-2 2-2 3-3-1-1-2 2-2l1-1" class="st172"/><path d="m272 422 3 1-2 2q1 0 0 0z" style="fill:#282725"/><path d="m144 386 1 3v2l-1 2h-7 10c2-1 6 0 4 1H99v-1h5q2 0 0 0h-1v-1q-5-2-2-5h8q0 3 4 2 7 2 15 1h10q6 2 5-4z" style="fill:#a5998f"/><path d="m72 284 1 1 1 2-3 1q3 1 0 4l1 3 1 14v2l2 13 1 1-5-34v-8zm15 97 5 7h-1l-2-2-2-1-1-3-5-21h1l1 2z" style="fill:#c1b8af"/><path d="m88 382 4 4 2 3 1-1 8 4v1h-2l-8-3-1-2-5-7z" class="st358"/><path d="m92 388 9 5-9-2c1-3-3-2-3-5z" class="st173"/><path d="M82 361v-4q3 1 1 4" class="st146"/><path d="m87 385-1-3zm17 8h3zm-1 0h-2z" class="st173"/><path d="M123 395h32v1h1v8l1 1v3l-1 4-1-1v-13l-2-1-46 1v-1l1-2z" style="fill:#f1f1f1"/><path d="M131 395h6q0-1 0 0h-24z" class="st323"/><path d="M113 395h10l-13 1-2-1z" class="st743"/><path d="M121 394h-12z" class="st323"/><path d="M137 394h-6v-1z" class="st373"/><path d="m254 313 10 5 2 1 1 1 2 3h-1q-2 0-2-2v5l-3 1q-7 0-9-4-3-1-3-4h-6q-2-4 3-6l-3-1h-2q-4 0-8-3-1 2-2 0 11 1 21 4" class="st270"/><path d="m266 319-2-1z" class="st558"/><path d="m228 306 21 5 3 1 2 1-21-4q-6 0-12-4l-8-5q-2 0-1-2 7 6 16 8" class="st473"/><path d="M249 311h3v1z" class="st104"/><path d="m209 295 3 3 1 2v1q-4-1-5-5l-1 1-5-6 1-1v-1z" class="st419"/><path d="m196 279 7 10v1h-1q-4-2-4-6l-1-3q-2 0-1-2" class="st146"/><path d="m438 423 2 2 2 2 5 4v1l-173-1-1-1v-1l-1-5 2 3v-3l3-1zl-2-1-158-1h159z" class="st743"/><path d="M275 421h-3l-3-8q-3-6-2-11-3-2-1-6-3 0 0-2h1l7-5 1 1z" style="fill:#8c8077"/><path d="M452 420H334q-1 0 0 0v-1h8l1 1q0-1 0 0l1-1h8l1 1q0-3 0 0h9q1-3 1 0h29q0-1 0 0h31q0-1 0 0h10v-1h19" style="fill:#f7f4f2"/><path d="M267 402q0 3-3 3l-1 2q3 3 2 5l1 3v5q-2 0-2-2v-5l-1-1q0 2 0 0-3-2-2-5l1-6 2-2q-1-4 2-3z" style="fill:#3a3531"/><path d="m270 413-2 1-2-3v4l-3-7h-1l2-4h1l2-2z" style="fill:#403c37"/><path d="m266 422 1 2 2 6-2 2q2 2-1 1l-2 2v-14z" class="st665"/><path d="M452 420v-78z" style="fill:#f2ebe3"/><path d="M267 424q4 3 3 8l2 2q-1 3 1 2-1-3 1-6v1q3 1 1 2v2q1 0 0 0 2 2-1 2h-2q-3 0-2-2l-1-1v-4z" style="fill:#3c3834"/><path d="m268 418 3 9s2 5 0 5l-1-5q-3-4-2-9" style="fill:#4c4844"/><path d="M264 413v8l2 1h-2v13l1-1 1-1q1 2-1 2 1 2-2 1v-23z" style="fill:#211f1c"/><path d="M275 421q1-3 4-1l5 1q0-3 1 0v-1h8v1h1q0-1 0 0 2 0 0 0h-23z" style="fill:#cfc4be"/><path d="M305 421h9q0-3 1 0h1-21q1-3 1-1h6q2-1 3 1" style="fill:#e3dad5"/><path d="M324 421q0-1 0 0l1-1h8v1h1-18l6-1q0-2 2 1" style="fill:#f6f2f0"/><path d="M266 420h-2v-4z" style="fill:#aea59d"/><path d="M452 334h-8l-1 5v1l-1 18h-1v-24h1v1h-9v-1h1v86h-1l-1-86h-9v-1z" class="st123"/><path d="M452 333q-2 0 0 0v-5z" style="fill:#eae4df"/><path d="M452 342v-5z" style="fill:#d2b891"/><path d="M452 337v-3z" style="fill:#f2ede4"/><path d="M213 301q1-1 1 1v6l5 2 2 2h2l2 1 1 3 5 3 1 3 5 1 6 6h1q0 2 3 3l2-1 1 1 4 2 3 3c3 1 4-1 6 2v1q-5 0-9-3-6 0-13-3 1-2-2-5l-4-2q-4-1-4-3l-7-4q-2-5-8-7-6 1-7-4h-2q-3-6 1-13z" class="st18"/><path d="M233 309h2q3 1 3 4 3-1 2 2 2-1 2 1 0 5 6 6l1 2q3 0 5 3 6 1 7 6l1-1q3 2 4-3l-1-1v-7h1l2 2q-2-1-1 1l1 12q-1 3-3 2l-4-3h-3l-1-3-3-1 1-1h-3l-5-2v-2l-5-2-3-5-2-1-1-1h-2l-4-3 1-2q-3 2-5 0v-5z" class="st419"/><path d="M233 309h-3l-4-2h-1q-2 1-4-1l-7-4-1-1v-1q9 7 20 9" class="st265"/><path d="m254 337 9 3h3l1 1 2 1v1h-2l-1-1h-2l-11-3v-1z" style="fill:#292422"/><path d="m225 307-1 2h-1q-3-1-2-3z" class="st419"/><path d="M437 328q1 1-1 2h-9l1 2h-57v-1q1-1-2-2v-1z" class="st722"/><path d="M452 328v5h-94v-1h69l-1-3h10l1-1z" class="st216"/><path d="m308 328 2 1q3 2 6 0l4-1h26q2 3-3 4h-36c-6 1-6-3-1-4z" style="fill:#beb5ac"/><path d="m282 328 10 1q2 5 6 0l5-1h3q0 2-2 2v2h39l1-1c1-1 17-1 18 1h-9l-55 1h-5l-8-1q-6 1-5-4z" class="st403"/><path d="m357 328 3 2q3-1 3 2h-20l3-4z" style="fill:#bcb2aa"/><path d="M369 328q4 1 4 4h-4q-2-2-5 0h-1q-1-2-4-2c-3 0-1-1-2-2z" class="st403"/><path d="m303 328-4 2-3 2h-4q1-2-2-3-3-2-5 1-1-2-3-2z" style="fill:#bfb5ad"/><path d="m320 328-3 1-1 1c-3 1-6 3-8-2z" style="fill:#c4bbb4"/><path d="m280 328 1 4h4-6v-3h-4c-1-1 5-1 5-1" style="fill:#a99e95"/><path d="m278 351 1-3 2 6 2 3c1 1-1 4 2 3v12q-4 0-2-5l-2-5-1 6-1 1v-11l-1-3z" class="st305"/><path d="M286 354v15l-1-2v-13z" style="fill:#857970"/><path d="M278 351v4l1 3h-1q0 1 0 0l-1-2zv-4l-1-1v-1l1-1 1 2z" style="fill:#2a2825"/><path d="M279 334q4 0 4 6l2 5v6l-1-1-4-13-3-3z" class="st563"/><path d="M286 348v6h-1v-11h1z" style="fill:#8e8279"/><path d="m273 330-1 10 1 1v2l-4-1-2-1 3-1q0-6 3-10" style="fill:#aaa096"/><path d="M353 332h5v1h-33l-1 1h-10q-2 2-4 0h-24l8-1h-8 7z" style="fill:#9b8f84"/><path d="M285 334v11q-3-4-3-9l-3-2z" style="fill:#b3a89e"/><path d="M286 334v9h-1v3-12z" class="st677"/><path d="m269 343 4 2-4 1q-2-1-2-3z" class="st136"/><path d="M276 346v2l-4-1h-33 32l3-2z" style="fill:#aea49b"/><path d="M273 345h1l-3 2h-4v-1h2z" class="st438"/><path d="m92 435-2 1 10 1 36 3 70 3 46-1 4 1 72-1 59-2h16q-29 3-59 3a2025 2025 0 0 1-250-5l-8-2 1-1z" style="fill:#c5c0bc"/><path d="M434 438h-8l-5 1h-7l-34 2a2591 2591 0 0 1-174 3l-15-1h-5l-38-2h-15l-6-1-10-1h-1l-7-1h-1q82 6 163 5l84-2 48-2z" style="fill:#d1ccc8"/><path d="m186 444-28-1-10-1zm-78-5-14-1zm98 6-15-1zm-59-3h-14zm-14 0-6-1zm-6-1h-4l-6-1zm-11-1-7-1z" style="fill:#d4d0cd"/><path d="M95 436q9-1 3 1z" style="fill:#786f69"/><path d="M95 436h-2z" class="st496"/><path d="M313 268v-1l2-3 1-1h2l1-1 1 1 3-2 2 1q2 2 1 3h1c-3 1 0 1-1 3-2 1-2 5-4 4l-1 2q-4-1-2 1-2 2-2-1h1-3l1-2q1-2 3 0l3-3q4-2 0-4h-1q-5-2-5 3l-1 1q3 2 1 3z" style="fill:#c8a86f"/><path d="M352 323h-34z" style="fill:#5b4e3e"/><path d="M260 138q4-3 10-2l6 3q1 3-1 4l1 2-2 1 1 2-2 1-4 3v-1q-3 2-7-1l-2 1 1-1-2-1-1-3q-1-3 2-8" style="fill:#c7a66a"/><path d="m426 439-5 1zm-7 1h-5zm12-1h-4z" class="st550"/><path d="M445 435h8v1h-15l-27-1z" class="st564"/><path d="M453 436h-12l4-1h6z" style="fill:#746b65"/><path d="m446 437-6 1h-3v-1z" class="st430"/><path d="M434 438h2zl-31 2h-4v-1h1l27-1z" class="st619"/><path d="M453 437h-6z" class="st245"/><path d="M438 438h3-7z" class="st507"/><path d="M443 426v2l-2-2-2-2-1-1c1 0 6-2 5 1l-1 1z" style="fill:#2d2a29"/><path d="M450 433q-3 0-2-2l-5-4v-1z" style="fill:#242221"/><path d="M451 435h-26l-2 1h-51l20 1h1l10 1h1-3l-67 1-4 1h-1l-25 1-49 1h-2v-1h5l14-1 38-4h-2l-31-2z" style="fill:#b7b0aa"/><path d="m448 432 2 2-1 1-174-2-1-2z" style="fill:#eceae8"/><path d="m449 435 1 1H275v-2l174 2" style="fill:#c5bfba"/><path d="m107 398 2-2h44q1 2 2 0l1 16v20l-4 1-53 1q-3 0-2-3l1-4 1-3 6-20z" class="st743"/><path d="M156 432v3H96v-4h1v2h7l14-1h35l3-1z" style="fill:#eeedeb"/><path d="m98 427 1-3v4z" style="fill:#f3f2f2"/><path d="m157 434-2 1-16 1 18 3-48-3v-1l-14-1h61v-12h1z" class="st215"/><path d="m95 435 28 1-2 1H99l1-1z" style="fill:#948c84"/><path d="M108 254q17-1 34 1l3 1h1l10 2-6 1q-2 1-5-2l-6 1q-6 2-13 2h-15q-6 0-10 2-4 0-7 3-3 1-3 4l-3 9v7l2 7 4 5h1l6 3 1 1h3l-1 1h-3l-3-1 1-1-5-1-4-4-2-4q-5-8-3-17-1-5 3-7 1-5 5-6 0-5 3-3 2-2 5-2l1-1z" class="st593"/><path d="M71 272q0-2 1-1l3-1v-2l3 2 1 2-1 1v3l1 1-1 1h2v5q2 2 2 5l6 7-1 1v1l-3-2-3-2-8-10v-1l1-2v-4l-1-2q-3 1-2-2" class="st312"/><path d="m107 254-4 1-2 3q-4-2-4 2h-1l-1-2-1 4h-3l-2 3v2l-1 1q-3 3-2 4l-1 1 1 1v1l-1 9 3 5v2h-1c-4-4-6-20-1-25q-1-4 3-7-1-2 2-3z" class="st302"/><path d="M91 256q-2 2-1 3l-4 5 1 2-1 1q-5 12 2 24l2 4q3 1 4 4c-3-1-1-1-2-2l-3-2q-8-8-8-20v-7q4-3 1-8l1-2z" style="fill:#c8beb5"/><path d="M83 258v2h1l-1 2 2 2-3 4c2 4-1 7 0 11l2 8 5 8-6-8-3-10v-9l1-2-3-4z" class="st663"/><path d="m142 255-34-1 10-1 16 1z" class="st302"/><path d="m87 297 7 3h-1l-6-2q-3 1-3-2v-1z" style="fill:#262221"/><path d="m98 301 3 1h-2q-3 1-6-1v-1h1z" style="fill:#2f2b29"/><path d="m145 256-3-1z" class="st302"/><path d="M196 278v1h-2l-7-8-1-1v-1c3 2 9 6 10 9" class="st27"/><path d="m184 268-5-2-5-1v-1l-4-2z" class="st628"/><path d="M159 266q0-3 3-1c1-2 6-2 7 0h3q3-1 5 1h2l5 2 2 1v1q-1 1-1-1l-5-1q0 4-4 3-5-5-11 0-1 3-3 0 0-3-5 0h-6v2q-2 2-5 1-4 1-1-3l3-1c-1-3 4-4 3-1q1 0 0 0 0-3 4-1z" class="st5"/><path d="m156 258 2 1h1-2q-4 4-9 2l-1 1-6-1-4-1-11 3-1-1h-10l-17 1q-3 4-6 5l-1 4-2 1-1 4 1 15q-3-3-2-7l-2-2v-4l1-1q0-6 3-10l1-2 2-1 4-4 6-1 7-1 4-1 6 1 4-1 2 1q8 0 14-2h2l3-1 4 3 1-1z" class="st390"/><path d="M162 259h-1q-3 0-1-1z" class="st628"/><path d="m159 259-2-1z" class="st593"/><path d="M162 260h1l3 1 4 1 4 2v1l-9-2q-2 3-6 0l-2 2q-2 2-4 0l-1 1q-6 0-11 2l-3-2q-5 3-11 1-3 0-4 2h-7l-4 1q-6 4-11 2-4 0-5 5-4 2-3 7-3 7 2 12 2-1 2 1 2-1 2 2h1l1 1-7-3-3-4h1l-2-4 1-7q-2-5 1-8l3-5h3q2-4 5-3 2-2 3 1l1-1q5 1 9-2h10l9-1 3 1 3-2q8 3 16-1 2-2 4-1z" class="st537"/><path d="m166 261-3-1z" class="st628"/><path d="M70 287q0-2-2-1v-1l2-1z" class="st407"/><path d="m73 283 1 1-1 1-1-1z" style="fill:#3e3937"/><path d="m142 377 2 9h-1q1 3-2 5l-8 1-7-1-10-1h-3q-2 1-5-2h-6l-2 1 3 3-9-3c-3-2 1-6 3-7q2-2 5 0 2-1 3 2 2-4 4-1 2 0 3 2 5 3 9 2h1l5 1 5 1h8q2 0 2-3l-1-5z" class="st745"/><path d="m148 376 1 7 1 2q2 2 1 4 2 0 1 2l1 1 1 1 5 1h2l4 1v1c1 5-3 2 0-1l-1 1h-7l-1-1v9l-1-8v-1l1-1-4 1h-15v-1h14l1-1q-4-3-4-7v-3q-2-3-1-7l1-3z" style="fill:#23201e"/><path d="M147 390c-1-1 0-6 1-4q2 5 6 8h-3v-1h-4z" class="st580"/><path d="M145 389q3 1 2 4h-10 7v-4q1-1 1 1z" style="fill:#95887e"/><path d="m145 385-1 1-2-9h2z" class="st176"/><path d="m146 387 1 3 2 3h-2l-2-4-1-3 1-1z" style="fill:#231f1d"/><path d="m89 302 8 2q12 2 22 6 5 2 9 6l3 4 4 5-1-8 1-1q2 1 2 3l1 7 1 19v22q-3 4-4 0l-2-2q-1-5-5-6l-4-8q-3-1-1-3c-3-4-7-9-12-6l-2-2-3-3c-1 3-6 2-5-1h-2l-4-3h-3c-3 3-8 2-3-1 0-1 2-9 1-10q-3 0-5-3 0-3-3-2l-1-1v-3l2-5v-5l-2-2q-5 0-4-6l-1 1c-5-5-2 5-1 7l-1 1q2 5-1 5l-2-18 4-1h1q5 7 13 11z" class="st390"/><path d="m73 309 1-2v-4q-2-1-1-4-2-2 0-6l3 2 2-1 1 6h2l2 3v4h1l-3 7 2-1q0 2-2 2l3 1 2 1v2l3 2q2 1 2-1h1l1-3 2 1c1 1-2 1-1 2h2q1 2-2 1l-1 1-2-1v7l-1 4q-2 1-2 3l5-4v2l2-1 2 1h2v2h3v2l3 1c2-4 1-1 3 0q2 0 2 2l1 1 4-1 5 3 2 2q1 2 3 2v1l-2 1v1l3 1-1 1q2 1 2 4l1 2 2 1 3 2 1 4q2 1 2 3l2-1 1-7v-9q0-1 0 0l1 3q0-2 0 0l1 3v6l-1 4 1 7h-1q-1 4-3 1-5 0-5-4h-1q-2 2-2-1-3-1-3-3l-1-1-2-4-2-5q-5-2-6-6h-7l-4-2q-1-3-3-3-2 4-4 0h-5q-2-3-3 0c-4 3-3-3 0-5q-2-3-5-3l-2-4c-1-3-4 3-3 4q4 2 0 3v4q2 3 1 6l1 3v3l-1-3-7-43z" class="st164"/><path d="m81 293 3 2v1h-1l-7-6v-1q-2 1-2-1v-1l-1-2h1l3 3z" style="fill:#26211f"/><path d="m74 288 2 1-1 1-2 2-2-1v-3z" class="st164"/><path d="m75 324-2-13q2 2 1 5zm-1-37v1h-3v-1z" class="st390"/><path d="M81 351h1q2-2 3 1l5 1q-1 4 3 5l1 2q4-1 4 2 4 2 1 4v2q2-2 3 1-1 2 3 2l1 1 2-1q4 5 9 1 4 0 5 4l4 1 3 3 8 4q3 4 2-3l1-6v-11 3-4c1-1 2 3 1 3v5l1 2v5l-1-1v4l1 6q-1 3-5 1h-6q-3 2-3-1-4 1-5-2-4 1-7-1-2-2-5-2h-4q-2-4-6-4c-2 4-5-1-6-3q-3 2-4-1l-1 1q1 3-2 3v4l-1-1-5-20-1-4z" class="st569"/><path d="m88 382-1-5h2l-1-2 2-2h-2l1-2 3 2c-2 4 3 0 4 1l3 5h1c1-4 4 0 7 0v2c3-2 4 2 6-1l2 2 1-1v2q3 3 7 1l1 1 4 2 1 1 2-1 1 1q1-2 3 0h5c3-2 0-5 1-7l1 1q-1 3 1 6-4 3-9 1l-2 1-3-1-2-1v1h-2l-3-1v1l-1-1h-6l-3-2-2-2q-2 1-3-1-1 2-3 1c-1-3-3 0-3-2l-4 1-3 4v2z" class="st263"/><path d="M156 399c3-5 6-1 7 2l1 1q1 3-1 4 1 5-1 11 1 8-2 15v4q1 3-2 2h-1 1v-9l1-21q-2 2-1 5l-1 1-1 3z" class="st738"/><path d="m143 395 13-1-1 1z" style="fill:#111112"/><path d="M143 395h-6z" class="st373"/><path d="M245 312q2 1-1 4 2 4 8 6l2 2q2 3 7 3 2 4 4 1l1 1 1 2-3 3-2-1-2 1-1-3q-3-3-7-4v-2q-2 1-5-2-2 1-4-3l-2-1v-3l-3-1 1-1h-2l1-2-2 1 1-2-2-2z" class="st265"/><path d="m245 312 4 2q1 1-2 1l-2 1 1 2h6v2l3 2 1 3 7 1-1-1 3 1v-5h1v8l-3 2-2-4c-2 1-8 0-7-3q-2 1-2-1l-7-3-3-4z" class="st612"/><path d="m185 269 1 1q7 4 10 9l1 2 1 3 5 6q2 4 5 6l-1 4v6l1 3q2-1 2 1l2 2h4l4 2 5 5 6 5 1 1 4 1q0 3 4 3l1 1h1l1 3-2 1q-2 1-4-1h1c2-3-3-4-5-4l-9-6q-1-5-6-5l-3-2q-7-2-11-8l-4-5q-2-3 0-5l-1-3q-4 0-2-4-3-1 0-4-1-4 0 0c0 2-5 1-6 0l-1-2q-3 0-3-3-3 2-4-1h-5l-3-3q-4 0-7 3h-2c0 4-5 5-4 1l-2-3q0 2-2 2h-3l-4-2q-4 4-9 2 1 3-1 1l-7-1-6 3q-1 3-3 0l-4-2q1-5 5-3 3-3 6-1l3-1q5-3 7 1l5-2 2-1h3q5-5 11-2 4-3 7 0l2 1q3-3 7-2h2q1-4 4-3" class="st216"/><path d="m198 284-1-3z" class="st27"/><path d="m441 426-2-2q2 0 2 2" style="fill:#1a1918"/><path d="m266 393 1 1h-1l-4 6q0 2-3 2-3-3-2-7-1 0 0 0l-5-1v-1z" style="fill:#2d2925"/><path d="M279 361v10q2 4-1 8 1 4-1 8l-1 1q-1 2-2 1-3 4-7 5l-1-1 5-2q0-3 2-2l2-3q-1-1 0 0l1-2v-5l2-7v-14h1z" style="fill:#26231f"/><path d="M276 417v4h-1l-1-32 2-1v1l1 26z" style="fill:#776e63"/><path d="M266 394v2l-2 1-1 4-1 5-1-1v2q-3-2-2-5 0-2 2-1l3-6z" style="fill:#34302b"/><path d="M433 420v-86h9v24l1 59 2-17v11l-1 1 2-1h5v-70l1-1v80h-1q-1-1 0 0z" style="fill:#ada198"/><path d="M423 334h9v87h-9z" class="st634"/><path d="M412 334q2 2 0 5v12h-1l1 3v47h-2v-24l1-2v2q-4 0-3 8c1 3-3 3-4 1h1v9l-1 1q1-3 4 0c1 3-1 10-3 7l-1-2 1 1v16l-1 1h7l1 1v1h-9v-77l-1-3-1-6 1-1z" class="st603"/><path d="M413 367v3l1 17v7l1 14h-1v11-11l1-1 3-4c0-2 1-6 3-3v13h1l-1-13v-3l1-2c0 3-3 7-4 2l-4-2v-8l1-1 3-4q-1-2-4 0v-13l3-1q-1-3 1-5 4-3 4 1v4l1 2v50l-10 1z" class="st359"/><path d="M381 374q1 4-2 4v5c-1 0-4 3-1 3q1-2 3-2c1 1 1 14-2 15q0 5-5 5v-1 17l3-1h5v2h-9v-19l1-46 1-2q0-5 4-6c-1-2 3-7 3-5z" class="st70"/><path d="M392 419v2h-9v-40q1-3 4-1l4-10h1z" class="st655"/><path d="M393 368v14h-1v20l1 1v-21l1-1q0-3 4-3 0-3 2-2l1 4v41h-10z" class="st376"/><path d="M353 397q2-3 6-1l3 2h1v22l-1 1h-9z" class="st293"/><path d="M343 409v12h-9v-5l1-12q3-3 5 1h2v10-23l1-1zm10-6v18h-10l1-1v-11q-1-7 5-3l2 3 1-4 1-13z" class="st531"/><path d="m423 421-1-3v-50l1-34z" class="st61"/><path d="m363 370 1 3v20l-1 3v8h1v16h-1v1h-1v-28h-1l2-43z" class="st314"/><path d="M413 360v61h-1v-8z" class="st61"/><path d="M403 420v-68h1z" style="fill:#958a81"/><path d="M433 420v-77l1 3z" style="fill:#8f857c"/><path d="M373 362v59h-1v-4l-1-2z" style="fill:#958b81"/><path d="M393 368v50l-1 3v-56h1z" class="st557"/><path d="M353 403v18zq0-1 0 0" style="fill:#93887f"/><path d="M383 420v-20h1z" class="st692"/><path d="M372 417v4h-9v-1l3-1h4q0-5 2-2" class="st460"/><path d="M344 420v-12z" class="st703"/><path d="M233 395h24l2 7 2 5 2 5v20h-85l-1-5v-2l1-3v-6l1-3v-10q-2-2 1-6v-1z" class="st743"/><path d="M263 413v21h-86v-3c-2 0-2-4 0-4v3l1-1v2h85z" class="st246"/><path d="M264 415v-1h1zm0-2h-1v-2z" class="st665"/><path d="m269 431 1 4c1 1-5 2-5 0l1-2 1-1z" class="st645"/><path d="M269 430q1 0 0 0l-2 1z" class="st323"/><path d="m449 435-174-1v-1h3l55-1 112 2q2-1 4 1" style="fill:#dddad6"/><path d="m285 435 14 1q2 0-1 2l-30 1h-3q-14 2-30 2h-64v-1l103-2 1-1h11l-10-2h-1z" style="fill:#a8a099"/><path d="M263 435v1l-5 1h6c1-2 6-1 7 0h3v1h-22c-1 1-6 0-5-2z" class="st378"/><path d="m276 435 13 1 2 1-17 1v-1h4v-1q-2 2-2-1" class="st682"/><path d="m270 435 2 2h-14q1-2 4-2h1v1l2-1z" style="fill:#776f68"/><path d="M278 436q3 1 0 1h-4l1-2h1z" style="fill:#8c837a"/><path d="M263 436v-13 14m0-19v-3zm0 3v-2z" class="st665"/><path d="M286 383c3-1 3 5 2 7q4 2 4 5 1 4 2 1v-5q0-1 0 0v30h-8l-1-1z" style="fill:#91847b"/><path d="M295 397h1q6 8 7 17h1v6h1v1h-10v-5h3q3 4-2 4h6-1q0-3-3-4l-1-7-2-1z" style="fill:#978c83"/><path d="M286 369v52h-1v-1h-1l1-48v-5z" style="fill:#7c7168"/><path d="M276 417q3 0 5 2l4 1v1h-9z" style="fill:#94877d"/><path d="M295 420v-28h1z" style="fill:#786e64"/><path d="m315 395 1 1-1 1q2-1 2 1-1 6 6 8v3l1 12h-9v-1h5q2-2 1-5-3 0-4-3l-1 4-1 1v-15zq0-1 0 0" class="st120"/><path d="m305 405 1 3q5 4 5 9l2 1v-1h1v4h-1l-8-1z" style="fill:#a1958c"/><path d="M315 402v19h-1v-24z" style="fill:#8c8178"/><path d="M313 421h-8v-1z" class="st551"/><path d="M333 368v53h-9v-1l3-21q6-3 5 5h1v10z" class="st27"/><path d="M334 415v5h-1v-53h1z" style="fill:#958a80"/><path d="M324 420v-18z" style="fill:#8d8279"/><path d="m447 334 1 1 4-1v6l-1 73-2-2q-2 2-5 1v-12l-1 17v-83z" class="st520"/><path d="M451 333c-9 2-19-1-28 0l-1 1-9-1z" style="fill:#887c72"/><path d="M452 334v3zq-3 3-4-1z" style="fill:#b2a89f"/><path d="M234 333h2l4 1 13 3-1 1q-5 1-9-2l-4-1-8-2z" style="fill:#2a2523"/><path d="M253 338q7 1 13 4l1 1-5 3-21 1-53-2 5-1h7q1-2 4-1l1-1h4q6 3 11-1 5 2 6-2 3-3 6 0 5-4 12-3z" class="st136"/><path d="m267 343 2 3h-7l1 1h-22l8-1q7 1 13-1l1-1z" class="st531"/><path d="M451 333h-37l-31 2v-1h-30q0 1 0 0l-28-1h33l91-1z" style="fill:#91857a"/><path d="M369 332h-5c0-3 5-2 5 0" class="st722"/><path d="M356 332h-3z" class="st216"/><path d="M285 372v13q-1 4-3 0l-2-5q-2 1-2-1l1-8v-2l1-11 2 6 1 3v3z" style="fill:#92857c"/><path d="M279 369v2-10zm0-11-1-3z" class="st521"/><path d="M286 366q2 0 2 3l6 15v12q-3 0-2-4l-1-3-1-6-3-5-1-5z" class="st305"/><path d="m286 357 1 7q5 6 6 15h1v13-8l-2-1-3-10-2-4-1-3z" class="st451"/><path d="m286 355 7 18 1-1v11-3l-2-1c-1-7-1-8-5-14l-1-8zv-1q2 0 0 2" style="fill:#a1968c"/><path d="M276 348v6c-1 0-5-2-4-3q0-2-4-1c1 4-5 3-6 0h-6q0 3 2 5 0 4-4 4 3 2-1 3-1 2-3 1 2 2-1 4-1 3-4 2-2 5-5 1-2 2-4-1l-1 1 3 3-3 5c-1 0-8 0-8-2l-2-1h-1q-2-3-2 0l-7 1-1 1-5 1q1 2-2 2-4 2-8-1h-5q0 2-3 1l-11-1q-2 2-5-1l-4-1q-3 3-3-2-2-2-4-1h-4q-3-3-3 2l-3 8 1 2v2q-3 3-4 1l1-2v-13q-1-4 2-7-2 0-2-4-2-8 4-8l1-3 14-1v-1l46-1v-1h58" class="st226"/><path d="M216 376s5-2 6-1l-1-2 3-1v2h2q1 2 3 1v2h6l2-2q2-3-1-2l1-1q-3-3-5-2v-2l3 1h2l2 1 3-1 1 2 3-2 3-1v-1l3-2-2-1c-1-3 3-1 3-1v-2h2l-1-2 3-1c3-3 0-2 0-4l-1-3-2-2h10v2l1 1 4-1-1-2 5 1c0 3 3 1 4 3v-1q0-1 0 0v4l1 9v3h-1q-2-5-2-1 2 3 0 5l-2 4-3 3q-3 1-5-1-3 2-5 1l-3-1-6 1q-3 3-6 2-1 3-4 2-6 2-11-1h-11l-6 2h-4q-6-1-14 1l-1-1h-7q-4 3-9-1-5 3-8 0-3 2-6 0c1 3-4 2-6 2l-1 2q0 4-4 3l-1 1-1-2c-1-2 2-2 1 0l1 1q3-2 2-4v-2l1-2c0-2 1-10 3-10l4 2 1-1 1 1 2-1 3 2q-1 2 1 3-1-1 2-2l3 2 1 1 4-1h5l5 1q2-1 3 1 1-2 3-2v1c2-4 5 1 8 1l4-1c0-4 5-3 7-3v1l2 1v-2z" class="st188"/><path d="M277 347v1zl-4-1z" class="st318"/><path d="M278 365v-7z" class="st521"/><path d="M278 358v3l-1-5z" class="st730"/><path d="M277 352v-2z" class="st318"/><path d="m286 343 1 4 3 4q1 5 4 6v10h-1q-5-7-6-14l-1-5z" class="st634"/><path d="M286 348v3l2 2 1 5 5 9v3q0 5-1 0l-7-15z" class="st250"/><path d="M304 334v9l-1 1v14h-1l-1-7c-2 2-6-2-6-4v-13z" class="st154"/><path d="M314 334v9l-1 16-1-1v-9q-3 1-5-1l-1-5 1 11h-2v-9h-1l1-9 1-2 4-1z" style="fill:#c8bfb6"/><path d="M317 334h3q5-1 3 4 1 3-2 2c1 3-3 9-6 4l1 1v10l-1 1v-14h-1l1-8z" style="fill:#c9bfb6"/><path d="M296 334v13q2 3 5 4h2l1 7v8h-1l-1-6h-1l-3-6h-2l-1-6z" style="fill:#c0b7ae"/><path d="M294 334v13l-1-1v-3l-4-4-3-4v-1z" class="st154"/><path d="M325 333h2v1l-3 2v10l-2 36h1v-48h-6z" class="st745"/><path d="M305 334v30h-1v-30z" class="st206"/><path d="M295 334v14l1 5v1q1 3-1 6 3 2 0 3l-1-11v-18z" class="st119"/><path d="M315 342v15h-1v-23h1z" style="fill:#a59a8f"/><path d="m310 334-2 2h-2v3l-1-2v-3z" style="fill:#cdc5bd"/><path d="M296 333h7z" style="fill:#8c7f73"/><path d="m286 335 1 1v6l1 1 5 7 1-3v-12 27l-1-4-1-1-3-6-3-4v-13z" class="st655"/><path d="M399 439h-14l-58 2-71 1q-48 1-96-2l-24-1 1-1 19 1h4l36 2h57l32-2 18 1 1-1h26l7-1 20-1z" class="st507"/><path d="m385 440-55 2h-31l-43 1 11-1 73-1 43-1z" class="st619"/><path d="M106 437h3l48 3h-21l-36-3z" class="st25"/><path d="M396 440h-9z" class="st619"/><path d="M315 269q1-6 6-5h1v1q2 1 1 4-3 4-6 1-1 1-2-1" style="fill:#d0b27b"/><path d="m322 265 2-1 1 5c-3-1-5 6-8 2l-1 1-1-3 1 1 1-1 3 2q3-3 2-6" style="fill:#ccad74"/><path d="M269 138q3 0 5 2l-1 1 2 2-2 4h-2q-2 3-5 4c-1-2-6-2-6-4l-1-3q1-6 6-7zc-2 0-7 3-7 5q2 7 8 4 4-3 1-7z" style="fill:#cdac71"/><path d="m425 435-1 1h-12q-2 0-1 1h27v1h-13l-33-2 9-1z" class="st245"/><path d="M434 438h-9q-1 0 0 0z" class="st430"/><path d="M425 438h2-7z" class="st507"/><path d="m285 435 47 1 1 2-12 1q-5-2-11 0h-11l-27 1 3-1h6l18-2q4 0 0-1l-11-1z" class="st290"/><path d="m401 438-1 1h-43l-9 1h-18l3-1 1-1 2 1 15-1z" class="st430"/><path d="M392 436q0 2 3 1l30 1h-21l-37-1v-1l6-1z" class="st290"/><path d="M299 436h10v1h-6l-1 1-21 1h-6l-3 1h-3v-1l28-2z" class="st219"/><path d="M248 441h5v1h-57 39l8-1z" class="st290"/><path d="M401 438h18l-12 1h-7z" class="st507"/><path d="M420 438h-18z" class="st430"/><path d="M264 440h6l-8 1h-4v-1z" class="st290"/><path d="M253 441q2 0 0 0h-5zm5-1h-3z" class="st275"/><path d="M254 441h3z" class="st290"/><path d="M158 438v-15l-1-4v-2l1-3h1z" style="fill:#3d3a38"/><path d="M157 423v-4z" style="fill:#43413f"/><path d="m263 435-15 1 1 1 3 1h21-10l-25 2h-65l-2 1-2-1h-9v-1h2l54-2-39-3z" class="st682"/><path d="M157 436c-2-1-9 0-3 1l1 1h7-16l-11-2 23-2z" style="fill:#948b83"/><path d="M169 440h-9q-2 0 0 0z" class="st25"/><path d="M157 438v-4z" class="st211"/><path d="M160 440h-3z" class="st275"/><path d="m92 293 2 4-1-1-1-1q-2-1-2-3v-1z" class="st426"/><path d="M73 283v-2l4 4q-1 2 2 4l1 1 1 3-7-8z" style="fill:#cdc5bc"/><path d="m84 296 3 2h-1l5 3v1h-2l-8-6-1-2-5-4 1-1z" style="fill:#c7beb5"/><path d="m87 298 6 2 6 2h1l-2 1-7-2zq-2-1 0-1" style="fill:#d3cbc3"/><path d="M101 302h3q4-1 9 1l2 1-1 1q-3 1-5-2h-7l-2-1h-1z" class="st176"/><path d="m101 299-1-4q3-3 6-2l3-2q3-2 6-1 4-3 9 0 2-2 4 0 2-3 4 2l4-1 5-2q2 1 3-1h6q3 3 5-1l4 1h3l2 1q2-3 7 1 3-4 7 1 4-2 5 2 4 3 9 2l2 3 3 6q2-1 2 1 5 1 5 4l9 6 3 3q4 0 6 5l7 2q0 3 5 4t4 4h-3l2-1q-7 0-11-5l-7-3q0-3-4-2v-1q-4 0-4-4l-6-4-7-5q-4-1-6-5-3-2-2-4-5 1-9-3l-3-1q-4-3-9-2v-1c0 3-4 2-3-1q-3 2-7 1h-1q-2 2-4 1-2 2-5-1h-4q-4 3-8 2l-2 1-7-1h-6q-3-5-7-1-1 5-4 1l-5 2q-2 0 1 4l-1 1h-1q1 1 0 0h-2q3 0-1-1z" class="st261"/><path d="m106 301 9 1q1 1-2 1l-9-1 1-1m-3-1 2 2h-2z" class="st188"/><path d="m101 299 1 1v1l-1-1z" class="st201"/><path d="M95 296q-3-4-2-8l1-5-1-2q0-4 3-5c-1-2 6-6 6-5h1l5 1 4-2v-2l1 2 4-2 3 1 3-1 1-2h4l2 1h7l2-2 3 2 4-2h6l3-1 1 1 1-1 3-2 2-1v2l-1-1c-2 2 5 2 4 0l10 2 5 2c-3 2-2-1-3-1l-3 1-1-1-2 1v-1l-2 1v-2h-4l-1 2-3-1-1 1q-4 4-10 1-1 2-3 2-4 3-8 0-3 3-7 2l-6 3-4-2h-1q-1 1 0 0 0 2-3 1-3 4-4 2h-9q-4 0-6 3-4 2-3 5-3 6-1 11 2 0 1 2" class="st376"/><path d="M185 269q-3 0-3 4l-2-1-1 1h-4l-1 1h-1l-1 1-1-1h-2l-1-2-5 3q-2-2-5-2l-4 1-2 1-2 2-3-1c3 3-1 1-2 1l-3 2-4-2-5 1v1l-5-1q0 2-4 1l-3 3q-3 3-7 0-2 2-5 1l-2 1h-3q-2 4-6 1l-2 5 2 7h-1l-2-1-1-2-1-6 2-8q4 0 7-3l1-1h6q5 3 9-1h1q3 2 5 1h6l4-1q1-3 3-1l8-3v3c2-3 2 0 3 0l3-1-1-2 7-1 4-1c3 0 0 2 2 3q5-5 9-5 1 2 3 1v2h4v-3z" class="st263"/><path d="m160 259 1 1q-8 4-17 3h-4l-2 2-2-1h-5l-8 1q-1 2-3-1l-2 1q-3-1-4 2h-7l-1 1-1-2-2 1-2-1c-1 1-2 5-5 3l-2 5-1-1q0 3-2 3v3q2 2 0 4v1q-2 4 0 9l-1-2v-1l-1-2v-11q0-4 3-5l1-4q5-1 6-5l14 1q4-4 9-2 2-2 2 1h2l16-2h13l3-2z" class="st358"/><path d="m126 262-2 1h-3v-1q-5 0-8 2l-10-1-3 1-2 2-5 3-1 4-1 1-2 3q-1-5 2-5l1-4 2-1 5-5q2 2 3 0l20-1 3-1z" class="st426"/><path d="m158 259-1 1 1 1-3 1h-10l-5-1q-1 2-2 1l-12 2-2-1 2-1h4q4-2 9-2h3l4 1v-1l2 1q2-2 4 0z" class="st628"/><path d="m89 278 1 4v8q-2-3-2-7z" class="st426"/><path d="M143 377v-3l-1-2v-5h1v1l1 9z" style="fill:#1b1b19"/><path d="M142 376v-2z" style="fill:#302d2a"/><path d="M218 348h11-8l-3 2-3-2-6 1h-32l-5 1-1 1h-2l-12 1v3q-3 0-5 3l1 4q-1 3 1 4-2 10-2 21l-1 1-1-1v1l-1-4 1-4v-26q-1-5 3-5z" class="st251"/><path d="m214 388 4 1-1 1h-23l-9 1h-3l-24 2v1l-4-1-1-1 1-1h3q4-3 10-2l1-1z" style="fill:#968a80"/><path d="M205 348h8v1l-46 1h-13c-3 1-3 7-3 10l1 21-2 4-1-2v-5l1-3v-20l1-6z" class="st737"/><path d="m146 357 1 8v11l1 7v3h-1l1 2h-1v2l-1-3v-1l-1-11-1-34 1 1z" class="st206"/><path d="m150 348 33 1h-34l-1 21v9l-1-3v-4l-1-3v-7l-1-9v-8z" class="st288"/><path d="M158 393q2 0 0 0l1 1q-3 1-5-1z" class="st388"/><path d="m147 369 1 3v1l-1 3v-12z" class="st323"/><path d="M149 379v4l-1-7z" class="st52"/><path d="m154 391-1 1-1-1z" class="st614"/><path d="M148 386v-3z" class="st580"/><path d="m141 346 2 4v9q-1 14 3 27l-1 1v1l-1-2-2-8-1-11-1-7v-13" style="fill:#afa59b"/><path d="M121 310q8 4 12 10c-1-2-1-7 2-4v4l1 5v3l-5-6q0-2-2-2v-1l-1-1v-1s-4-5-5-4l-4-3z" class="st612"/><path d="M140 325v9l1 12h-1l-1 5-1-20-1-7v-5q4 2 4 6" class="st537"/><path d="m123 306 5 4 1-1 7 6v2h1l1 1 1 1q4 5 4 11h-1l-2-4-3-6-2-3-6-5-6-3-2-1-1-1-4-1h-2l1-1q4-1 8 2" style="fill:#241f1d"/><path d="m91 302 6 2 12 3 10 3 1 1h-2c-10-4-20-4-30-8z" style="fill:#c4bab2"/><path d="m87 302-1 3q-4-1 1-3" class="st164"/><path d="M79 345q1-3 3 0l1 1q3 5 9 4 0-4 3 0 3-2 5 1c-2 1 2 1 2 1q1-3 3-1c2-1 10 0 8 4q1 2-1 4l1 1q3-1 3 2c4-2 8 3 4 6l3 1q-1 4 3 4l2 1q3-4 4 0l2 5h4l2-4v6c0 1 1 6-1 5l-2-2-4-2-3-1-4-2v-1h-2l-3-1v-2l-3-3q-2 3-5 3l-5-2v-1l-1 1-3-1c-1-1-2 1-4-2l1-2-2 1-1-4q3 0-1-2v-3l-4 1q-1-3-3-3 0-2-2-2l1-2q-5 1-5-3h-1v2l-2-2h-1z" class="st27"/><path d="M79 345v-5l2-1q-4 0-3-3l2-4c2-1 4 4 4 5l3 1 4 4-4 4q3 0 2-2h2q0-2 1-1v2h5q2 5 2 0 4-1 6 2v2h2l4 1q2 2 3 0c1-2 2 3 3 3l4 3 2 4 1 1v2l2 2v2l1-1v2l3 1-1 2 2-1h2v3c2 2 5 0 5 3l2-2v1l-2 5q-2-2-5 0v-3l-1-1q0-3-3-3l-1 2q-2-2-6-2v-4l-2 1-1-2s3-1 1-4l-3-2-1 1-1-3q-2 1-4-1l1-2 1-4-3-1-3-1-2 1-2-1v2q-3-1-6 1v-2h2l-3-2v1q-2 0-3-3l-1 3q-4 1-7-2-2-3-4-3v-2z" class="st146"/><path d="M141 355v4l1 7h-1q0 2 0 0l-1-3v-14h1z" class="st254"/><path d="M140 354v-3l1-5z" class="st390"/><path d="M142 329v3q-2 4 1 7l-1 6-1 1v9-6q-1-2 0 0h-1v5-9c0-4-2-12-1-16l1-4z" style="fill:#aea59c"/><path d="M140 357v-8z" class="st369"/><path d="M103 338h1v1h-1z" class="st390"/><path d="m81 354-1-3h1z" class="st146"/><path d="M141 369v-3z" class="st665"/><path d="m142 373-1-2z" class="st254"/><path d="M157 414v-6l1 1c0-1-2-9 1-10l1 3q1 14-1 29v7h-1z" class="st211"/><path d="M156 399v-4h9v4-4h7v1h-6v1l-1 2v8l-1 4-1 4q1 0 0 0v4l-1-2 1-6c0-2-3-7 1-6v-3c-2 1-3-4-5-5z" style="fill:#322e29"/><path d="M162 417v2h1v-4l1 1-2 15v1q2 0-1 2v4l-1 1h-2v-1h1v-6l2-4 1-10-1-3z" style="fill:#373430"/><path d="M157 438h-4q-4-2 2-2-1 0 0 0l1-1z" style="fill:#797068"/><path d="M172 394h8l-15 1-4-1z" class="st631"/><path d="M160 393h10l2 1h-14v-1z" style="fill:#978d82"/><path d="M172 395h-7z" style="fill:#0b0907"/><path d="m158 281 2-2q0 3 2 3v3q3-1 2-4h2l4-2 4-1 4 3 1-1h3l2 3 3-1q0 5 5 3c-1-1-1-5 1-4l1 4-2 2-2-1v2h5l-1-2 2-1 2 4h-2l-1 2h1q3-3 5 0l-5 3 1 2 1-1h1l1 4-1 2q0 3 2 4l3 5 7 5q3 0 4 2h1q2 2 5 2l2 5h3l5 4h2v1q5 1 6 5h-2q-1-3-3-3l-7-3v-1l-6-3-2-2-5-3-4-4h-2l-1-2-5-3-1-2h-2l-2-1-1-2q-3-3-1-5v-2l-4-3q-5 0-3-3h-4l-4-5-3-2-3 1q-1 3-3 2-2 2-3-1h-3c-1 5-7 1-9-1l-3 1q-2 3-5 1-2 3-4 1-2 0-2-2l-4 2h-2c0 4-5 2-6 0l-4 1q-7 1-12-2-2 3-5 2-2 3-6 2l-3 1q-2 0-1 1 2 4-1 4c-2 0-4-7-2-8q3 0 3-3l2 2 2-2 8-2q1-2 3 0l2 1q3-3 7-1 3 3 6 0h2l6-1q2-2 3-1l1-1 8 2q4-3 8-2" style="fill:#a99f95"/><path d="M141 282q-2 3-5 2v1l-1-1q-3 0-3 2l-2-2-1 2q-2-1-2 1c-1 0-1-3-2 0q-2-5-6-3l-1 1q-3 1-4-1h-1l-9 3-3 1v-1l-2 3h-2l2 7q3 1 0 2l-2-2-1-7 1-3 1-2h4l1-2h2v1q2-2 5-2l1 1 1-2 1 1v-1q4 2 8 1l5 1v2h1v-2q3 1 4-2l3-1h2zm1-1h5l3-2v-1l4 1 2 1 2 1h-3l-5 3-2-1-4-1z" class="st201"/><path d="M155 277q-2 0 0-2z" class="st263"/><path d="m271 391-5 2-14 1-25-1-32 1h-21l-5-1c1-3 15-3 18-2h41l4-1h4l29 1q4-2 6 0" class="st487"/><path d="M232 394h19l6 1h-77l46-1z" style="fill:#171615"/><path d="M257 395h-14z" class="st631"/><path d="M251 394h-12z" class="st487"/><path d="M252 394h-11v-1h9z" class="st703"/><path d="m278 379 1 1v-1c2 0 3 6 5 7l1-1v35h-5l-1-1-3-2v-29z" style="fill:#8f8279"/><path d="m278 372-2 12q-3-2-6 4c-1 1-9 2-10 1l-2-2q-5 2-11 1l-6-1-11 1v-1l-16 1-4-2q-1-1 2-1 3 1 5-1 15 1 29-1l5 1 5-1q5-3 8-1 2 3 6-1h1c3 2 3-5 3-6q1-5 4-6z" class="st458"/><path d="M218 389h1l9-1q12-1 24 1h8c2 1 9 0 10-1 1-2 5-7 5-2q-3 1-1 2l-1 1-2 2-3-1-2 2h-4l-3 1-4-2h-7l-12-1-1 1q-1-2-3 1l-1-2-3 2-4-1h-25l-11 1q-1 1-1-1l7-1h12z" style="fill:#91857b"/><path d="M230 387c5 2 11-3 15 1q4-2 7 0 4-2 6-1l3 1h4l4-1 4-3q2-2 3 0l-1 2q-2-3-3 0t-3 3l-8 2-5-2h-38l-4-1h14z" class="st305"/><path d="m275 386-1 2-1 1q-2-3 1-3z" class="st487"/><path d="M278 372v-6z" class="st521"/><path d="M443 417v3h-1v-62l1-16v-3z" class="st668"/><path d="M451 420h-7 3l-1-3h3l1 1 1-4zm-6-3v-2z" class="st520"/><path d="M420 334v4q3-2 2 1v25l-1-2q-4 2-3 5-1 3-4 2v13l2-2q4-1 3 3h-2q-2 2 0 4l-3 1v6l3 1c1 2 2 0 2 4l2-2 1-2v18h-1v-13q-2 0-2 4c0 4-3 3-3 5l-2-1v11l-1-52v-18l-1-8v2-9z" style="fill:#b1a69d"/><path d="M412 353v67h-7v-1h-1v-18h1l1 2 2-5q-1-3-4-2v-10l3 1c2-4-2-7 1-10l3-1v-1 26zc0-2-3-4-1-5l1 2v-4z" class="st18"/><path d="M402 334v22q-3 3-7 2 0 5-2 3v-27z" class="st737"/><path d="M403 420v-76z" class="st18"/><path d="M403 344v9l-1 8v-20h1z" style="fill:#a39991"/><path d="M414 333h8l1 1h-30v-1z" class="st123"/><path d="M412 343v-4h1v13l-1 1z" style="fill:#9f968d"/><path d="M422 368v-25z" class="st634"/><path d="M381 378v42q-2 1-2-1h-1q-1 2-4 1v-17q2 1 2-1h2v-3l3-5v-9c-2-1-2 3-5 2-2-1 1-3 1-5l1 1v-5l3-2v-2z" class="st205"/><path d="M377 334v4q-3 3-3-1v8q0-2 3-2v-3q6-1 3-6h2v44h-1v-34l-2 4-2 2-1 5-2 2v5h1q-3 3-1 5v32l-1 3v-68z" class="st460"/><path d="M383 337v63l-1 3v17-86h1z" style="fill:#958b82"/><path d="M373 402v18-58z" class="st453"/><path d="m392 334-1 34v2l-1 2-1 4q-1 6-5 4l-1 1v28l-1 1v-43l1-4 3-4q3-3 1-8l1-6q-2-6 2-7v-2q-2-1-1-2z" style="fill:#b7ada4"/><path d="M393 334v31l-1 54v-85z" class="st206"/><path d="M383 367v53-83h1q1 15-1 30" class="st216"/><path d="M402 356v24l-2-4c-1 1 1 5-2 3-4 3 0 3 0 4-2 6-4 3-3-1h-1v21l1-1-1 2v3l1 2-1 1v8l-1 2v-64 5l1-4h6q-1-1 2-1" class="st603"/><path d="M362 393v5l-4-1-3-1-2 1v-30l1-6q-1-4 3-4l4-1v-3l1-3z" class="st501"/><path d="M353 362v41-43z" class="st453"/><path d="M343 388v3l-1 24v-10l-2 2-2-4-3 1v-16l2-2 1-1q0-3 4-2-1-3 1-6l-1-1v-10l1-1-1-4q-2-2 1-3v-7q0-1 0 0z" class="st617"/><path d="m335 374 2 2 4-1 2 2v10l-1-3h-2l-1-1c1 3-2 3-1 6l-3-1v18h-1z" class="st390"/><path d="M344 389v7h1l-1 19v5l-1-1v-31z" style="fill:#998e84"/><path d="M334 416v-10h1z" class="st617"/><path d="M344 386v-10q3 0 3-2 1-6 5-5v7h-1l1 4v26h-1v-11q-4 0-2-3h-1q0 2-3 1l-1 4v-10" class="st501"/><path d="m344 396 1-5 2 1c0-1 0-4 3-1l-1 2 3-1v20q0-2-2-3l-5-4-1 4q2 4 0 6zm9-4v-15h1z" style="fill:#bab0a6"/><path d="M423 334v4l-1 1-1-2-1 3c-2-1 0-4-2-5l2-1z" class="st634"/><path d="M373 362v-1q0-18-1 0v56l-1-1v4l-2-1-6 1v-24q2 0 1 3 3-1 2-3 4-4 3-10-3-2-1-5l3-3 1-13v-7l-1-1 1-23h1z" class="st403"/><path d="M372 334v31l-2-2-5 8q-2 5-2-1v-36z" class="st460"/><path d="M372 365v20c-2-1 0-6-1-7l-2 4-1 1 1 3 1 7-3 3v2l-2 1q-2 3-1 5v-6l-1-2v-26l1 3q0-4 3-6l2-4 2-5v2q-1 2 1 5" class="st617"/><path d="M363 334v16h-1l-1-16z" class="st271"/><path d="M362 397v-4z" class="st293"/><path d="M413 360v-11z" class="st359"/><path d="m373 361 1-23z" class="st453"/><path d="M180 395v1l-1 6v10l-1 3v6l-1 3v9l-1 1q2 0 0 0c1 2-3 3-3 1v-6h1l-1-31h-1v-4z" style="fill:#2d2824"/><path d="m231 395-2 1h-49v-1z" class="st631"/><path d="M180 396h8l-6 1-2 4z" class="st168"/><path d="M178 417v3zv8l-1-4zm1-14 1 6-1 2z" class="st246"/><path d="M242 395h-9z" style="fill:#282724"/><path d="M256 395h-5z" class="st506"/><path d="m177 425 1-3zm2-14v-3zm-1 5 1-3z" class="st246"/><path d="M251 395h-3z" class="st506"/><path d="M177 431v3l86-1v2h-87z" style="fill:#bcb7b2"/><path d="m268 439-4 1h-6l-4 1h-19l25-1q3-2 8-1" class="st219"/><path d="M191 441h12v1h-21l-3-1z" class="st275"/><path d="M191 441h-16zm26 0h-11l2-1z" class="st25"/><path d="M233 441h-2l-2-1zm-30 0h-6z" class="st219"/><path d="m169 440 2 1h4-12l-3-1z" class="st275"/><path d="M226 441h-5v-1z" class="st25"/><path d="M268 439h-5zm-39 2 2 1h-3v-1z" class="st275"/><path d="M221 441h-4v-1zm7 0h-2v-1z" class="st219"/><path d="M235 441h-2v-1z" class="st25"/><path d="M278 436q4-1 6 1h-6l1-1z" class="st378"/><path d="M286 373q2 1 1 4l3 6 1 5 1 1v1q2 2 0 4l2 2v6l-3-6q0-5-4-5l1-4-1-1q1-2-1-3z" class="st130"/><path d="M295 386v22q3 4 0 8v4l-1-27v-20h1z" style="fill:#82776d"/><path d="M294 391v-12z" class="st305"/><path d="M295 386q3-3 2 2l2 6q3 2 2 4l2 2 1 6v8l-1 1-1-6-4-9-3-3z" style="fill:#9e938a"/><path d="M295 408h3v2h2q-2 2-1 5l3 2v3h-6 2v-3l-3-1z" class="st130"/><path d="M305 414v6h-1zv-2z" style="fill:#80776d"/><path d="M315 375v5q3-2 4 1 3-2 4 1v15q2 0 0 0-2 2-4-2l-3-1q0 2-1 1v-29z" class="st258"/><path d="M315 395c1 0 0-4 1-3l5 5h2v12l-1-2-5-3-1-4q1-2-1-3v9z" class="st565"/><path d="m315 417 1-10q0 4 3 6l4 3-1 4h-2l-1-2q-3 1-4-1" class="st563"/><path d="M315 377v25l-1-1v-23h-1l1-4z" class="st557"/><path d="M324 403v17l-1-2v-21l1-16z" class="st677"/><path d="M315 417h4l1 3h-5v-10z" style="fill:#a79c91"/><path d="M315 395v-7z" class="st565"/><path d="m305 386 1 4 3 2q0 5 4 7v19h-1v-7q-4-1-5-6l-2-2z" class="st716"/><path d="M305 393v9l3 3v1c1 1 4 5 5 4v8l-3-1q0-4-3-8l-2 1v-5h-1z" class="st551"/><path d="M305 387v27l-1-2v-28h1z" style="fill:#897f75"/><path d="M314 417v-11h1z" class="st551"/><path d="M314 397v9h-1zv-1h1z" class="st716"/><path d="m325 353 2 2 2-1h4v45q-1 1-1-1v-18h-7z" class="st182"/><path d="M333 334v43l-1-1v-22l-1 1h-1l-4 2-1-4v-18l3-1z" class="st383"/><path d="M325 373v7l3-1 1 1 3-2v20l1 1v14l-1 1v-10h-1q1-4-2-5h-3l-1-2z" class="st174"/><path d="M325 375v35l-1 10v-45z" class="st120"/><path d="M334 344v24h-1v-30l1-2z" class="st206"/><path d="M325 397v1q0 1 0 0v-23zm9-63v10q0 1 0 0v-7l-1 1v-4z" class="st182"/><path d="M325 410v-12z" class="st174"/><path d="M334 351v64-71z" style="fill:#aea49a"/><path d="m106 301-2-5 1-1 6-2c2-1 1 3 2 2v-3q4 1 4-1c3-2 3 1 5 1l1 2 2-2v1h3l3 1 6 1v-2q4 2 6-1h4l2-1 3 2 2-1 2 1 4-2 2 1h3q0-3 2-3l-1 2 1 2h1q0-4 2-1h5l3 2 3 1 4 3h6q-2 3 2 4c-1 1 3 5 4 5h2v1q3 4 6 4l4 4q3-1 3 3l4 2h3l2 4h3l6 4q4 3 7 3l-2 1h-1v-1h-3l-5-1h-2v-1q4-3-4-4l-8-4-3-4q-4-5-12-7l-4-4q-4 0-4-3-1-2-3-2-4-3-9-3l-4-3h-1c-1 2-7 2-8 0-1 3-6 0-7-2l-2 2-3-1q-3-2-6 1 0-3-2-1 0 4-6 1l-9 1q-4 1-3-2l-3 1h-7q0 2-3 1 0 4-4 1l-2 3z" class="st188"/><path d="m228 334 7 1h4l4 1-6 1-6 2c-1 1-2-3-5 0l-1 2h-1l-1 2-5-1v2h-5c-2 0-6-3-7 0h-5l-2 1h-7l-2 1q-2-1-3 1h8-39v-1h10l23-3v-1l9-2 7-1q3 2 6-2 3-1 6 1 1-4 4-3t4-1z" class="st383"/><path d="m232 333 8 2h-4q-2 1-5-1l-3-1z" class="st746"/><path d="M231 332h3v1h-5l-3-1v-1z" style="fill:#2e2926"/><path d="M241 347h5-50z" style="fill:#c4bbb1"/><path d="M362 334v25l-1-2q-2 2-6 1l-1 7q1 2-1 2v-23l1-10z" class="st402"/><path d="m390 334 1 2v3q-3 1-1 6l-1 7 1 2-2 5v2q-1-1-2 2l-2 1-1 3v-33z" class="st164"/><path d="M380 334h1v5l-3 1q1 5-4 5v-8l1 1h1l1-4z" class="st70"/><path d="M353 334h-26v-1h25z" class="st206"/><path d="M353 334v10q0 1 0 0l-1-3 1-3q-3-2 0-4" style="fill:#b1a79f"/><path d="M353 344v-10h1q1 5-1 10" class="st288"/><path d="M364 334q1 4-1 7z" style="fill:#c4bbb3"/><path d="M382 337v-3z" class="st70"/><path d="M286 355q3 1 2 3l2 4 2 4 2 6v-2 9-5l-2-1-1-6z" class="st551"/><path d="M151 347h12l76 1h-89q-1-1 1-1" style="fill:#312c29"/><path d="m259 347 2 1h-22v-1z" style="fill:#2a2421"/><path d="m272 347 4 1h-15l-2-1z" class="st330"/><path d="M243 348h-3z" style="fill:#564f4b"/><path d="M278 368v1l-1 5v-4l-2 5v1l-1 5q-2 2-3 1l-5 3-3-1v-2l-7 2h-4l-1 1-1-1-2 1v-1h-2l-27 2-2-1-1 1h-11l-10 1h-26q-4 2-9 1l-6 3-1-1 3-2v-1l1-1 1-2h6l-1-1q1-2 2 0h5l2 1 6-2 5 2 4-1h8v2q4-2 7-1h8l2 1v-2q4 0 7-2l7 1 4-1 3 1h11v-2c4 3 5-1 6-2s6 1 7-1l1 1h4l4-1v1l5 1 1-1v-3l3-5q1-2-2-2l1-1v-2h2l1-4z" class="st730"/><path d="m259 364-2 1 1-3zm1-3-2-3q3 1 2 3" class="st226"/><path d="M295 363q3 1 0 2c1 2 2 8 1 9l-1 1v11l-1-13v-21z" style="fill:#938980"/><path d="M294 367v-11z" class="st250"/><path d="M304 354v10-20z" class="st258"/><path d="m305 346 1 9v-11l1 5h5l1-2v29-1h-1l1-9q0 3-2 2l-4-5q1 2-2 3z" class="st77"/><path d="M314 347v31l-1 8h-1v-5q-3-3-3-7l-4-1v-15 7c2 0 0-4 1-4l5 6 2-1v9-28l1-3z" style="fill:#beb4aa"/><path d="m323 340-1 18h-3l-3 1q1 7-1 13v3-33 14-12l3 1 2-3c0-2-2-3 2-3zv-2z" class="st77"/><path d="m295 360 4 1q3 2 2 5l2 2v-1l1-1v-2 14c0 4-1 7-2 1l-1-1-1-5-5-8z" class="st205"/><path d="m295 348 1 6 2-1 4 6h1l1 7v9l-1 1v-8l-2-1-1-1q1-5-5-6z" class="st258"/><path d="M286 335q3 1 2 2l2 1 2 3 1 1 1 4v10l-1-5h-1l-2-3-2-4-2-1zm37 47h-5v-1l-3-1v-8l2 1 5-6 1-6v-1z" style="fill:#beb3aa"/><path d="M324 375v6-35z" style="fill:#a1958b"/><path d="M325 355v20h-1v-35h1z" class="st182"/><path d="M327 334h1l-3 2v19q0 2 0 0v-15l-1-4v-2z" style="fill:#c8bfb7"/><path d="M323 360v-20z" class="st586"/><path d="M325 340v-4z" class="st383"/><path d="M305 364v23l-1-3v-30z" style="fill:#94897f"/><path d="M315 357v20l-1-3v-27z" class="st206"/><path d="M239 347h-33q-1 0 0 0z" class="st438"/><path d="M156 440h-4z" class="st275"/><path d="M269 138q4 2 4 6l-5 5h-5q1-2-1-3-2-2-1-5l4-3z" style="fill:#d2b278"/><path d="M281 439h-6zm-38 2-8 1v-1zm-35 1h-2z" class="st275"/><path d="M176 435h8l31 1 3 2-4 1h-52q0-2 3 0l27-1-14-3q0 3-2 0" style="fill:#938b83"/><path d="m173 436 3-1h2q4 0 3 3l-16 1h-5l1-1v-4h7q3 1 4-2v-23q0-2 0 0z" style="fill:#7c736c"/><path d="M156 437h-3l1 1-5-1q3-3 7-1" style="fill:#847b73"/><path d="M99 297c0-1-3-5 0-5v1l2-2h7c0-4 2-2 4-2l2-2 3 1 8 1 2-1h3l2 2h3l1-2 1 1 2-2-2-1 2 1q3-2 4 1l3-1-1 2h1l1-2 4 1 1-1 4-2 6 3h2l-1-2 5 1c1 3 2 0 2 0h3v-2h2l2-1 2 1 1 1 4 5 1-2q2 3 5 1l-2 3 4 1v2l2 1h2v2l-1 1v1c-1 1 2 3 1 4h-2l-1-2c-1-2 1-5-2-4l-1-2q-4 1-9-2 0-3-2-3l-1 1-5-3-4 1s-4-3-5-1v1q-4-2-5 1l-1-3-2 1s-2-3-2 0l-4 1-1-2-1 2-2-2q0 2-2 1l-2 1h-2l-5 2h-2c-1 0-1 3-2 1l-3-4-1 2q-3-3-4 0-4-3-8-1l-2 1-1-1-3 2-3 1-1 1-2-1-3 2q2 2 0 4h-2z" class="st340"/><path d="m92 301 3 1v1l2-1v1h1l6 1 5 1q2-2 3 1h-2l-15-3-4-1z" style="fill:#cfc7bf"/><path d="m100 302 2 1h7l5 2h2l4 1 1 1q3 3-2 2l-1-1-6-2-3-1-5-1-6-1z" style="fill:#dbd4cb"/><path d="M107 301q3-3 6-1 0-2 3-3l1-1q4 4 7 1l4 1h6q2-2 5 1h3q5-7 10-3l2 1q3-1 3 2 4-1 7 2 2-2 3 0 3 1 7-2l2 1v2q3-1 7 1 7 1 10 7l4 2h2q8 3 13 10l5 1 5 7q-2 1-5-1 1-3-5-4-4-2-7-7-2 1-2-1l-3-1-2 1-12-9h-3q-5-2-8 0l-6-3q-1 2-3 1h-10q-3 0-4-3l-2 1-7-1q-1 2-2 1-3-2-6 0l-2-1-2 1-7 2-3-3q2 0 1 2 3 0 1 1l-8-2-2-1 2-1-10-1z" class="st119"/><path d="M106 303h-4z" style="fill:#2f2c2a"/><path d="M109 303h-2z" style="fill:#35302e"/><path d="M120 272q1 3-1 3l-1 2-6 1-3-1-2 1-4-1-4 4h-4l-1 6v7c0-1-2-6-1-7l1-1-1-4 3-4h2l1-3h1l4-1 1 1c2 0 4-3 6 1l1-2h2l1 2 1-4q3 1 4-1zm39-6q-2 3-5 3h-3l-2-1-1 2-3 1h-1l-3 1q-3 3-7 0l-3 1q1 2-2 1l-6 2-2-4 1-1 1 1q1-2 1 1l7-3h3c3 1 2-3 5-2v1l4 1 3-2h2l1-2 4 1z" style="fill:#b1a79d"/><path d="M144 271c0 2-5 3-6 3h-2q-1 2-5 2v2l-2-2h-3l-5 1-2-2 1-3h1l3 3 6-2v1l1-2 4-1 1 2q3 0 5-2z" class="st5"/><path d="M151 269h1z" class="st263"/><path d="M171 271h-2v-1z" class="st216"/><path d="m154 391 3-1 3-2h2l7-2h21v1l2-1v1l12-1 3 1 2-1h1l4 1h16q-3 2-7 0l-2 1h-7l-8 1-15-1h-22l-1 1-5 1z" class="st614"/><path d="m194 390-7 1-2 1-3-1h-8l-4 2 4 1h-2l-4-1h-10l4-2 16-1c5-1 4 0 8 1z" class="st713"/><path d="M180 349h-29q-2 6-1 12v13q0 3-1 0v-3l-1-13 1 4-1-8 2-5z" style="fill:#c1b8ae"/><path d="M151 349c-2 9 1 18 0 27l-2 2v-4c2 2 1-2 1-3v-19z" class="st52"/><path d="M205 348h-36z" class="st251"/><path d="m197 348-13 1v-1z" style="fill:#c3b8af"/><path d="m144 349 2 33 1 3-1 1-1-4v-5q-3-10-1-21-2-3 0-7m0-8v3zq-3 2 0 7l-3-3 1-7-2-4 1-4 1 1v-2l1 1z" class="st226"/><path d="m143 329 8-1 2 1h3l-3 1h-4l-3 1-1-1-1 5q2 2 1 5l-1 1-2-11zq0-2 0 0 1 0 0 0" style="fill:#24211f"/><path d="M146 344v12l-2-16 1-1 1 1z" style="fill:#1e1d1a"/><path d="M147 362v3l-1-8v-4z" style="fill:#302b28"/><path d="M147 364v3-5z" style="fill:#13100d"/><path d="M147 371v-3z" class="st474"/><path d="M169 348h-18z" style="fill:#332e2c"/><path d="M147 345h1q2-1 3 1l-1 1-4-2v1l-1-1z" style="fill:#36322f"/><path d="m148 372-1-3z" class="st474"/><path d="M149 373v-2z" class="st52"/><path d="M141 359v-4z" class="st369"/><path d="M121 310h2l5 3q-1-2 1-2l6 5h-2l2 6-1 1q-5-9-13-13" class="st325"/><path d="M128 309c-4-3 2-6 4-3l2-1h4q4 3 9 2h12l7 1q2 3 5 1h3q2-2 2 1h8q3 4 7 4l2 1q1-1 3 1l1 1q2 3 5 3v1c5-2 10 7 4 7h-1l-2-3-9-5-1 2-14-4q-2 1-6-1-3 3-6-1-4 1-7-2-3 2-6 1-1-2-4-1l-4-1h-7l-3 3z" class="st314"/><path d="m136 316 2-4h1l1 1c1-2 3 0 5-2q2 2 5 0 0 2 4 2v2l2-1 1 1 3-2 5 3q1-2 3-1l3 3 2-2q1 2 3 0l2 2v-2l15 5 1-1q3 0 7 3 3 1 2 3 3 0 2 2h-4l-4-1-6-1-2-2q-5 4-9-1-2 2-3-1l-5 1-6-2h-4q-2-3-6-1-2-3-6 0-4 1-5-3l-3-1q-3 2-4 0c-2-1 2 1 0 1z" class="st301"/><path d="m138 317-1-1q3 1 5-1h1q1 2 3 2l1 1 2 1c2 1 3-2 6-1l1 1 3-1h2l2 2v-2h1q2 3 6 3l2 1 2-1h3l2 2 2-1c1 4 6 4 7 0l5 4-4 1h-18l-4-2q-5 3-8-3l-12 2-4 5z" class="st115"/><path d="m123 306-2-2 1 2q3-1 1-3h2c-2 6 3 2 6 1h1l1-1 2 1 3-1h3v2l1-2 8 2 2-2q2 1 2 3 6-2 7 1l-2 1h-12v2l-5-1-5-2q-2 2-2 0l-3 2-2-2-3 1 1 1v1z" class="st451"/><path d="m129 311-1 3-7-4-1-1 2-1h1z" style="fill:#d5cdc4"/><path d="M123 308h-4 2v-1l-1-1h1zm-3-2h-5l1-1z" class="st449"/><path d="m112 306 6 2 2 1-10-3z" class="st325"/><path d="M140 349v-3l1 3z" class="st553"/><path d="M159 420v9q-3-3-1-8z" style="fill:#575450"/><path d="m165 399 1 1q0-4 2 0l-2 7q1 6-1 11v6l-1 6h7q-1-5 1-11v13l-1 1h-8q-2 0-1-2l1-16 1-4z" class="st477"/><path d="m163 415 1-4z" class="st738"/><path d="M162 431v1zl1 1h9v3h-10l-1-1z" class="st478"/><path d="M161 438v-2z" class="st738"/><path d="M240 393h-59q-1 0 0 0h15l32-1z" style="fill:#9f958c"/><path d="M180 395h-8z" style="fill:#1a1917"/><path d="M176 394h4-6z" class="st668"/><path d="M168 393h-7l3-1z" class="st388"/><path d="M167 393h-4z" class="st713"/><path d="M172 396q-6 1 0 0v35h-9v-3l2-4-1-6 1-3v-8l1-1 2-6-2-2v2l-1-1v-3z" class="st743"/><path d="M172 398v21-23q-1 0 0 0z" class="st478"/><path d="M196 288q-1 3-2 0z" class="st216"/><path d="M133 286v1z" class="st340"/><path d="m227 393-32 1zm-34 1h-4z" class="st668"/><path d="M176 394h-2z" class="st713"/><path d="M239 394h-7z" class="st703"/><path d="M382 348v-9zm0 19v-6z" class="st70"/><path d="M383 399v-28z" class="st692"/><path d="M353 344v18z" class="st625"/><path d="M353 360v17h-1v-30h1z" class="st501"/><path d="M343 334v24h-1l-1-8q-3 4-6 1v-17z" class="st270"/><path d="m335 364 3-1c0-3 5-5 4-1l1 3v12l-2-1-4 1-2-3z" class="st402"/><path d="M343 358v7l-1-4q-4-1-3 3h-4v-13l4 1 2-3q-1-2 1-5z" class="st612"/><path d="M344 352v37l-1-1v-42h1z" style="fill:#a2968c"/><path d="M344 334v5l-1-1v13-17zm-9 40-1 11v-19h1z" class="st612"/><path d="m344 365 1-14 2-6c-4-3 2-11 3-6q1 3 2 0l1-1v9l-1 2v30-2c0-1-5-4 0-3v-6l-2 1c-2 2 0 7-5 6v2l3-1 1 3h-3q0-3-1-1v6l-1 2z" style="fill:#bfb5ac"/><path d="m172 399 1-2 1 1-1 6 2 7-1 18-1 1v1l1 4-1 1-1-1z" class="st379"/><path d="M173 430v-24z" style="fill:#3c3835"/><path d="M172 399v10-11q0-1 0 0z" class="st548"/><path d="M172 398v-2z" class="st379"/><path d="M295 379q2 0 2 3 5 4 5 10 2 1 1 3v-1l1-1v13l-1 4v-6l-1-4-1-1-1-3-1-1-1-4-1-2c-1-2 1-4-2-3z" style="fill:#a3988f"/><path d="M315 380v5-10z" class="st586"/><path d="M314 395v-9l1-8zm-9-22v6l2 4 5 3v20-7q-2 0-4-3l-1-5-2-1-1 1v-19" class="st569"/><path d="M295 375h3l5 9h1l-1 7 1-7v-1 10l-1 9v-8l-2-2-1-5-4-5-1-3z" style="fill:#a89e94"/><path d="M305 366v7h5c-1 1 1 8 2 7l1-1v17-9l-5-2-2-5-1 3z" class="st403"/><path d="M325 373v2-20z" class="st383"/><path d="M335 351v-17h1z" style="fill:#cbc3ba"/><path d="M335 364v2h-1v-15h1z" class="st270"/><path d="m107 301 1-5 4 2v-2l3 1c1-4 3-1 5-1l2-1 4-1 1 1-1 1 1 1 8-1 3-1 5 2v-2c1 0 4-4 3 0l1-2 2 1h3q1-1 3 1v-2l4 2 4 1 1-2h1v1q2 2 6 1v-1q4-1 5 3h1v1q5-1 8 1l1 1h2l1 3q-1 2-3-1h-2q-2 1-4-2-2 1-4-1-3-1-3 1c-3-1-4 2-7 1v-2l-2 2-4-3q-2 2-5 0l2-1h-3l-1-1v1h-1q-1-2-5-3l-2 2-3 3-1-1-2 1-3-2-2 1-2 1q-4-3-8-1l1-1-3 1-5-1v-1l-1 1-2 1v1h-4z" class="st37"/><path d="M176 300h1q1 2 3 0l3 2h1l3 1 2 1h1v2h4v2h2l2 3h3l7 6 3 1q0 4 4 3v2l2-1 4 4h2v1q3-1 3 2 1 1-2 2l-2-1q2 0 3-2l-2-1-2 1-2-3h-1l-1-1-5-1-2-3-5-5-7-2v-1l-2 1q-1-2-3-2l-6-6-4-1-5-2c-1 0-3 3-3 0z" style="fill:#a1978d"/><path d="M207 328h10v1l5 1 2 1h2v1h-1l-15-2-3-1q0 2 0 0h-4z" style="fill:#24201f"/><path d="m231 332 4 1h-4" class="st261"/><path d="M167 330h6q1 4 6 4h5q1-3 4-1 1-2 3-1 4-4 8 0l9-1 8 1h2v1c1 1-5 1-6 1h-3q-6 3-13 2-3 3-7 1l-5 4-9 1-7 2c-1-1-6 0-7 1l-3 1h-1q-3 0 0 1h26-32l-3-1q0-2 4-3l5-4q9-3 5-6-1-3 1-3z" class="st457"/><path d="m219 332 1 1q-2 4-6 3l-3 1q-1 3-3 2l-1 1c-5-2-6-2-11 0l-7 2q0 2-3 1h-2l-16 2-2 1h-8c0-3 1-1 3-2l7-1 2 1v-2q2 1 4-1l9-1 6-4 2 1 4-1v-1h9l7-1 1-1h5l1-1z" class="st485"/><path d="m228 334-2 1q-3 3-6 1l-1 2h1c-2 2-4-1-5-1l-6 3h-3l-7 1h-4l-4 1v2l-7 1-18 1q3-2 7-2h5l6-2 2 1-1-2c2 0 2 3 3 1l-1-1h3l9-3h4l3 1 2-2 2 1 1-2h1l2-1h2l4-2q4-1 8 1" class="st684"/><path d="M183 347h23-43z" style="fill:#49433f"/><path d="m227 333 3 1h-3l-8-1-1-1z" class="st457"/><path d="m231 334 5 1-3 1-1-1-3-1z" class="st684"/><path d="m157 346-6-1z" class="st485"/><path d="M170 329h37l3 1 16 2 3 1h-2l-10-1h-1l-18-2-16-1h-7l-1 1-7-1q-1 0 0 0z" style="fill:#dad2ca"/><path d="M353 334v4l-1 4-2-1-1-3q-3 2-2 5l1 1-1 5q-4 5-3 14v2-31z" style="fill:#c2b8b0"/><path d="m192 387 5-1h2l6-1c1 0 2 3 3 0l1 1-1 2-5-2-8 1-1 1v-1z" class="st458"/><path d="m295 365 4 6 1 1 1 5q3 1 2 5l1-4v5l-1 8v-7q-3-1-4-6l-1-1q0-2-3-2z" style="fill:#afa59c"/><path d="M323 361v12l-1-6-5 7-2-2v-14h1c0 1 4-2 4 0h1l1-2z" class="st586"/><path d="M268 139v1h3l-1 2 1 1h-1l-1 2-2 1-1 2c-2-3-5-2-4-6q2-3 6-3" style="fill:#d7b87f"/><path d="m178 435 15 2h6l-2 1-32 1 11-1 5-1v-1z" style="fill:#7f766e"/><path d="M104 304h6l-1 1zm14 4-6-2q4-1 6 2" class="st449"/><path d="M162 306v-1l2 1c2-3 3 0 4-1l2-1v1h1l3 2 2-2 1 2c1-2 3 1 4-1q2 3 6 1 0 2 3 3l3 3 5 3 3-1v1h2v1q1 2-2 3l-5-4-3-1-3-2q-2 2-3-1l-1-2-7-1h-8q-3 3-5-1-3 1-4-2" class="st451"/><path d="M196 316c3 1 1 1 2 2l3 1q2 0 2-2h3l1 1 2 4 4 3h3c1 0 5 4 1 4l-10-1h-1l2-4-2 1 1-1-1-3-4 1v-2l-4-2-1-1q-1 1-1-1m-35-10 2 1h2c1 0 2 4 4 2h1v2l-5-2-7-2c-3 3-6 0-9 1l-1 1-2-2h4v-1l5 1z" class="st614"/><path d="M143 329q1-5 4-6l12-1 4 3c2 1 4-2 7 0v1h2l6 1h-2 21-30v1h-14q-3 1-1-1l-6 1z" style="fill:#8f837a"/><path d="M153 330h10-1l2 1-2 1 2 1q1 5-4 6l-6 2-2 3q-3-1-4 2h-1l2-3 7-5 1-3-3-3-3-2q-1 2-2 0z" class="st288"/><path d="m145 330 2 1q6 5 0 12v2h-1v-1l-1-9h-1v-5z" class="st216"/><path d="M149 330h2l1 2q5 8-3 11l-2 2v-2l2-3q3-3-1-7v-1l-1-1-2-1z" class="st164"/><path d="m143 329 3-2q4-2 8 1h-3 2v1l-8 1z" style="fill:#8a7d73"/><path d="m146 344-1-4-1-5 1-2q2 6 1 11" class="st37"/><path d="M156 329h3v1h-6z" class="st525"/><path d="m157 328 4 1h-8v-1z" class="st280"/><path d="m151 330 3 1 4 3v2q-2 1-1 2-6 3-10 8v-1c1-2 6-5 6-7z" class="st402"/><path d="m172 309 2-1h2l2 1 2-2 1 2 2-1h1v1h3l-1 2q3 0 2 2l1-1 4 3-4-1-5-2-1-2h-5l-3 1v-2q-1 3-3 0" class="st614"/><path d="m196 327 5 1h6l-4 1q1 0 0 0l-4-1-6-1z" style="fill:#362f2c"/><path d="m197 327 4 1-5-1z" class="st662"/><path d="M178 326h9l2 1h-13v-1z" class="st301"/><path d="m172 396-6 1 2-1z" style="fill:#f5f5f4"/><path d="M344 339v13l-1-1v-14z" class="st201"/><path d="M207 329h-4z" class="st614"/><path d="m210 330-3-1z" class="st746"/><path d="M175 329h25l7 1h-4l-1 1-4 1-2-2-1-1-5 3h-3c-2 1-2-1-4 2l-2-1-2 1h-3l-3-1-1 1v-5l-1 1-5-1v-1z" class="st525"/><path d="m198 330 12 1 6 1-8-1-1-1zm29 3-8-1h-2l1-1z" class="st746"/><path d="M167 329h-8v-1h8m10 0h22v1zm5 1-1 1h-2l-1-1-3-1z" style="fill:#d0c9c2"/><path d="M198 330h-16v-1z" class="st746"/><path d="M170 328h-6z" class="st280"/><path d="M199 328h4v1z" class="st662"/><path d="M178 327h-8l-6 1h-3l-4-1h10l7-1z" style="fill:#2b2421"/><path d="m193 327-15 1v-1z" style="fill:#1e1917"/><path d="M170 327h4l-7 1v-1zm-7 1h-4z" class="st280"/><path d="M167 327h-4zm3 0h-2zm6-1h-2z" class="st115"/><path d="M147 331h2q0 3 1 2l1 5-4 5 2-4-1-5z" style="fill:#b4aaa1"/><path d="M164 329h2-5z" class="st525"/></svg>