<svg xmlns="http://www.w3.org/2000/svg" id="Layer_1" viewBox="0 0 3000 462"><defs><style>.st0{fill:#383635}.st5{fill:#b0a69c}.st13{fill:#f9f8f6}.st17{fill:#f3f2f1}.st18{fill:#b2a79d}.st25{fill:#ada7a1}.st27{fill:#b5aba1}.st36{isolation:isolate}.st38{fill:#a3988e}.st44{fill:#f8f8f7}.st47{fill:#816333}.st53{fill:#bcb2a9}.st61{fill:#f4f4f3}.st62{fill:#968c82}.st71{fill:#b9aea5}.st78{fill:#c4bab1}.st80{fill:#7b5d2f}.st89{fill:#ba975e}.st91{fill:#e9e4de}.st94{fill:#32302f}.st105{fill:#e5dfd9}.st116{fill:#92867d}.st120{fill:#a0958b}.st121{fill:#b1a69c}.st124{fill:#978b82}.st125{fill:#9d7b44}.st126{fill:#999b6a}.st127{fill:#f1efeb}.st128{fill:#f9f8f8}.st129{fill:#363231}.st131{fill:#94887e}.st132{fill:#5c5f35}.st135{fill:#bda992}.st137{fill:#beb4ac}.st147{fill:#b7ada3}.st155{fill:#c5bbb3}.st158{fill:#ebe7e2}.st164{fill:#a6834b}.st165{fill:#b9afa6}.st169{fill:#f6f6f6}.st173{fill:#f4f4f4}.st174{fill:#d4cbc3}.st175{fill:#bcb1a7}.st177{fill:#2e2b29}.st180{fill:#3a3836}.st183{fill:#c0b5ac}.st185{fill:#f8f7f5}.st189{fill:#a49a90}.st191{fill:#8d6e3c}.st199{fill:#9a7843}.st202{fill:#aba097}.st204{fill:#737648}.st206{fill:#b5aaa1}.st207{fill:#9e9389}.st212{fill:#4f4b48}.st216{fill:#a59d97}.st217{fill:#aca198}.st219{fill:#2d2b29}.st220{fill:#aea6a1}.st227{fill:#a89d94}.st228{fill:#765b2e}.st237{fill:#ad8950}.st238{fill:#e7e1dd}.st243{fill:#7f8257}.st246{fill:#b0a8a2}.st247{fill:#f4f3f2}.st251{fill:#aa9f96}.st252{fill:#ada299}.st255{fill:#2a2624}.st257{fill:#b6a28b}.st259{fill:#bbb0a7}.st262{fill:#a69b92}.st263{fill:#b28f54}.st264{fill:#afa49a}.st266{fill:#bfb6ac}.st271{fill:#c5bbb2}.st272{fill:#afa69d}.st275{fill:#939569}.st276{fill:#b1aaa4}.st278{fill:#8f6e3a}.st281{fill:#2b2625}.st288{fill:#6a693d}.st289{fill:#c6bdb4}.st291{fill:#b4aca6}.st293{fill:#eae6e1}.st294{fill:#b9aea4}.st297{fill:#7a7c4e}.st302{fill:#968a81}.st303{fill:#c4bbb2}.st306{fill:#988c82}.st310{fill:#828456}.st313{fill:#d4ccc3}.st315{fill:#9a8f85}.st319{fill:#2b2926}.st324{fill:#292725}.st326{fill:#ccc4bb}.st327{fill:#7c7f51}.st331{fill:#262421}.st341{fill:#a79d93}.st342{fill:#e8e3dd}.st355{fill:#ad9983}.st359{fill:#b8aea5}.st360{fill:#b0a59b}.st370{fill:#312d2a}.st374{fill:#22201f}.st377{fill:#b3a89f}.st379{fill:#928a83}.st380{fill:#332f2b}.st384{fill:#c3b9b0}.st389{fill:#8b7f76}.st391{fill:#bdb3aa}.st403{fill:#c0b6ad}.st404{fill:#b8ada4}.st408{fill:#e9e4df}.st409{fill:#5e6237}.st415{fill:#f5f4f4}.st420{fill:#bdb2a9}.st425{fill:#dad6d3}.st427{fill:#bab1a8}.st430{fill:#987742}.st431{fill:#bab4af}.st434{fill:#6d6f42}.st439{fill:#b1a89e}.st450{fill:#d8d1c9}.st452{fill:#9d9288}.st454{fill:#9c9288}.st458{fill:#ccc3ba}.st459{fill:#9d9187}.st461{fill:#bbb1a8}.st474{fill:#e1dad5}.st475{fill:#34302e}.st478{fill:#f8f8f8}.st479{fill:#ebe9e8}.st485{fill:#2d2c2b}.st486{fill:#c8bfb5}.st488{fill:#8b7f75}.st497{fill:#37332e}.st502{fill:#bcb2a8}.st507{fill:#fefefe}.st508{fill:#bdb8b2}.st519{fill:#707348}.st521{fill:#aca097}.st522{fill:#302e2a}.st526{fill:#d0c8bf}.st532{fill:#b7aca3}.st538{fill:#b5aba2}.st549{fill:#383633}.st550{fill:#f5f5f5}.st551{fill:#d2ceca}.st552{fill:#a69b91}.st554{fill:#302d29}.st557{fill:#9e7c46}.st558{fill:#968b81}.st559{fill:#e5ded7}.st563{fill:#d7d2cf}.st564{fill:#ada298}.st565{fill:#a09892}.st566{fill:#b5aaa0}.st568{fill:#a6854d}.st570{fill:#b2a79e}.st581{fill:#90847a}.st582{fill:#797d4c}.st587{fill:#c2b7ae}.st594{fill:#c1b7ae}.st602{fill:#72562a}.st604{fill:#b4a9a0}.st613{fill:#c2b8af}.st615{fill:#9c9187}.st617{fill:#f2f1ef}.st618{fill:#baafa6}.st620{fill:#c4bfba}.st625{fill:#696a3e}.st626{fill:#a2978e}.st628{fill:#7a694c}.st629{fill:#b9afa5}.st632{fill:#62615f}.st634{fill:#93733e}.st635{fill:#afa49b}.st638{fill:#a18a6f}.st646{fill:#e4e3e1}.st650{fill:#e2e0de}.st651{fill:#997842}.st656{fill:#b6aba2}.st663{fill:#413937}.st664{fill:#cdc4bb}.st666{fill:#312f2c}.st669{fill:#91867d}.st677{fill:#787b4d}.st678{fill:#978c82}.st683{fill:#9e968e}.st685{fill:#c6bdb3}.st691{fill:#f7f7f5}.st693{fill:#91857c}.st694{fill:#f8f7f7}.st703{fill:#886938}.st704{fill:#90847b}.st714{fill:#91867c}.st716{fill:#f7f6f5}.st717{fill:#aca197}.st723{fill:#b3a9a0}.st731{fill:#a0968b}.st734{fill:#2f2d2b}.st738{fill:#b6aca3}.st739{fill:#3d3935}.st744{fill:#fdfdfd}.st746{fill:#aba096}.st747{fill:#d5cdc5}</style></defs><g class="st36"><path d="m749 354 10 5v6h-47l-47 1v-7q11 0 16-3 6-2 6-8 0-5-4-15l-19-50h-67l-8 21a102 102 0 0 0-9 34q0 12 7 16 9 6 21 5v6l-39-1-23 1v-6q15-2 26-32l71-181h21l75 194zM631 193l-32 83h63zm346 173q-9 4-23 4a47 47 0 0 1-28-8q-10-7-14-26l-5-31-6-24q-3-10-8-14a20 20 0 0 0-15-6h-20v72q0 11 2 17a11 11 0 0 0 6 7q5 2 15 2v6l-47-1-48 2v-7q10 0 15-2 4-2 6-7l2-17V179l-2-17q-2-5-6-7l-15-2v-7l47 1h48q43 0 64 14a45 45 0 0 1 22 39q0 14-7 27a56 56 0 0 1-22 21q-15 9-41 12h1q18 2 30 7 12 4 19 13a49 49 0 0 1 10 21l7 32 5 17q4 5 10 5l6-2q3-1 6-5l4 4a53 53 0 0 1-18 13Zm-79-117a34 34 0 0 0 14-18 86 86 0 0 0 4-27q0-25-9-38t-30-13q-8 0-12 2t-5 8-2 16v76h13q18 0 27-6m318 117q-10 4-23 4a47 47 0 0 1-28-8q-11-7-14-26l-5-31-6-24q-3-9-9-14a20 20 0 0 0-14-6h-20v72l1 17a11 11 0 0 0 7 7q4 2 15 2v6l-47-1-49 2v-7q11 0 15-2 5-2 7-7l2-17V179l-2-17q-2-5-7-7l-15-2v-7l47 1h49q43 0 64 14a45 45 0 0 1 22 39q0 14-7 27a56 56 0 0 1-22 21q-15 9-41 12 19 2 31 7 12 4 19 13a49 49 0 0 1 9 21l7 32 6 17q4 5 9 5l7-2q3-1 6-5l4 4a53 53 0 0 1-18 13Zm-79-117a34 34 0 0 0 14-18 86 86 0 0 0 3-27q0-25-9-38t-29-13q-8 0-12 2t-6 8l-1 16v76h13q17 0 27-6m295 69 3 47-71-1-101 1v-6q10 0 15-2t6-8l2-16V179l-1-17q-2-5-7-7l-15-2v-7l165 1-2 45 1 21h-7q-3-22-10-35a42 42 0 0 0-16-19 50 50 0 0 0-25-5h-12l-14 1q-5 2-6 6t-2 15v76h10q17 0 25-12a75 75 0 0 0 12-29h7l-1 30v14l2 44h-7q-6-41-38-41h-10v78q0 10 2 15 2 4 6 6 5 2 14 1h15a45 45 0 0 0 35-15q14-15 19-50h7zm89-171 10-1 48-1q61 0 91 28t30 80q0 33-15 59a98 98 0 0 1-43 39 147 147 0 0 1-66 13h-92v-6q10 0 15-2 4-2 6-7l2-17V179l-2-17q-2-5-6-7l-15-2v-7zm37 202q2 6 7 8t14 2q26 0 41-12a66 66 0 0 0 22-35q6-23 6-58c0-35-2-43-7-58a64 64 0 0 0-22-34 66 66 0 0 0-40-11q-10 0-15 2-4 2-6 8l-2 17v154q0 11 2 17m360-195a92 92 0 0 1 38 39q14 25 14 60c0 35-5 43-14 60a101 101 0 0 1-39 41q-25 15-57 15c-32 0-41-5-57-14a92 92 0 0 1-38-38q-14-25-14-60c0-35 5-43 14-61a101 101 0 0 1 39-40q25-15 57-15c31 0 40 4 57 13m-89 6a93 93 0 0 0-20 39q-7 25-7 56c0 32 3 41 8 57a91 91 0 0 0 22 38q13 13 30 13c16 0 21-4 30-14s15-22 19-38q8-25 8-57c0-31-3-40-8-56a91 91 0 0 0-22-38q-13-13-30-13c-16 0-21 4-29 13" class="st36" style="fill:#231f20"/><path d="m2304 142 23-1v6a40 40 0 0 0-15 12q-8 9-13 25l-66 176h-21l-79-193a38 38 0 0 0-9-15q-5-5-10-5v-6l47 1 47-1v6q-12 1-17 3t-5 9q0 5 4 14l54 139 38-103a123 123 0 0 0 9-38q0-12-7-18a31 31 0 0 0-19-6v-6zm136 8a11 11 0 0 0-7 7l-1 17v153l1 17a11 11 0 0 0 7 7q4 2 15 2v7l-47-1-49 1v-7q10 0 15-2t7-7l1-17V174l-1-17q-2-5-7-7l-15-3v-6l49 1 47-1v6q-11 1-15 3m60 43q0-21-3-52l96 1 95-1-2 52 1 24h-7a170 170 0 0 0-13-41q-7-15-17-21a46 46 0 0 0-25-7h-8v177q0 13 3 18 3 6 9 8l21 3v6l-58-1-57 1v-6q15 0 21-3 7-2 10-8t2-18V148h-7q-15 0-25 7a51 51 0 0 0-18 21q-7 15-12 41h-7zm401 156 10 5v6l-47-1-47 1v-6q12-1 17-3 5-3 5-9 0-4-4-14l-18-51h-68l-8 21q-8 22-8 35 0 11 7 16 8 5 20 5v6l-38-1-24 1v-6q16-3 27-33l70-181h22l75 194zm-117-162-32 84h63z" class="st36" style="fill:#a78955"/></g><path d="M7-32h548v548H7z" style="fill:#fcfcfc"/><path d="M476 231v2l1 9c0 26-3 47-12 72q-2 1-1-2a194 194 0 0 0-23-174q0-3 2-1c18 26 32 62 33 94" style="fill:#a5844e"/><path d="M154 99a187 187 0 0 0-69 151v2q-1 2-3 1l1-25a211 211 0 0 1 14-56q18-44 54-74 3-1 3 1" style="fill:#a6854e"/><path d="m388 325 52-2 2 1-4 1-6 1h17l2 1h3v7h-1v-7H274v-1h2l-1-1h29l1-1 27 1z" class="st61"/><path d="m275 450-18 1q-5-2-10 0h-5l-31-2-49-1-62-5-25-3-10-4 11-2 13-1c2 0 2-6 3-5l1 2v-2q2 1 0 1 1 3-1 4v1l-17 1-2 1q16 6 34 6 94 7 187 7h13v1z" class="st694"/><path d="m401 95-14-9q-45-29-99-31l1-2q64 2 114 42 2 2-2 0" class="st568"/><path d="M278 5v120l-1 1h-1V5z" style="fill:#060606"/><path d="m315 258 6-2 3 1q6-1 7 5 5 2 2 6v1l-4 10-1 3q-2 2-1 4l-1 5q2 0 0 2l-1 6q1 2-1 3-1 8-7 3-3-2-4-5-3-1-1-5h-1v-9l-1-8q-2-1 0-3l-3-6v-5l3-3z" style="fill:#b08e55"/><path d="M357 265q1 2-1 4 4 1 2 4v6h-1l-1-6-2-2q-3-4-6 1h-2q1 7-1 14t-1 15l-2 4q1 1-1 3 2 3-2 5l1 2q-1 4-6 4l-5 1h-6v-1q5 0 9-2l2-2 1-3q2-1 1-4v-2q4-3 3-7v-8l1-5q-1-2 2-3l-1-10q2-1 2-3l2-2 4-3q4 1 6-2z" style="fill:#876836"/><path d="m322 319 5-1q4-1 4-5h1l3-7v-2l2-13q-1-6 2-10-1-2 1-4v-2q0-5 5-8 0-3 3-3 3-4 5 1 0-2 2-1v2l-5 2-2-1-3 2-1 3-2 3 1 2h-1l1 7-2 2v2l-1 1v10l-1 1q2 0 1 3v1l-3 4 1 3h-1l1 1-3 2 1 2q-1-1-1 1h-2v2l-8 1-2 1-1 1h-8v-2h7Z" style="fill:#8d6c39"/><path d="M424 298h20v1q-1 0 0 0h-7l-5 2-2 2q-1 2-5 3l-4 3-7 3-2 1h-2q-6 3-13 1l-9-1h-4q-9-3-14-11 0-3-4-2h-1q-1-2 1-1l5-1h2v1h-1l1 1q-1 3 4 5l6 3 1 2 9 1q2 2 4 0 7 1 13-1 5-3 8-7 6 1 7-3l1-1h-7q-2 2-1-1z" style="fill:#8f6f3c"/><path d="m444 299-1 4q0 3-1 2h-1q-1 1-1-1l1-3-7 5-14 8-10 2-13 1-19-2-5-4-4-1q-2 1-1-2v-1c0-1 1-5-2-4v-1q-2 1-1-1v-1h5q0 6 4 7l5 3q4 3 9 4h9q8 2 14-1h1l6-2q4 0 6-4l2-1q4 0 6-4l5-3z" class="st47"/><path d="m272 128 5 2 7 5 3 4q-2 9-9 15l-2 2q0 2-3 3-1 2-5 3h-3q-3 2-4-1-5-2-5-7-5-4-4-11l-1-3q-2-1-1-2l5-5 5-2v2q-9 8-3 18c2 4 7 11 12 6l3-1 4-5 1-1q2-1 2-3 3-3 4-7-2-3-5-4-2-4-6-4-4-2-2-4z" class="st263"/><path d="M298 135v1q-5 3-5 8l-2 2q0 3-4 5 0 2-3 4v1l-2 2q-5 3-6 8l1 2v3c-7 1-12 0-6-5l12-14 3-6h1q3-5 1-9 1-2-1-3l1-4q6 1 10 5" style="fill:#a4824a"/><path d="M249 140q3 0 3 3-1 8 4 12 0 3 4 5l1 2h5q4 3 6-1l6-5q0-3 2-3 1-2 3-1l-1 1-10 14-3 4h11-14c-1 1-3 9 1 8q8-3 15 2l4 2v1l-1 1-8-4q-4-3-8 0h-5l-1-3v-3l-1-3h-10v-1h9q-1-2 1-1v-1q3 0 1-3-5 1-5-3-4-3-5-7l-1-4q-4-2-3-6-2-2-1-5z" style="fill:#a8854d"/><path d="m352 261 3 2-1 1c-2 2-2-3-4-2l-2 2h-2l-1 2-3 2v1l-2 3c-1 1 2 3-1 3l2 1q-3 3-1 4l-3 7 1 3v6l-2-1v4l2 1h-2v3q2 1-1 3l1 1q-2 0-1 2h-1q1 2-1 2 1 1-1 1l1 2h-1c0 4-6 4-9 4l-1 1h-6v-1h-2q0-2 3-1h7q2-2 3-1l1-1q3-3 2-6 4-4 3-9l2-4q-2-3 0-5v-2l1-6 2-7 3-10q4-5 9-6z" style="fill:#93723d"/><path d="M270 128c-1 3 5 4 6 4l3 4h1l4 4q-2 1-1 2l-3 5q1 2-2 3v2h-1l-2 4q-2-1-2 1l-4 1-2 2h-3l-5-4-3-5-1-1c-1-1-2-8-1-9l4-7 2-1c1-3-4 1-5 0l6-3h4z" style="fill:#b79459"/><path d="M304 142h-2q-2 2-6 1l-2 3h-1a8 8 0 0 1-4 7l-5 6-4 5-1 6-1 1h-1l-1-2 1-2h-2l2-6 4-3q1-3 2-2l1-2 3-2-1-1 4-3v-2l2-2 1-5 5-4z" class="st125"/><path d="m310 261-2 3 1 3-1 2q3 2 2 5v3l1 1v4q2 2 0 5l1 1-1 1 1 2-1 1h1l1 1-2 1q2 1 1 3l1 3 1 1q2 2 0 3l4 7q2-2 3 1 2 0 2-2c5 1-1 6-4 4q-2 2-5-2-2 0 0-2l-1-2-2-5q-3-2-2-6l-1-4v-3q-1-2 1-3l-1-3-2-9 1-2-1-3q-3 0-2-3z" style="fill:#a7844d"/><path d="M282 164q2-1 2-4l5-5 4-4 3-5q0-3 4-2 3-1 4 4l4 7v4l1 12h-1l-1-7-3-9-3-5c1-3-7 2-6 4q-3 1-4 5l-3 3q0 3-3 5v3q2 3-3 1h-2c-2-1 0-7 2-7" class="st634"/><path d="M397 446h-1v-1l32-2 24-2 24-5q-2 0-2-2 5 0 9 2-1 3-4 2l-3 1-9 2-9 1-16 2-34 2z" class="st478"/><path d="M206 67q1-1 1 2-24 9-45 24l-2-1a193 193 0 0 1 46-25" style="fill:#a4854e"/><path d="M214 64q24-9 50-11v2a209 209 0 0 0-48 10q-3 0-2-1" style="fill:#a5854e"/><path d="m454 422 1-82v93l18 1h1v1h-1l-7-1h-12l-1 1v-13z" style="fill:#f6f6f5"/><path d="m301 274 1 1q0 2 3 2 3 7 1 14 2 5 2 12v2l2 5 1 3 1 3q4 0 1 1-1 4-4 1l-2-6-2-6-3-18q3-3 0-4l-1-3-1 1v-7z" style="fill:#93733f"/><path d="M304 142q6 8 5 18v11l-1-8-1-4v-4l-4-7-2-3q-2 1-2-1l-2 1v2q-4 1-3 5-4 0-3 2l-6 6q0 4-3 4v-1l2-5 5-5 3-5q0-2 2-2c1-5 2-3 6-4l2-1z" style="fill:#987640"/><path d="M301 274q6-1 5 4l2 6v3l1 3v3q-1 5 1 9c1 3 1 11 3 12l5 2q1-2 2 0l-1 1-1 1-3-1v1q-2 2-2-1l-1-1-3-2 2-1-2-3v-1l-2-4 1-1q-2-1-1-3v-5h-1q1-2-1-5 2-5-1-10h1v-1l-1-3-2 1z" class="st199"/><path d="m277 126 2 2h2l7 2 2 1h-2l-1 2 3 3v3l-3 8h-1l-3 5-3 1v-1a21 21 0 0 0 7-13l-3-6q-4 0-8-4-3 1-4-1h-3 5z" style="fill:#aa864d"/><path d="M334 243v2q4-1 7 1h-7q-4 1-3 7v3q-2 1 1 3l4 3c1 1 0 6-2 6h-1l1-2q-1-4-4-4l1-1c-2-4-7-2-10-5-2 0-4 4-6 2l5-2 1-5v-5h1q2 1 2 3l1 6v1q1-2 3-1v-9h4l1-1z" style="fill:#ae8a51"/><path d="M357 265c8 11 5 27 6 39h-1q-1 1-1-1l-1-18q0-3-2-5v-9l-3-3 1-1q-1-2 1-2" class="st191"/><path d="M245 148q3-3 5 3l2 2 1 3 5 7v2c2 1 6 3 4 5l-1 1c-3 0-9 0-5-1 1-2-4-8-5-10l-1-1c2-2-3-7-5-3q1 2-1 2v-7z" style="fill:#9e7c45"/><path d="M301 281v23l1 5c-1-4 3-1 4 0 2 3 5 11 0 11q-3 0-5-4l-1-5-1-8v-13l1-7v-4h1z" style="fill:#876a3a"/><path d="M401 95v-1l1 2 1-1q14 11 26 24 1 3-2 1l-3-3q0-1 0 0l-11-11z" style="fill:#ab8a55"/><path d="M306 322q5 3 12 2h70v1h-48l-35-1-5-1c-1-1 6-4 6-1" style="fill:#eeecea"/><path d="m424 298-6 1h-10l-7 1-4 1q-2 3-6 1-3 2-6-2l-5-1v-1q-2 3-2 1h-6v-1z" style="fill:#c8a972"/><path d="M342 198q2-3 2-1l-6 18q-2 4 0 7l-4 8-1 2-1 4-1 6-1 1q-1 2-1 0-1 0 0 0-1-4 1-5l1-3v-1l2-6 1-4h1l-1-1 1-6 1-3 1-4 2-5 1-1v-3q0-4 2-4" class="st135"/><path d="m360 208-4 2-6 7-7 4q-8 10-9 22l-1 2h-1l4-17c0-2 3-7 5-7l15-13q2-2 4-1 1 0 0 0" style="fill:#6b573f"/><path d="M374 447h15l-5 1-4-1c-2 0-5 3-6 1h-1q-3 2-5 0l-10 1h-5l-1 1-4-1-1 1-18-1h-4l13-1z" class="st478"/><path d="M244 166v-8q5-3 7 2l1 3c3 3 6 6 0 8l-1-2q1-3-2-4l-2-1q0 2-2 3v4h-1z" style="fill:#91713d"/><path d="m371 204-1 1 5 3 4 2 1 4h-2q-3 1-3-2l-1-1q-5-2-9-1c1 0 6 2 2 2l-6-3q-1-1 1-1v-3q1-2 5-1z" style="fill:#686c40"/><path d="M244 151v6l1-2 2-2q4 2 5 5l-1 2q4 3 6 8-1 2 2 2l-4 1h7-10l3-3h-1q0-3-3-5l-1-3-1-3-1 1-1-1-3 1v7l-1-9z" class="st651"/><path d="M98 404q-1-3 2-1c1 1-2 12-2 14v1l-4 13-1-2v-1z" style="fill:#4a4644"/><path d="M278 5h-2v121c-1 1 1 1-2 2l1-5V4z" style="fill:#bda26e"/><path d="m379 143-1 4c3 1 5-2 9-1l-2 1 3 1h-6q-2 3-5 2-1 2-3 1 0 2-2 2l-2 2q1 1 0 0a1 1 0 0 1-2 0q-1-1 0 0l3-4q-1-2 2-3l2-4q1-2 3-2" style="fill:#f9f9f8"/><path d="M291 171h18l-1 1zh-1l-1 6v2l-3 4v-1l-4-2q-7-7-15-2c-4 1-2-6-1-7v3l1 1q9-2 16 3 5 2 4-4l1-4z" class="st430"/><path d="M341 219v-1l3-1v1l-2 2-7 10h-1l3-8-1-1 2-8 5-17-1 2v-1q-1-2 1-2 0-3 2-2 2-6 6-11l1-1v1a143 143 0 0 0-13 33q-2 5 2 3" class="st355"/><path d="M157 254h5l6 2 3 1q15 4 25 15v1l-4-3-3-3-6-4-9-3-15-4-4-2z" style="fill:#1a1818"/><path d="m304 268 2 1 1 3 1 1-1 2 1 1 1 7-1 1-2-4v-2l-1-2-1-2h-3z" class="st557"/><path d="M358 171q1-1 1 1l-6 12q0 6-5 10 1 2-1 2l-1 2v2l-2 4h-2v-1l14-30 1-1q-1-2 1-2z" style="fill:#705d44"/><path d="M443 324h5l-1 1h6l-2 2h-21l1-1v-1h6z" class="st128"/><path d="m327 245 3 1q1-2 1 0h1-3v9l-4 1v-1l-1-7-2-2h-1z" style="fill:#c9a76f"/><path d="M285 185h-3q-5-5-10-3-1 3-3 3l-4-4h4l4-2c4-1 9 4 13 6" style="fill:#b29056"/><path d="m324 449-17 2-5-1-3 1-3-1-10 1-4-1h-7 28l4-1z" class="st478"/><path d="M358 163c-2 0 1-1 0 0l-2-2v-1h-1v-1l-1-1q-2 2-2 0c-2-2 1-3 1-2l2-3q-1-4 3-3c2 3 2 10 0 13" style="fill:#717346"/><path d="m429 119 11 14q1 2-2 1l-11-14v-1z" style="fill:#a78651"/><path d="m89 251 1 1-1 1c-10 2-21 7-19 19h-1v1c-2 2-2-2-1-2h-1v6q-2-1-1-3 1-7 4-13 1-3 4-5l7-3h1q0-1 0 0l3-1z" style="fill:#1f1c19"/><path d="m249 141-1 2 2 3 1 5h2v5s-3-1-1-3c-4 0-3-4-5-5l-1 1-1-1z" style="fill:#a4814b"/><path d="M395 114q1 8-3 10-4 4-3 0v-2l-5 7-1-1q1-4 4-6l4-6q1-3 4-3" style="fill:#838556"/><path d="m443 303 1-1-3 8-3 4h-1l-1 4q2 2 5 2h-13l1-1 2-2 3-2q1-3 4-4l1-3 3-4z" class="st44"/><path d="m458 330-4 10v82h-1v-88l1-1 2-4 1-2q2-1 1 3" style="fill:#a78852"/><path d="m464 317-6 13-1-3 1-3 5-10z" class="st568"/><path d="M81 253a23 23 0 0 0-11 8l-1-1 4-5q3 1 3-2 3 1 5-1v-19z" class="st13"/><path d="m344 181-1-3q2 4-1 3l-1-4-1-6v-1l1-1 1-3q3 8 3 15" class="st677"/><path d="m374 136 1 2v4l1 1-5 6-1 1v-2l2-12v-1q1 1 1-2h1z" style="fill:#f5f5f2"/><path d="M354 169q0 2 2 3v-1c1 1-4 10-4 10l-7 12v-1q-1-2 1-4l1-2 1-2q-1-1 1-1l1-3q4-5 4-11 0-1 0 0 1 0 0 0" style="fill:#c0ac95"/><path d="m284 185-3 2h-2q-3-6-9-1h-1l-1-1 2-3c5-4 10 3 14 3" style="fill:#bc995f"/><path d="M372 135v7q-3 7-4 2h-1v-6q0-4 2-3 0 4 1-2h1z" class="st132"/><path d="m77 360 6 20v3q4 1 4 5h-1q-4-1-3-4c-4-6-6-18-8-25q0-1 0 0z" style="fill:#201e1c"/><path d="M87 389q5 4 10 5h1l1 1-1 6-1-3v-2l-10-5-4-4 1-2z" class="st169"/><path d="M397 133v1l-2 3h-3l-3 1q-1 2-4 1v-1h1q1-1-1-2v-1l3-1h2v-1z" style="fill:#827f55"/><path d="M380 126v6l-2 6-1 2q0 2-1 1 0 3-1-1v-2c0-1-1-5 1-4q2 0 2-3l1-4v-3z" style="fill:#64653c"/><path d="M375 211h-4q3 2 4 0 3-1 2 3h2-4l-7-2h1l-5-2 1-2q5 0 9 3" style="fill:#787c4d"/><path d="M371 164q3 0 5 2l-2 1h-9q-2 1-1-1 3-4 7-2" style="fill:#74764c"/><path d="M364 193c1 2-1 7-3 7q-2 2-2-3-1-2 1-1l-1-1 3-6v-1q3 2 1 5" class="st310"/><path d="M389 154h6v1l-4 2h-8q-3-2-5 1 3 0-1 1l-3-1v-1z" class="st409"/><path d="M306 320q2 0 2 2h-2c-1 0-6 0-5 1l4 1-9-1 5-1 1-4-1-2z" class="st44"/><path d="m378 159-2-1 2-1 6-1h7v1l-7 2h-2q-1-2-4 0" style="fill:#717446"/><path d="m349 183-1 1-1 2-2-1 1 3q1 2-2 2-3-1-1-3v-6h1v2l1-7v5z" style="fill:#f7f7f6"/><path d="m162 93-8 6-2 1v-2h-1l9-6z" style="fill:#a98b55"/><path d="M364 193v1zq0 3 3 4 0 2-2 1-2 1-1 3h-1l-5 4v-1q-1-2 2-2-1-2 1-2z" class="st185"/><path d="m364 127 1 2v11q0 4-1 3l-1-3v-8z" style="fill:#919260"/><path d="m269 186 1-1q6-5 11 1h-1l1 1h-3q-4 2-1-1-2-3-3 1h-2z" style="fill:#caa76d"/><path d="m331 171 4 3 1 2q2 3-2 2c-1 0-5-4-4-5q-4-1-3-4z" style="fill:#9e9d6f"/><path d="M328 233q0 1 0 0l-1 2v-1l-2-2c-2-3-2-8 2-7z" style="fill:#5f633a"/><path d="M383 149h7q1 3-2 3l-10 1q-3-1-1-2z" style="fill:#929364"/><path d="M369 152q0 3-3 5l-3 6h-1q-2 4-2 0l7-11z" style="fill:#af9c85"/><path d="M395 114h-2l-10 13v1q2 1 0 4v2l-1 1v1q-2 0 0-2-1 1 0 0l1-3v-3l1-6q5-2 7-8z" style="fill:#8a8d5b"/><path d="m343 195-1 3-2 4v-4q-2 0-1-2h-1v-4q0-1 0 0l4 1zv-4z" class="st691"/><path d="M391 114v1l-5 7h-2q1-6 7-8" style="fill:#a6a775"/><path d="M369 130c1 1 2 7 0 7l-2-1-2-8v-2q3 1 4 4" style="fill:#818454"/><path d="m390 149 1 1q2 2-2 2-1 2-4 1h-3q-5 2-8 0v-1l3-1v1l8-1h4z" style="fill:#838555"/><path d="M366 302q2 3 1 5v1l-2 1q-2 5-3 1v-6h1v2c4-1 1-3 1-4l1-1z" class="st716"/><path d="M319 214v2q0 4 3 7c1 1 1 5-1 3q-3-6-4-13z" style="fill:#888a5a"/><path d="m320 217 4 6 3-1v3q0 2-2 0l1 6-2-5 1 6-3-3q1-6-3-10z" style="fill:#6f7245"/><path d="M326 220c0 5-4 0-5-2l-1-2h-1l-1-2h1q6 1 7 6" class="st126"/><path d="m353 184 1 1q0 5-3 6 2-1 3 1-2-1-4 1h2c-1 1-5 3-4 1z" class="st44"/><path d="m214 64 2 1-9 3h-1v-1z" style="fill:#a98b56"/><path d="m365 167 8-1v1h-4 5q3-2 2 1-7 0-13 2-1-1 1-2 0-2 1-1" style="fill:#7f8152"/><path d="M364 205q6 0 10 3l-10-2v1l-2 1-2-1v-1l2-2z" style="fill:#565830"/><path d="m389 154-11 2-4 2 1 1-4-1q-2-1 0-1l2-1 2-1a9 9 0 0 1 9-1h4" style="fill:#4f522a"/><path d="m365 126 3 10h1v-6l2 4-1 5q-3 1-2-3l-1 3v-1l-1-7-1 1v13h-1v-19z" style="fill:#7a7d4d"/><path d="M375 205q1 3 4 3l1 2c-3 1-6-3-8-4l-5-1 5-1z" class="st327"/><path d="M273 326c-2 0-3-5-4-6q-2 0-3-2l-4-3q-2 1-3-2h-1q-2-1 0-1l4 1c4 2 12 7 11 13" style="fill:#1f1d1d"/><path d="M367 159h2l-1 2 2 2h-1l2 1q-4-1-7 1h-1l1-2z" class="st691"/><path d="M337 246v1l-1 8h2v-6q-1-3 2-3h1l1 7v2q0 3-3 1c0 2-6 1-7 0s0-10 3-10z" style="fill:#8d6e3a"/><path d="m325 167 4 6v1l1 2 4 6-1 1-2-1q-1-3-4-5 1-5-2-6l-1-2v-3z" style="fill:#757749"/><path d="m350 153 2 7 2 8q0 1 0 0l-4-5z" style="fill:#4e522c"/><path d="M207 288v2l-1-1-8-12v-1l-1-1q-2-1-1-2v-1z" style="fill:#201e1e"/><path d="m342 253 1-2 1 4h2l1 2 5 2v1l-2-1-1 1-7-3v-2z" style="fill:#f8f7f6"/><path d="M136 250h4l5 1q3-1 5 1h1l3 1h3-2v1l-19-3-3-1z" style="fill:#272626"/><path d="M67 286v23l1 3v6l1 2v7-1l-1-2v-5l-1-2v-11l-1-4v-16q0-1 0 0z" style="fill:#272524"/><path d="M441 321h5l2 1h3v1l-2 1h-6l2-1-16-2z" class="st61"/><path d="m343 205-3 8 1 4v1h-2c-1-2 2-12 3-15h1z" style="fill:#65523b"/><path d="m329 174 4 5v1l4 4q1 1-1 1l-4-2q1-2-1-3l-3-4zq0-1 0 0" style="fill:#62643a"/><path d="M340 163v3l-1 1-1-3v-1l-1 8-1-1v-1l-1-3 2-6 1-1z" style="fill:#878a5a"/><path d="m385 135 2 1h5l-6 2-6 2v-1q0-2 2-2l1-1z" style="fill:#6d6d43"/><path d="m250 138 2 1 1 12 3 2 1 2q1 4 5 5v2l7-1 1-1h2l1-2h2l1-2q0-2 2-1l-5 6-1 2-5 1-1-1h-5c-2-1-1-5-4-3q1-3-2-4v-1q-3-1-2-5h-2v-6l-2-4z" style="fill:#ac894f"/><path d="M324 169c0 3 0 1 1 2q3 3 4 7s4 2 2 4l-5-6q1-2-1-3z" style="fill:#858657"/><path d="m334 190 1 2v2l1 3v1q1 0 0 0l-1-1-4-6-1-4z" style="fill:#848557"/><path d="M274 327q2 0 0 0 2 0 1 1v3q2 0 1 2v3q2 3 0 5v2h-1l-2-15zl-1-1 1-1q-1-1 0 0z" class="st331"/><path d="m320 216 1 1 4 5 1-2 1 2-2 2-1 2z" style="fill:#888b59"/><path d="M272 187h1v-1q3-5 5 1h-3 3z" style="fill:#d7b781"/><path d="M339 167v-5l1 2v-2l1 4v4h-2z" style="fill:#949867"/><path d="M351 195h2l-3 4v-1h-1q-1 2-3 1l1-3q2-2 4-1" style="fill:#898b5f"/><path d="M338 449h-30z" class="st694"/><path d="M98 400v2q0-3 2-1c1 1-1 16-2 17v-1l1-13q0-2-1 1z" style="fill:#45413e"/><path d="m243 307 15 5v1l-6-2-3-1z" style="fill:#1f1e1e"/><path d="m350 139-1 5h-1v7q0 3-2 2v-8l1-1 1-5zq2 0 1 1" style="fill:#996"/><path d="M396 153c0 2-6 1-7 0v-1l2-2z" style="fill:#67693e"/><path d="m331 171 3-1v-2l1 6v-2h1v4q1 1 0 0zm-33 134v-16l1-2z" class="st185"/><path d="M361 166q-1 4-3 4l-1 2-1 1-1 2-3 6 4-8v-3l1-3 1-1h1l1-2v1l2-1q1 2-1 2" style="fill:#a39077"/><path d="M72 343q0 1 0 0l-3-16 1 1z" style="fill:#2b2826"/><path d="M320 216v1q3 4 3 10l-1 1-1-3h1c0-4-4-7-3-10z" style="fill:#7c7f4f"/><path d="M366 131v18l-2-3c3-6 0-12 1-18z" style="fill:#6b6f41"/><path d="M115 249h-10l-3 1-3-1 3-1z" class="st550"/><path d="M349 144v16l-3-5 2-9zq0-1 0 0" style="fill:#78794a"/><path d="M350 153q2 5 0 9v-1q-2-5-1-10v-7q2 4 1 8" style="fill:#5d5f34"/><path d="M348 139c1 4-3 7-2 12v-6 6q-2-6 2-12" style="fill:#a8a775"/><path d="m358 150-2 5v-1l1-3-2 2q-2-1-1-2v-3q3 0 4 2" style="fill:#897c52"/><path d="m270 128-3 1-2 3-1-1q-2 1-3-1z" class="st263"/><path d="m367 139 1 2v10l-2-2 1-11z" style="fill:#51552c"/><path d="m354 145-1 4q0 3-2 5l-1-7 3-4z" style="fill:#5b5f36"/><path d="M102 250h7l-15 1h-2l2-1h6z" style="fill:#262423"/><path d="m362 189-2 7h-2q-1 3-1 0l1-3 3-3z" style="fill:#919364"/><path d="M395 114q1 5-1 9l-1 1h-1l-2 3q-1-1 2-3l2-2z" style="fill:#6f7347"/><path d="m334 190 2 1q5 4 0 4l-1-1-3-4z" style="fill:#8f9162"/><path d="M392 137q3-1 4 2l-6 1-5 1v-1l4-2z" style="fill:#96986a"/><path d="M115 249h14l3 1h4-27q0 1 0 0v-1z" class="st219"/><path d="m350 199-7 7v-2h1q2-4 5-6z" style="fill:#828458"/><path d="m378 159 1-2 6 1-3 1h2-7z" class="st582"/><path d="M290 172v4l1 1-2 3-1-8z" style="fill:#b2915e"/><path d="m367 138-1 11v-11q-2-4 0-7z" style="fill:#5e6136"/><path d="m356 160 1 6v1l-2 2h-1v-9h1l1-3z" style="fill:#5f5f36"/><path d="M354 148v3l-2 3q-1 2-1 0 3-3 1-5l2-4z" style="fill:#565b35"/><path d="m449 324 2-1v-1h-3l-2-1h-4 8l4 1v1z" class="st128"/><path d="m376 166 4 2c1 2-3 0-4 0q1-1-2-1v-1z" style="fill:#606339"/><path d="m443 137-2 1-3-4 2-1z" style="fill:#a2814c"/><path d="M82 253v-18l1-7z" class="st13"/><path d="m424 117-11-11q2-1 2 1l9 9z" style="fill:#a58651"/><path d="M378 121v3q-1 1 0 0v4l-1 4q-1 1-1-1l-1-2 1-5v-2l1-1z" style="fill:#848456"/><path d="M329 243v-1h1l-1 4-3-1 1-5z" style="fill:#a4907a"/><path d="M354 143q0 3-2 4h-1v-2l1-4 1-1z" style="fill:#6f7349"/><path d="M390 133h3l1 1q-3 2-7 1l1-1z" style="fill:#8e9162"/><path d="M262 172h2l-1 6q-2-3-1-6" style="fill:#ceaf7d"/><path d="m357 206-2 2-5 5h-1v-1l1-2z" style="fill:#b09c84"/><path d="m212 293 2 1 1 1q1 1-1 1l-4-3-3-3v-2q3 1 5 4" style="fill:#272525"/><path d="M393 124q-2 6-8 9-2-1 0-3 2 2 4-1z" style="fill:#585d35"/><path d="M327 235q0 2 2 2v1l-1 4-1-2-1-6z" style="fill:#ac9882"/><path d="m456 329-2 4v-6z" class="st128"/><path d="M348 144q1 5-1 11h-1v-2h1z" style="fill:#8c8d5a"/><path d="M162 254c2-2 4 1 6 0v2z" class="st169"/><path d="m338 192 1 4q0 3-2 1l-2-2v-2l3 1-2-3z" class="st243"/><path d="m382 136-2 2-3 3-1-1 1-1 2-2 2-3v-1z" style="fill:#a79075"/><path d="M376 124q-2 4-2 9h-1q-1-6 3-11z" style="fill:#a7a87b"/><path d="m359 198 1 2h1l-1 2h-1q-2 0-2 3v1h-1v-3l1-4q1-1 1 1l1-1z" style="fill:#686b43"/><path d="M385 139q0 2-2 3h-4q1-3 5-3z" class="st582"/><path d="m378 214 3 1h-9l2-1z" class="st691"/><path d="M396 153v2h-5l-3-1 1-1z" style="fill:#4c502b"/><path d="M207 288h1l4 4v1l-5-4z" class="st415"/><path d="m352 139 1 1-2 6-1-1 1-6q1-2 1 0" style="fill:#7d8056"/><path d="M291 172q1 2-1 5v-5z" style="fill:#dfc495"/><path d="m327 169 2 4v1q-3-3-4-7z" style="fill:#8c8d5e"/><path d="M338 184h2l2 3h-1l-4-2zq-1-1 0 0" style="fill:#545332"/><path d="M369 198v4l1 1q-2 0-3-2v-1z" class="st716"/><path d="m364 168 1 1-2 1-4 2-1-1 1-1z" style="fill:#7c7d53"/><path d="m397 133 1 6h-2l-4-2h3l2-3z" style="fill:#6d6342"/><path d="m350 162-1-2q-2-4 0-8v5q2 2 0 5" class="st625"/><path d="m365 202 1 1h-1v1h3l-5 1h-2l2-2z" class="st716"/><path d="m370 153-1 3v1h2v1h-5z" style="fill:#7e684b"/><path d="m375 205 2 1 1 2h-2z" style="fill:#898b5a"/><path d="m343 188 2 4v1q-2 1-2 3v-5zq1-2 1 0" style="fill:#a69179"/><path d="M331 191q0 2 1 1l3 5q-4-1-4-6" style="fill:#9c9c6d"/><path d="M389 138v1l-4 2h-2l2-2z" style="fill:#8c8f62"/><path d="m145 251 5-1 1 1-1 1z" class="st173"/><path d="m352 139-1 6v-7l1-1z" style="fill:#87895f"/><path d="M337 197v-2l1 2 1-1v5h-1v-1z" class="st519"/><path d="m328 233 1 3 1-2 1 1-1 2-2 1-1-3z" style="fill:#877357"/><path d="M350 213q-1 2-3 2-2 1-1-1l5-4q1 1-1 3" style="fill:#c4b29e"/><path d="M321 248c1-1 0 3 1 3l-1 5z" style="fill:#a07c43"/><path d="M335 224h-1l1-7z" style="fill:#b4a089"/><path d="m370 195-1 2h-1l-1 2-1 1q-4 2-1-2l2-1 1-1z" style="fill:#ab967b"/><path d="M378 121v6l-1 1v-7" class="st297"/><path d="m396 139-7 1q2-3 6-1" style="fill:#a2a478"/><path d="M244 166v-10z" style="fill:#8d692d"/><path d="M392 446h-11z" class="st478"/><path d="m360 196-1 1v1l-1-1q0 4-2 2l1-3v1l1-1z" style="fill:#878859"/><path d="m368 199-1 1v1l-2 1-2 1q-1-1 1-1v-1l2-1 1-1q0-1 0 0" style="fill:#7d664e"/><path d="m464 312 1 2-1 3-1-3z" style="fill:#ae8e5b"/><path d="M325 173q2 0 2 4h-1z" style="fill:#989867"/><path d="M225 302h-1q-3 1-5-2v-1z" style="fill:#282626"/><path d="m344 218 1-1v-1l3-1 2-2h1c-1 1-5 6-6 5z" class="st135"/><path d="M331 235q0 1 0 0l3-6z" style="fill:#ae9d89"/><path d="M278 125v3h-3v-2z" style="fill:#856c3d"/><path d="M67 277v9h-1v-12z" class="st485"/><path d="M353 195h-2q-1-1 1-2l1-1z" style="fill:#858a60"/><path d="M94 250h-2q2-2 5-1l-1 1z" class="st550"/><path d="m368 158-1 1-3 4h-1l4-5z" style="fill:#6c5840"/><path d="M340 198v5h-1l-1-3 1-3z" style="fill:#6c6c44"/><path d="M359 199v1q-2 0-1-1-2 1-2 4v-4q2 0 2-2z" style="fill:#75774c"/><path d="m151 252 4-1v1l-1 1z" class="st173"/><path d="M309 167v-7z" class="st634"/><path d="M299 302v-11z" class="st191"/><path d="M75 356v1l-1-5q0-1 0 0 3 1 1 4" style="fill:#1b1a18"/><path d="m356 161 2 1v3c-2 1-2-3-2-4" style="fill:#5e6135"/><path d="M66 299v-11z" class="st734"/><path d="M243 307q-2 1-5-2h1z" style="fill:#31302f"/><path d="m343 187-1-1h1v-1q0-2 1-1z" style="fill:#756545"/><path d="m169 256 3-1-1 2z" class="st169"/><path d="m337 160-1 4v-1 6q-2-5 1-9" class="st275"/><path d="M393 446h3q0-1 0 0h1l-4 1h-2l1-1z" class="st478"/><path d="M92 251h2q-1 3-4 1l-1-1z" style="fill:#343230"/><path d="m358 193 3-3q0 2-3 3" style="fill:#bfc098"/><path d="M369 197v1l-2 2 1-1v-2zq1-1 0 0" style="fill:#6f573f"/><path d="M123 249h-8z" class="st94"/><path d="M66 286v-8z" style="fill:#0e0f0d"/><path d="M337 210q2 2-1 5z" style="fill:#bba68f"/><path d="m212 294 1-1 2 1-1 1z" class="st415"/><path d="m369 197 1-2v-1q3 2-1 3" style="fill:#9e8a70"/><path d="m228 303 3 1q1 1-1 1h-1zq-1-1 1-1" style="fill:#2a2726"/><path d="M371 299h-5l-1 1-1-1 1-1z" style="fill:#826130"/><path d="m74 349-1-3 1-1q2 1 1 4" style="fill:#090806"/><path d="m379 138-2 3v-1z" class="st127"/><path d="m252 171-8-1z" class="st651"/><path d="m228 303-1 1q-2 1-3-2h1z" style="fill:#3c3a39"/><path d="m299 290 1-7z" class="st191"/><path d="m235 305-1-1q2-1 3 1zl2 1z" class="st173"/><path d="m76 360-1-2v-2q3 1 1 4" style="fill:#242522"/><path d="M372 298h-7z" class="st430"/><path d="M347 215q-1 2-3 1z" style="fill:#c4b3a0"/><path d="M380 132v-6z" class="st127"/><path d="M219 299q-2 1-3-2h1z" style="fill:#343231"/><path d="M369 151q1 0 0 0 0 3-1 2v-3q1-1 1 1" class="st132"/><path d="m457 327 1-3z" class="st61"/><path d="m336 195 1 2 1 2v1l-1-1-1-2-1-3z" style="fill:#6e7043"/><path d="M238 306q-1 2-2 0v-1z" style="fill:#0b0809"/><path d="m234 305-1 1q-2 1-3-1l1-1z" style="fill:#302e2d"/><path d="m300 311-1-8z" class="st191"/><path d="M476 233v3-5z" style="fill:#9b7941"/><path d="m381 142-2 1q-2-1 0-1z" class="st628"/><path d="M73 345v-3q2 1 1 2" style="fill:#040202"/><path d="m74 351-1-2h1z" style="fill:#373634"/><path d="M217 298q-2 1-2-1l1-1z" style="fill:#272625"/><path d="M386 129q0 2-1 1v3l-1 1h-1v-2q1-4 4-6c1 0 0 4-1 3" style="fill:#77774a"/><path d="M234 305h1v1q-1 2-2-1z" style="fill:#0c0b0b"/><path d="M274 128h-4z" class="st237"/><path d="M232 303h-2v-1z" class="st173"/><path d="m67 306-1-4z" class="st549"/><path d="m132 250-3-1z" class="st129"/><path d="M382 134h-1l-1-1z" class="st127"/><path d="m383 135-1 1q-1 1 0 0v-2z" style="fill:#6c543b"/><path d="M340 204v2l-1-1z" style="fill:#b19d84"/><path d="m377 206-1-1z" class="st327"/><path d="m384 134-1 1h-1z" style="fill:#59482c"/><path d="M336 170v2-3l1-3z" class="st275"/><path d="m337 199-1-1v-1z" class="st243"/><path d="M383 131v-3z" class="st127"/><path d="M100 250h-2z" class="st550"/><path d="M67 311v-3z" class="st549"/><path d="M226 301h-1l-1-1zm3 1h-2z" class="st173"/><path d="M359 166v-1q-2 0 0-1z" style="fill:#cfc9b9"/><path d="m68 315-1-2zm0 4-1-2z" class="st0"/><path d="M140 250h-3z" class="st219"/><path d="M68 323v-2z" class="st180"/><path d="m274 324-1-1h1z" class="st61"/><path d="M371 204h-3z" class="st716"/><path d="m69 326-1-2z" style="fill:#32312e"/><path d="M281 128h-2z" class="st237"/><path d="M274 327h179v94q0 1 0 0v-92l-1-1z" style="fill:#0b0a0a"/><path d="M428 321h1l19 1v1l-5 1h-1l-54 1v-1h40l3-1v-1l-4-1z" style="fill:#e9e7e5"/><path d="M92 434q2 0 1 1zH82l-3 1-1-1-1 1 9 3q33 5 68 6l107 2q102 1 202-9h2v1l-42 5h-10l-2 1h-16l-2 1h-23l-2 1-73 2q-60 1-120-2-42-1-84-6l-14-2-5-2v-2z" class="st617"/><path d="m371 446 2 1q-18 0-35 2h-44l74-2z" class="st17"/><path d="M94 431c0 1 0 5-2 3v-1l1-4z" class="st497"/><path d="m334 268-1 3q0 4-3 7v5q0 2-2 2v7l-1 6v3l-2 6q1 3-3 4l-1 1-4-1v1c-3-2-2-6-5-8l1-1-1-1v-2l5 4q0 2 2 2 2-1 1-2c3 1 2-3 2-3l1-1v-2l1-1s-1-5 1-5l-1-1v-2q-1-1 1-3h-1l3-5v-2l5-11z" style="fill:#aa874f"/><path d="M314 282v-3c-3 1-1-1-2-3v-5q-3-3-1-7l4-4c4 0 10-3 14 1l1 2 1 1-1 2 1 1v3h-2l1 1-2 2h-1q-2-1 0-3l1-1q2-2-1-5-1-5-6-3l-4 1q-6 1-4 7v1q1 2-1 3l2 3v2q4 1 2 3l-1 1q2 3-1 2z" style="fill:#b9965d"/><path d="m314 284 3 8q-2 6 3 2l1-4v-1l2 1-2 8-3 1h2v3h-3l-2-5h-1l-1-8h-1 1q-1-2 1-2l-2-3 1-2z" style="fill:#b59259"/><path d="m328 273-1 2-1 6-2-1q-1 3 1 2l-1 1-1 2v3l-1 1-1 3 1 1h-1v1q-2 3-2-1 3-6 3-12l1-2 3-5q-1-1 1-1z" style="fill:#b7935a"/><path d="M329 320h1l6-2c2 2 6-3 6-4q-2-2 1-3 0-5 2-9-1-3 1-4l-1-2q2-3 0-6l1-5 1-2q-2-4 0-5l4-8 2 2q4 1 2 6l2 2 2 17 2 16q2 2-1 2v-1q-3 0-1-2l-1-3-1-3-1-13q0-2-2-3-3-2-1 0l-1 3q-2 2-1 5-2 3-1 6l-2 4q1 4-1 6v2c-1 3-16 7-19 6h-1l-15 1h-1q-3-1 0-2l4-1z" class="st80"/><path d="m329 320 5-2h1l3-2 1-4 2-2-2-2 2-2-1-2h2l1-3v-6l1-6 2-12-1-5q2 0 2-2h1l1-2 5 1c-1 3 4 3 3 6l1 4 2 10-1 1v7-6l-1-4-1-2c2-3-2-5-2-7-1-1 2-5-3-5v-2h-1l-1 4-2 2v2l-1 1 1 3-2 3 1 2-1 2 1 1v4h-1l1 4h-1v2l-2 6v5l-1-1c-3 2 1 1 0 4l-6 4h-2l-5 2z" style="fill:#816233"/><path d="m358 273 1 7 1 1 1 16v7l1-1v5l-1-2q-2-2-1-6v-10h-1l-1-11v-1z" class="st703"/><path d="M315 319q-1 2 1 1h10l-4 2-2-1h-4l-6 1 1 1-3-1c-1-2 6-4 7-3" style="fill:#846636"/><path d="M322 319h-5z" class="st191"/><path d="M426 299h5zl-2 5h-5l-1 1-9 6-6 1h-6l-2 1-3-1-9-1v-2l-6-2-1-2q-4 0-4-6l3 1q11 13 29 9 2-2 4-1 4-1 6-4 3-1 3-3l2-2z" class="st430"/><path d="M418 299h1v1l-4 3-6 6h-3l-1 1h-18l-7-4-6-6-2-1h5q2 4 5 5 6 6 15 3 1 2 2 0 6 2 11-4 2 0 2-2l1-2z" style="fill:#a28049"/><path d="m366 300 4-1 1 3 3 5 9 5 3 1h2l1 1q3-1 5 1 3-2 7-1h7q2-2 3-1l-10 2-2 1-2-1h-1l-13-1c-5-1-3-2-6-4l-3-2h-2l-3-8-3 1z" style="fill:#896a38"/><path d="m438 299-3 2-3 2-2 3-4 1-2 3-5 2-1-1-1 1-3 1h-2l5-2 3-3h2l7-4q-1-2 2-2c0-4 4-2 6-3" class="st703"/><path d="M444 299h-13z" style="fill:#7c5d2a"/><path d="M426 299h-7v3h-1v1l-4 2-4 4h-2v-1l4-2 2-4 5-3z" style="fill:#9e7b46"/><path d="M378 299h-5v-1z" class="st430"/><path d="m368 308 1 2q2 1 1 3 0 3 4 4h1l1 1c3 3-2 3-4 3h-12q-2 0-1-2-1-1 0 0l3-8q-2 0 0-1l1 2 1-4z" class="st744"/><path d="m410 316 4-1 9-3 11-7 4-2 1-1 2-3 2 1-2 4v1l-1 2q0 3-2 3-5-2-8 1l-3 1c-1 2-15 6-15 5v-1z" style="fill:#7b5e2f"/><path d="M369 310q5 0 9 4l1-1v2h5q12 2 26 1h2v1l-21 1h-3l-9-1-4-1q-1-4-4-3h-1z" style="fill:#7a5d2f"/><path d="m442 306-8 10q-3-3-8 1h-9l-1-1 8-2 9-5h2l3 1 1-1v-2l2-2 1-1z" class="st602"/><path d="M366 302c2 0 3 5 0 5z" style="fill:#785c30"/><path d="M272 128h5l2 3 6 2c0 3 4 5 2 7l1 1-2 1-3 8-3 3-2 3h-2l4-5 3-3 2-5q2-3-1-5l-2-4-6-3c-1-1-5 0-4-3" class="st237"/><path d="M304 155q-2 1-4-2-6 4-9 10l-1 1-2 7-1 4-1-3h-13v-1h13l-4-1q2 1 3-2v-1l1-2 1-4 4-3c1-1 1-5 3-4v-1c1-1 6-6 8-5v3z" class="st278"/><path d="m294 146-1 1q1 2-1 2l-1 2-2 2v2q-2 0-3 2l-2 2q-2 2 0 3l-2 2q-2 2-2 7h-2l1-7 2-2 11-14q0-2 2-2" style="fill:#987741"/><path d="m253 156 3 4 1 2h2l1 3h3l2 3q-1 3-3 2 0-3-3-4h-2v-3l-3-3v-2l-2-1z" style="fill:#a28149"/><path d="M266 171v6l4-1q7-1 12 4l4 3-4-2q-5-6-13-4-2 2-4 1z" style="fill:#a17f49"/><path d="M245 171a6 6 0 0 1 7 0h3zv-1z" style="fill:#8a6833"/><path d="M273 171h-7v-1z" class="st430"/><path d="M280 171h2z" class="st125"/><path d="m335 246-1 2-1 8h6l2 2q2 2 0 3 2 3-1 5l-2 5q1 2-1 4 2 3-1 4l1 1-3 5q1 4-1 8 2 3-1 7 2 4-1 7l-1 5h-1l-2 4-3 1h-5l1-1q-3-1 0-2 5 1 6-5l1-5 1-1q-1-8 3-15l1-8q-1-3 2-6 0-4 3-9v-1c3-3-3-7-6-7l1-4h-1c0-2 0-7 3-7z" style="fill:#9d7a44"/><path d="M301 281q2 0 2 2l1 2-1 4 1 2v4l2 11v3q4 3 3 8l2 1 2-1 2 1-1 1 2-1v1h-1q-3 0-7 3-1 1 0 0l-2-2 1-1 1-2-3-8-1-1h-2q3 2-1 3v-1q-2-14 0-29" class="st191"/><path d="m342 255 4 2 4 3q1 2-2 1l-6 4-2 7-1 1v4l-2 2-1 8-1 2-1-4v-2s3-3 1-4l2-2v-1q2-3 0-6h1v-2h1l-1-1c2-1 0-2 3-3l-1-1h1l-1-3h2l-3-4z" style="fill:#977640"/><path d="m335 289 1 1-1 3 1 3-3 4 2 2q-2 1-1 3l-2 3q-2 1 1 4h-2l-3 4h-1l2-4 1-4v-2q2 0 2-3l-1-3 2-5-1-2 2-5v-4z" style="fill:#98763f"/><path d="M327 316h-1v1l-3 1-3-1 4-1zl-1-1 4-3z" class="st199"/><path d="M266 133q5-2 9 1c2 2 8 6 5 9q0 4-3 6l-4 5-7 3-5-1-2-2-1-1-1-3q-2-1-2-6 1-9 11-11" style="fill:#bf9b60"/><path d="M266 133q3-3 4-1l2-1v1l5 3 3 3 2 2-1 2h1c-3 1-1 2-2 3l-2 4h1l-3 3-3 4-7 2-5-1v-2q-3 1-2-1 6 4 10 1h2l2-2 1-2 2-1c-2 0 1-2 1-2v-1c3 0 1-2 2-3l1-1v-3l-2-2-3-2-2-2z" style="fill:#bb975c"/><path d="M332 254v3h2l1 2h2q0 2 2 2l-1 3-3 7 1 3-2 2-2 3 1 2-2 6v3l-2 7v8l-1-1h-1q2 3-1 6h2l-2 2c-1 1 1 2-2 2v2l-2-1-1 1-2-1 1 1h-1c-1 1-6-1-6-2l-2-10v-1l2 2v2h1l1 3-2 1 2 1q1 4 5 1l2 1 1-1q2-1 1-3l-2 2v-2h1l1-2 1 1v-2l2-6-1-3q2 1 1-2l1-1-1-2h2q-2-3-1-4v-4l2-2v-6l2-2 2-4 2-8q0-3-5-4l-1-1z" style="fill:#a37f48"/><path d="m309 287 1 5-1 1 1 6v2l1 1v1l1 8 1 1v1l3 3 1-1 2 1-1 1-6-1v-1l-2-11-2-5v-6h-1l1-3h-1l1-3q0-2 1 0" style="fill:#a07e47"/><path d="m308 284 2 2h-1v1h-1z" class="st557"/><path d="M288 171h-1l1-2 1-6 2-1 1-2 2-3 6-5 2 3h2l2 6 2 2v8h-1q0-6-4-10l-2-4c-1 0-8 6-8 8q-3 2 0 5v1h-2z" style="fill:#8b6b38"/><path d="M293 171h15-17z" style="fill:#7b5b28"/><path d="m474 435 4 1 1 1h-2q-24 5-49 6l37-4v-1l6-2-2-1-15-1v-1l2 1h18" class="st617"/><path d="M428 443q-6 2-13 2l-19 1h-4l-11 1h-7v-1h11l2-1h24l2-1h10l3-1z" class="st17"/><path d="M465 439q-34 4-68 5-121 7-244 1-31-1-63-5l-15-4c-1-1 3 0 3-1l2 2h1l3 1q0-2 1 0h3l4 1h3l4 1h4l3 1h9l4 1h6l3 1h9l5 1h8l7 1h28l10 1h12l22 1h47l35-1h23q60-2 120-8h1l12-2-3-1h-10v-1l13 1 6 1v1z" style="fill:#e8e7e5"/><path d="m454 434 15 1q0 2-2 2l-13 1q-59 6-120 7l-16 1h-56v-1h77l19-1q0-1 0 0l13-1 75-5h8q3-2 7-2l-7-1h-1z" style="fill:#dddad8"/><path d="M453 422v13h-1v-13z" style="fill:#2e2d2b"/><path d="M334 246q-3 2-2 6v2l-1 4h2v1q3-1 4 3l-1 2 1 1-2 2 1 1q-2 1-1 3h-1v-4l1-1-1-1q2-3-1-4 0-2-2-1l-2-2v-1l-5-1h7v-9z" class="st164"/><path d="M340 246q-2 2-1 6v2l1 2h-5v-6l2-4z" style="fill:#826434"/><path d="m322 246 3 2v8h-1q0-6-2-10" style="fill:#c29e67"/><path d="m333 245-1 1h-1v-1h1z" class="st164"/><path d="m357 320 18 1h6l2 1-1 1 20 1 22-1 2 1h2-75q-1 0 0 0h3l3-1h1q3 0 1-1h-1l-3-1z" style="fill:#cbc5c1"/><path d="m308 322 3 1h7l35 1-46-1q-2 0-1-1z" style="fill:#c7c3bf"/><path d="M380 299h5l4 3 2-1q2 2 4 0v1q1-3 3-2v-1q5 1 10-1 1 2-2 2-4 6-11 5-9 0-15-6-2 1 0-1" style="fill:#bc9a60"/><path d="M411 299q2 1-2 1l-6 6h-13l-3-1-6-3q-2-1-1-3l4 2q2 0 2 2 7 3 15 0l4-4h3z" style="fill:#b69359"/><path d="M412 299q3 1 0 1l-2 3q-4 6-11 4h-2q-2 2-3 1c-1 0-7 0-7-2v-1h3l4 2v-1h9l5-5v-1l3-1z" style="fill:#af8b52"/><path d="M413 299h4q-5 1-5 4-3 1-6 5l-5 1-2-1-2 1q0-2-1-1v1h-3l-9-3-3-1v-1h-1q-3-2-3-5 2-1 3 2l7 5h3v1q2-1 3 1 2-2 2 0 1-2 2 0l1-1q4 1 8-2l1-1h2v-3h2z" style="fill:#aa874e"/><path d="M380 299q-1 0 0 0l7 6v1l-5-3-2-1q0-2-3-3h-2l3-1z" style="fill:#ae8c53"/><path d="m342 220-1 1-5 7-5 17v1h-1l1-4 1-6 1-4 1-2c1-2 4-8 6-9z" style="fill:#968068"/><path d="m332 236 1-4z" class="st257"/><path d="m335 224-1 3v-3z" style="fill:#9e866c"/><path d="m331 235-1 3v-1z" class="st257"/><path d="M340 201v1-3z" class="st519"/><path d="m330 243-1 2-1-2z" class="st257"/><path d="M356 208q1 0 0 0l-6 6q-4 5-9 7l1-1 2-2q4-1 6-5l5-5z" style="fill:#8a745d"/><path d="M332 245q1-9 5-17z" style="fill:#7b664e"/><path d="m363 203-2 2-1 2-4 1 2-2z" style="fill:#715c43"/><path d="M374 446h-1l-2-1z" class="st617"/><path d="M245 171v-5l1-1q-1-2 1-2l3 2 1-1 1 4h-1l1 3z" style="fill:#8b6c3a"/><path d="M102 394q-2 0 1 4c1 7-3 24-6 31l-2 5h-1v-1h-1 2v-3l1-2 3-11v-2q3-8 2-14l-2-2v2-2l1-5-1-1z" style="fill:#3e3a37"/><path d="M375 152q3 3 7 0c4-3 6 1 7 0v2h-5l-9 2-2-2z" class="st434"/><path d="M386 138h-1l-6 3v2l-3 2 1-3 3-3z" style="fill:#5f5d33"/><path d="m373 154 3 1h-1l-2 1q-2 1-2-1z" style="fill:#53552e"/><path d="m375 140 1 2v-1l1 1-1 3-2 4q-2 0-1-1v-1l2-5z" class="st628"/><path d="m374 149-2 3h-2l2-3 1-1z" style="fill:#846e55"/><path d="m372 152-3 3 1-2v-1z" style="fill:#705e44"/><path d="M388 149h-5z" style="fill:#828757"/><path d="M371 157h-3l1-1h1q2 0 0 1" style="fill:#9a916c"/><path d="m373 156-3 1v-1h1z" class="st434"/><path d="M266 172q0 4 4 3l8 1h1l5 2q1 1 2-2v-1q1 3-1 5h-2l-10-4-8 1z" style="fill:#906f3b"/><path d="M343 204q-3 7-4 15h2l-3 1v-6q5-16 14-33l3-6-6 15z" style="fill:#806c53"/><path d="M121 250h12l22 4q15 3 28 9v1h-1q-4-2-9-2l-2-3-5-1q-1 1-1-1h-8v-1l-19-2h-3l-2-1h-10l-8-1-1 1-11 1c-12 1-25 3-31 13l-1 1-1 2v2q1 2-1 0-1-6 2-10 7-9 19-10l4-1 15-1h7z" style="fill:#ede9e4"/><path d="M142 254q8-1 16 3h7l1 2h5l3 1v1l9 2q2 3 6 3l7 7 1 2q-1 2-4-1-11-9-23-13l-7-2-16-3-8-2z" class="st342"/><path d="m183 263 6 4h-4l-2-3z" class="st293"/><path d="m350 198-6 6q0-3 2-5v-1l1 1 3-3z" style="fill:#737349"/><path d="M361 166q2-2 1 1 0 2-3 3l-1 1v-1z" style="fill:#5d5237"/><path d="m352 193-1 2-4 1 1-2v1z" style="fill:#9a9c6e"/><path d="m356 173 1-1z" style="fill:#937f65"/><path d="m350 139 1-1q-2 4-1 7v2l1 7v1l1-1v2l3-3q1 4-3 4v-1 2q2 2 0 2l-2-7-1-8v-6" style="fill:#7b7d4e"/><path d="m352 158 2-1v1l-1 5v1l1 4h-1l-2-8z" class="st288"/><path d="M355 160v3l-1 1-1-4 2-1z" style="fill:#52522d"/><path d="m356 161 1 3h1v3h-1q-1 0 0 0l-1-1v-6z" style="fill:#575731"/><path d="m68 271 1 2v3l1 2-3 3 1 1-1 8v5q3 1 1 2v3l1 19h1c1 1 1 5-1 4v-5l-1-2v-7l-1-3v-35q1-2 1 0" style="fill:#ede9e5"/><path d="M71 272q1 3-1 2h-1v-2zq1-1 0 0" class="st313"/><path d="M67 280v-5q0-1 0 0z" class="st408"/><path d="m68 271 1-2z" style="fill:#bbb6b1"/><path d="M67 275v-2z" class="st485"/><path d="M389 122q0 3-2 4l-4 6v-4l2-1 4-7z" style="fill:#63663b"/><path d="M389 124v2l1 1-1 2q-3 3-3 0l1-3 2-4z" style="fill:#6c7042"/><path d="M394 116q0 4-3 7c-2 0 2-7 3-7" style="fill:#8e9161"/><path d="M389 124v1l3-1-2 3-3 2z" style="fill:#767a4b"/><path d="m434 316-5 4-4 1-5-2-10 1v-1q-1 0 0 0l4-2h2l3-1q2 1 4-1c3 3 3-1 6-1q4-1 5 2" style="fill:#6b5127"/><path d="m410 320 11-2 4 1v2l4-1-1 1h-1l-1 1h-2q-3-3-7-1l-34 1-1-1-4-1q-2 0-1-1-1-2 2-1l3 1h11z" style="fill:#654c24"/><path d="M453 421H276l-1 1q-1 1-3-1v-1h181" style="fill:#191919"/><path d="m340 177 2 4v-3 1l2-2v4l-1 3v1l-1 1-1-3q-2 0-1-2z" style="fill:#4d502c"/><path d="M339 170v1l1 9h-1q-1 1-1-1-2 0-1-1v-2l1-8h1z" style="fill:#626539"/><path d="M340 177v4q-2 1-1-1v-9z" style="fill:#55572e"/><path d="m370 149-1 2-1-1v-5l1-2v3c4-1 1-7 3-10q1 7-2 13" style="fill:#50542b"/><path d="M375 129v7h-1v-7zl1-4z" class="st126"/><path d="M376 131v3h-1v4l-1-2 1-7 1-2z" class="st204"/><path d="m375 142 2 1-4 5-1 1h-1q3-3 4-7" style="fill:#b29e89"/><path d="m372 149-2 3v1h-1v-1l2-2z" style="fill:#9e886e"/><path d="m371 150-2 2v-1z" style="fill:#ccc1ac"/><path d="M347 186q1-1 0 0l-1 2q0 2 0 0c-3-3-1-7 1-2" style="fill:#81684e"/><path d="m343 187 1 3 2-2-1 4h-1z" style="fill:#8b735b"/><path d="M354 169h1v2h-2z" style="fill:#866d4a"/><path d="M347 187v-1l1-2v1z" class="st355"/><path d="M355 169q2 0 0 1z" class="st288"/><path d="M368 150v-5z" style="fill:#666d41"/><path d="M85 384c-3-4-8-19-8-24v-7q-5-20-6-41v-1h1l4 32q6 20 10 41z" class="st238"/><path d="m71 311 3 28 3 15 1 4-1-1v3h-1l-1-4-1-5v-2l-1-4-1-2-3-17v-3l1-4v-8z" class="st408"/><path d="M71 283q2 3 0 4a345 345 0 0 0 10 75l5 20 1 3 2 1 4 4 8 3h3q0-1 0 0 1 0 0 0h-5q-7 1-11-4l-3-5-2-12-7-29-5-32v-1l-1-24v-6q3 1 1 3" style="fill:#ddd6d1"/><path d="M99 393h-1q-7 0-11-5h1q5 4 11 4" style="fill:#272423"/><path d="m99 394 8-1 2 1h22v1h-23q1 2-1 2h-1l-2-3h-6z" style="fill:#21201e"/><path d="M397 134v4l-1-1h-1v-2h-1z" style="fill:#7a6a4e"/><path d="m379 127-1 7-1 1-1 2v-3l2-6z" class="st204"/><path d="M376 135v-4 1h1q-1-2 1-4z" class="st297"/><path d="M375 211v2q-4 1-6-3z" style="fill:#8b8e5d"/><path d="m365 167-5 2 3-3q-1-2 1-1h1z" style="fill:#63653d"/><path d="M343 184v-3z" class="st677"/><path d="m364 202-5 3h-1v-1h1l1-1 4-3q1-1 1 1" style="fill:#977f66"/><path d="M357 205v-4h2l1 1z" style="fill:#625f3d"/><path d="m365 198-1 2h2v1l-3 1v-3z" class="st638"/><path d="M329 173q3 4 7 4v-1 1-1q2 0 1 2l1 1q1 2-3 0h-1l-5-5z" style="fill:#7f8053"/><path d="m328 233-1-3h1z" style="fill:#4a5222"/><path d="m367 158-3 5-1 2-1 2v-1h-2l2-2z" style="fill:#6e5c43"/><path d="M359 290h1v10q0 4 2 5v6q0 3-1 2l-1-1-1-3v-12z" class="st47"/><path d="m362 205-2 2v-1z" style="fill:#d8d4cc"/><path d="m384 154 1-1v1z" class="st409"/><path d="m262 315 7 4q2 5-2 1-2 1-1-1l-2-1q-5-3-2-3" style="fill:#ece7e3"/><path d="m269 320 4 6v1q-4 1-4-4-2-1-2-3l2 1z" class="st559"/><path d="M258 313h1q0 3-5 0l-2-1-3-1q-2-1 0-1z" style="fill:#e7e4df"/><path d="m260 313 2 2-1 1 3 2q-3 0-5-2l-5-3q3 2 6 0" class="st105"/><path d="m207 290 7 7 2 1 3 2 5 2 3 2 2 1h-1v1a30 30 0 0 1-16-8q-2 1-3-3c-3-2-13-15-13-18q0-2 2-1z" style="fill:#e8e2dc"/><path d="m197 275 1 1-1 2 8 13 4 4q-4-1-6-6h-1l-5-10-3-5 1 1z" class="st474"/><path d="M67 295q0 1 0 0v-14 3z" class="st408"/><path d="M67 300v2-7z" class="st734"/><path d="M68 304h-1v-4z" class="st408"/><path d="M68 306v2l-1-4h1z" class="st549"/><path d="M68 309v-3z" class="st158"/><path d="M68 314q0 1 0 0v-3z" class="st408"/><path d="M68 311v1l-1-3h1z" style="fill:#353330"/><path d="M68 316v-2z" class="st0"/><path d="M69 318v-2z" class="st408"/><path d="m69 320-1-2h1z" style="fill:#302e2c"/><path d="M69 323v-2z" class="st180"/><path d="M452 322h-1zm-4 0-2-1z" class="st44"/><path d="m334 179 3 1q1 2 1 0l1 1 1 1 1 2h-1l-3-2q-1-2-2-1t-1-1z" style="fill:#7b7a4f"/><path d="m335 180 3 4-5-4 1-1z" style="fill:#4b4c27"/><path d="m338 164-1 11v-1l-1-2v-2l1 1zl1-2z" style="fill:#7a7b4d"/><path d="M339 167v1q-2 5 0 10h-2q1-2-1-2v-2h1l1-10z" style="fill:#6c6e41"/><path d="M382 137v1h-1z" style="fill:#a39a7e"/><path d="M274 327h179v94H272v1q2 1 1 3 2 3 1 5l-1 3q2 5-2 3l-4-12q-1 1-1-2h-2v-1l2-1-1-4 1-1-1-4q2-2 4 1v1q3 3 3 8h179l1-1v-92z" style="fill:#45403c"/><path d="M221 306q1 2 4 1h1l2 2q-2 4 3 3 1 4 6 4 0 2 3 3 1 5 7 6 2 3 6 4 2 0 2 2 3 0 4 3l6 2q1 3 2 0l-1-13 2-1 1 1q1 4 4 4l-2 1v1l-2 10-3 1h-3l-2-2q-5 1-7-3l-5-3q-4 1-5-2l-2-1-5-5q-5-1-7-5l-5-3q0-4-5-3l-6-4v-7z" class="st147"/><path d="M452 328q0 1 0 0a27 27 0 0 1-15 0h-68v1h-10l-2-1h-51q-2 2-3 0-8 2-14 0h-11l-3 1-1-1z" style="fill:#e6e6e3"/><path d="M276 337c0-4 3 0 4 2l1 3q0 7 4 12v6q-2 3-2-3-4-2-3-6h-2l-1-6v-3z" style="fill:#a0958c"/><path d="m277 334 4 4 4 12v4h-1q-3-2-2-5l-2-8-3-5-1 1v-3z" style="fill:#a79c93"/><path d="M276 344c1 2-4 1-3-1q-2 0-1-2-2-5 2-11-2 0 0-1z" class="st626"/><path d="M273 328v2l-2 9q0 3-4 2h-1l-1-1 4-1c1-3-1-9 2-11z" class="st272"/><path d="M275 329q5 0 3 3l6 1q5-3 8 1h-17l-1-1z" style="fill:#9c9086"/><path d="M286 333h7l1 1zq-1 2-1 0l-1 1-5-1h-3l-1-2z" style="fill:#897d72"/><path d="M277 345q0 2-1 1-1 1-2-1h-1q-3 0-4-2-1-1 1-1l3 1 3 2zl1-2z" class="st319"/><path d="M273 327h-2v-1z" style="fill:#676460"/><path d="M229 305h1l3 1h4l5 2 7 2v1q1 0 0 0l-20-4-1-1v-1zh-1zm128-138-1 3h-1v-1q0-3 2-2" style="fill:#e7e3dd"/><path d="M109 249h-4z" class="st475"/><path d="m350 145-1 6v-7l1-1z" class="st625"/><path d="m355 153-2 3-1-2 2-3z" style="fill:#8c8b5a"/><path d="m389 129 1-2 2-3z" style="fill:#5e6239"/><path d="M116 250h-7z" class="st94"/><path d="M127 250h-6zm6 0h-3z" class="st129"/><path d="m378 124-1 4v-1z" style="fill:#91915d"/><path d="M386 129v1l3-1-3 2h-1v-1z" style="fill:#5d6137"/><path d="M359 198v1l-1-2 1-1z" class="st310"/><path d="M340 184q1 0 0 0l-2-1-3-4q-1-1 1-1z" style="fill:#65663d"/><path d="m342 186-2-2 1-1z" style="fill:#b4af8d"/><path d="M368 199h-1l1-2z" class="st638"/><path d="M396 446h-3z" class="st478"/><path d="m427 321 11 2h-3l-7 1h-2v-2z" style="fill:#b7b0ab"/><path d="M92 435q1 0 0 0-6 1 2 3l15 1 7 1h1l10 1q0-1 0 0h6l14 1h1q18 2 38 2h5l15 1 65-1 4 1h33l-46 1q-38 1-76-1a886 886 0 0 1-101-7h-1v-1q-5 0-2-2z" class="st425"/><path d="m92 435-11 1 3 1h-4q-3-1 2-2z" class="st650"/><path d="M93 435h2l4 1q3-2 7-1v1h-6v1l-10-1 2-2z" class="st216"/><path d="m82 435-3 1 1 1-2-1v-1z" class="st646"/><path d="m426 443-3 1zm-13 1-2 1zm-18 1h-2zm-8 1h-3zm-17 1-2 1z" class="st617"/><path d="M313 269q-3-4 1-7h2l1-1h4q2-2 3-1l3 1q-1 1 1 3v1h1q1 3-1 4v1l-2 1 1 2-1 2-3 4-1 2-1 3q1 3-2 2-4 4-3-2v-3h-1v-1l2-1h-2l-1-1v-2l-2-3zl2 5 3 4 1-2a5 5 0 0 0 5-4q3-3 3-7-3 1-2-1-2-2-4-1-5-1-7 5z" style="fill:#bd9b62"/><path d="m326 275-2 3v1l-2 2v7c-2 0 0 2-2 3l1 1q-2 1 0 2l-1 3h-3l-1-3 1-2-1-3-1-1 1-1-2-1v-2q2-2 0-2l2-1c3 1-1 3 1 5h-1l2 1v-2l2 1c2-2-2-1 0-3h1q0-4 2-4l2-4-1-1z" class="st89"/><path d="m327 265 1 2-2 4-1 1-1 1-2 4q-3-1-4 2c-1 1-2-4-2-4l-2-2-1-3v-2h1l2 4c0 2 4 1 4 1l1-1q4-2 5-5-2-3 1-2" style="fill:#c2a169"/><path d="M314 276q-2-1-2-3zm0 1q3-1 0 0" class="st89"/><path d="M327 323q1-2 4-1 5 0 6-2c1-2 4 1 4-2l1 1c1-1 7-3 4-4v-1q2-1 1-4l-1-1 4-6v-9l1-1q-1-2 1-3l-1-1v-1l2 1-1-2 3 2q2 0 2 3v7l1 10 1 3v1l1 1-1 2q-4 0-1 3l-1 1c-3 2-4-4-2-6q2-2 1-5v-3q-2-2-4 1 2 3-1 5 0 2-2 3v2q-9 9-22 5Z" style="fill:#74582b"/><path d="M327 323h7v-1l1 1q8-2 14-6 0-4 1-3v-2l2-2-1-4 2-1q0-2 2-2v1q2 2 2 5l1 2-1 1v1q-3 2-2 6l2 1v1l-1 1c2 2-2 2-4 1h-40l2-1z" style="fill:#6f5429"/><path d="M361 315q1 3-2 4v1h-2q-3-3 1-5l1 1 1-2v-1z" class="st228"/><path d="M362 311c2 3-1 4 0 7h-1v1h-2l1-4 1-2z" class="st716"/><path d="m359 313-1-3z" class="st228"/><path d="m438 310-1 2q-2-2-6-2l-1 2h-2q-2 0-3 2l-8 3h-3l-9 2h-24l-6-2q-4 0-4-4c2-3 5 1 5 3h2l5 1q1-1 2 1l6-1h19q2 1 2-1h3l5-1 8-4 7-3z" style="fill:#73572c"/><path d="m375 317 9 2 1-1q2 2 5 0h1l2 1h17v1h-28c-2 0-4-3-5-1q-1 1-1-1z" style="fill:#6b5128"/><path d="m377 319 4 2h-23l-1-1 2-1q3 2 8 1h9v-2z" class="st716"/><path d="m371 313 4 4q-1 3-2 0l-3-2z" class="st716"/><path d="m270 172 8 1h6l2-1-1 5-15-2q-4 1-3-3z" style="fill:#7b5d2e"/><path d="m267 172 2 3q4-2 8 0c4 2 6-1 8 2l1-5h1v4q0 3-3 2l-4-1-13-1z" style="fill:#856635"/><path d="M273 172h13l-1 2-4-1-3 1zh-3z" style="fill:#74572a"/><path d="M260 138v2q-3 5 1 10l1-1q4 3 7 2 2 0 3-3l2-1q-1-3 2-2 2-1 0 0l-1 4-6 6q-1-2-2 0-3-2-5-1v-2h-2l-2-5h-1l1-1-1-4 2-4z" style="fill:#c3a166"/><path d="m259 138 1-1h1l6-3 1 1 2-1 2 1 6 5v5h-2q1 0 0 0l-1-2c3-5-8-8-12-6q-2 2-3 1z" style="fill:#c3a064"/><path d="M293 170h-2l-1-3v-2q2 1 3-2l4-5 5-2 3 4-1 1q4 4 3 10h-3l2-1c0-1-2-6-4-6-1-3-6-3-3 1v3l2 3h-3z" style="fill:#846433"/><path d="M298 171h-5v-1z" class="st278"/><path d="m301 171-3-1c2-2-1-3-1-4l1-1-1-3h4l2 2 2 2 1 2 1 2-3 1z" style="fill:#7d6030"/><path d="M262 446h49q1 0 0 0h-5l-30 1h-47l-22-1h-12l-10-1h-28l-7-1h-8l-5-1h-9l-3-1h-12l-2-1h-5l-3-1h-5l-3-1h-3l-4-1h-3l11 1q82 8 166 7" class="st650"/><path d="M454 439a1108 1108 0 0 1-120 7v-1q55-1 110-6zm-148 8-3 1h-27l2-1zm-77 1h-19l-3-1h20zm89-1h14-21z" class="st646"/><path d="M334 446h-16l2-1z" class="st650"/><path d="M274 447h-15l2-1h11zm-90-1h-9l-3-1h12m11 1-10-1zm-27-1h-9zm-11 0-7-1zm-22-2h-6zm15 1h-7zm55 2h-6zm-63-2-5-1zm-18-2h-4zm-5 0h-4zm-27-3-4-1zm6 1-3-1zm30 3-3-1zm-18-2h-3zm-4 0-3-1zm7 0h-2zm-11-1h-2zm-18-3-3-1z" class="st646"/><path d="m446 438-25 2-49 3-14 1-19 1h-64l10-1q65 0 128-4h8l5-1h8z" class="st563"/><path d="M454 435h10l1 1-18 2h-1l-12 1v-1h2l11-1h6v-1z" class="st551"/><path d="m358 444-12 1h-7l9-1zm13-1-2 1h-11l3-1z" class="st425"/><path d="m454 435 4 1-4 1-1-1z" class="st565"/><path d="M336 445h-8z" class="st425"/><path d="M454 438h-7z" class="st563"/><path d="M312 445h-4z" class="st425"/><path d="M452 422v3h-2l-7 1q-3 0-1-3h-4l-1 1-2-1-158-1q-1 2-1 0h2c58-1 117 2 174 0" style="fill:#363330"/><path d="M452 425v10l-2-2-7-6v-1l5-2z" style="fill:#3e3b39"/><path d="M452 435h1v1l-2-1q-2 0-1-1-1 0 0 0v-1z" style="fill:#22201e"/><path d="M383 322h48l-5 2q-24 1-49-1l1-1z" style="fill:#afa7a1"/><path d="M361 322q3 1-1 1h-1l-3 1h-36l-2-1h39-2l1-1z" style="fill:#9d948d"/><path d="M361 322h5l3 1h-9zm0 0h-5l1-1zm-2 1-3 1z" style="fill:#c0b9b4"/><path d="M319 323h-5z" class="st80"/><path d="m101 395 2 8q2-1 2 1v2l-5 17-1 1-1 3q1 3-1 4h-1l-1 5-1-1 2-6c2-7 6-24 5-30l-1-4z" class="st497"/><path d="m104 394 3 1h-2l2 2v2l-1 5h-1l-1-1-1 4q-2 0-1-2v-7l-1-3h1z" style="fill:#312d28"/><path d="M96 432q2 2 0 3h-1v1h-3l1-1h1l2-4q0-1 0 0Z" class="st554"/><path d="m104 394-2 1v-1z" class="st497"/><path d="m287 176-1 3h-3l-3-3 5 2z" class="st278"/><path d="M120 253h15l3 1h1l9 2h-3l-3-1q0 1 0 0l-34-1h-1l-15 3-1-1q-4 3-8 2l-4 4 3 4q-3 17 7 29h1l4 4c2-1 7 2 4 2l-4-1q-5 0-7-3v-2l-6-6v-3q-3-4-2-7-2-2-1-5l-1-1c1-1 0-5-1-2l-5 1q0 1 0 0h-1v-1l1-3c5-14 31-15 44-16z" style="fill:#d1c8bf"/><path d="m142 254 3-1 13 3v1z" class="st91"/><path d="M123 253h10l2 1zh-3z" class="st342"/><path d="m166 258 5 1h-5z" class="st293"/><path d="M123 253h-3l-5-1zm40 4-2 1-1-1z" class="st91"/><path d="M71 268v2h-1z" class="st313"/><path d="M166 258v1h-1zm-33-5h-3z" class="st91"/><path d="m138 254-3-1z" class="st342"/><path d="m193 274 3 5v-1l-10-9-2-1-14-6v-1a53 53 0 0 1 23 13" class="st289"/><path d="m148 256 15 3h-4l-2-1h-1l-6-1-4-1z" class="st303"/><path d="m163 259 7 2v1q-2 1-4-1l-3-1h-1v-1z" class="st594"/><path d="m71 310-1 1v8h-1l-1-21v-1l1-9h1z" class="st408"/><path d="M71 310v9h-2l1-3-2-17 2 1-1 2 1 7z" class="st158"/><path d="m71 280-1 15 1 15-1-6v-16q-2 0 0-1 0-3-2-1v4h-1v-9l2-2z" class="st238"/><path d="M70 287v1q-2 2-1 6v3h-1l-1-2 1-5v-4q1-3 2 1" class="st158"/><path d="M73 282q0 2-1 1l-1-1-1-3v-2l-1-2 1-1h1z" style="fill:#292623"/><path d="M70 279v1zl-1 1h-1v-2l1 1zl1-1zm-2 16v-5z" class="st408"/><path d="M69 274h1v1l-1 1z" style="fill:#383735"/><path d="M71 272q5 2 3 6 2 3-1 3v1l-3-7v-1z" class="st664"/><path d="m414 317-1 1-3 1h-5 4z" class="st602"/><path d="m383 322 8-1 26-1 3-1 5 3h-1l1 1-31 1-8-1z" style="fill:#5f4722"/><path d="m277 422 158 1 2 1v1H278v-1q1 2-2 2c-1 4-3 1-3-1q0-2 2-2v-1z" class="st173"/><path d="m272 422 3 1-2 2q1 1 0 0z" style="fill:#282725"/><path d="M73 341v2z" class="st238"/><path d="m144 386 1 3v1l-1 3h-7 10c2-1 6 0 4 1H99v-1h5q2 0 0 0h-1v-1q-5-2-2-4h8q1 2 4 1 8 2 15 1h10q6 2 5-4z" style="fill:#a5998f"/><path d="m72 284 1 1 1 2-3 1q3 1 0 4 2 1 1 4l1 14v1l2 13 1 1 5 32v3a355 355 0 0 1-10-69v-8zm15 97 5 7-3-2-2-1-1-3-5-20h1l1 1z" style="fill:#c1b8af"/><path d="M88 383q2 0 4 3l2 3h1l8 3v1h-2l-8-3-2-2-4-7z" class="st359"/><path d="m92 388 9 4q-5 1-9-1c1-3-3-2-3-5z" class="st174"/><path d="M82 362v-5q3 1 1 4" class="st147"/><path d="m87 385-1-3zm17 8h3zm-1 0h-2z" class="st174"/><path d="M123 395h32v1h1v8l1 1v3l-1 4-1-1v-13l-2-1h-44l-2 1v-1l1-2z" style="fill:#f1f1f1"/><path d="M131 395h6q0-1 0 0 1 0 0 0h-24z" class="st324"/><path d="M113 395h10l-13 1-2-1z" class="st744"/><path d="M121 394h-12z" class="st324"/><path d="M137 394h-6v-1z" class="st374"/><path d="m254 313 10 5 2 1 1 1 2 3h-1q-2 0-2-2v5l-3 1q-7 1-9-4-3-2-3-4h-6q-2-4 3-6l-3-1h-1l-9-3q-1 2-2 0 11 1 21 4" class="st271"/><path d="m266 320-2-2z" class="st559"/><path d="m228 306 21 5 3 1 2 1-21-4-12-4-8-5q-2 0-1-2 7 6 16 8" class="st474"/><path d="M249 311h3v1z" class="st105"/><path d="m209 295 3 3 1 2v1q-4-1-5-5l-1 1-5-6 1-1v-1z" class="st420"/><path d="m197 279 6 10v1h-1q-3-2-4-6l-1-3q-2 1-1-2v-1z" class="st147"/><path d="m438 423 2 2 2 1 5 5v1l-173-1-1-1v-1l-1-5 2 3v-3l3-1h159l-2-1-158-1h159z" class="st744"/><path d="M275 421h-3l-3-8q-3-5-2-11-3-2-1-6-3 0 0-2h1l7-5 1 1z" style="fill:#8c8077"/><path d="M452 420v1H334q-1 0 0 0v-1h9v1l1-1h9v1q5-2 9 0 1-2 1 0h20q4-2 9 0 0-1 0 0h20q0-2 1 0 5-2 10 0 0-1 0 0 4-2 9 0h1v-1zq0-1 0 0" style="fill:#f7f4f2"/><path d="M267 402q0 3-3 3l-1 2q3 2 2 5l1 3v5q-2 1-2-2v-5l-1-1h-1q-2-2-1-5l1-6 2-2q-1-4 2-3z" style="fill:#3a3531"/><path d="M270 413h-1l-3-2v4q0-4-3-7h-1l2-4h1l2-2z" style="fill:#403c37"/><path d="m266 422 1 2 2 6-2 2q1 2-1 1l-2 2v-14z" class="st666"/><path d="M452 420v-78q0-1 0 0z" style="fill:#f2ebe3"/><path d="M267 425q4 3 4 7l1 2q-1 3 1 2-1-3 1-6v2q2 0 1 1v1q2 0 0 1 1 0 0 0 3 2-1 2h-2q-3 0-2-3h-1v-4z" style="fill:#3c3834"/><path d="m268 418 3 9 1 5q-2-2-2-5-3-4-2-9" style="fill:#4c4844"/><path d="M264 413v8l2 1h-2v13l1-1 1-1q1 2-1 2 1 2-2 1v-23z" style="fill:#211f1c"/><path d="M275 421q1-3 4-1l5 1q0-2 1 0v-1h8v1h1q0-1 0 0 1 0 0 0h-23z" style="fill:#cfc4be"/><path d="M305 421h9q0-2 1 0h1-21l1-1h6q2-1 3 1" style="fill:#e3dad5"/><path d="M324 421q0-1 0 0l1-1h8v1h1-18l6-1q1-1 2 1" style="fill:#f6f2f0"/><path d="M266 420v1h-2v-4z" style="fill:#aea59d"/><path d="M452 334h-8l-1 5v1l-1 18h-1v-24h1v1h-9v-1h1v86h-1l-1-76v-10h-9v-1z" class="st124"/><path d="M452 333q-1 0 0 0v-5z" style="fill:#eae4df"/><path d="M452 342v-5z" style="fill:#d2b891"/><path d="M452 337v-2q-2 0 0-1z" style="fill:#f2ede4"/><path d="m213 301 1 1v6l5 2 2 2h1l3 1 1 3 5 3 2 2 4 2 5 5 2 1q0 2 3 2h2l1 1 4 2 3 3c3 1 4-2 6 2v1l-9-3-13-3q1-3-2-5-3 0-4-2l-4-3-7-4-8-7q-6 1-7-4h-2q-3-6 1-13z" class="st18"/><path d="M233 309h2q3 1 3 4 3 0 2 2 1-1 2 1 0 5 6 6l1 2q3 0 5 3 6 1 7 6l1-1q3 2 4-3l-1-1v-7h1l2 2q-2-1-1 1l1 12q-1 3-3 2l-4-3h-3l-1-3-3-1 1-1h-3l-5-2v-2l-5-2-3-5-2-1-1-1-2-1-4-2 1-2q-3 1-5-1 2-2 0-4z" class="st420"/><path d="M233 309h-3l-4-2h-1q-2 1-4-1l-7-4-1-1v-1a49 49 0 0 0 20 9" class="st266"/><path d="m254 337 9 3h3l1 1 2 1v1h-2l-1-1h-2l-11-3v-1z" style="fill:#292422"/><path d="m225 307-1 2h-1q-2-1-2-3z" class="st420"/><path d="M437 328q1 2-1 2h-9l1 2h-58l1-1c2 0-1-2-1-2l-1-1z" class="st723"/><path d="M452 328v5h-94v-1h5q0-2 1 0 3-2 5 0 1-2 1 0h57l-1-3h10l1-1z" class="st217"/><path d="m308 328 2 1q3 2 6 0l4-1h26q2 2-3 4h-36c-6 1-6-3-1-4z" style="fill:#beb5ac"/><path d="m282 328 10 1q2 5 6 0l5-1h3l-2 2v2h39l1-1h18v1h-8l-56 1h-5l-8-1q-6 1-5-4z" class="st404"/><path d="m357 328 3 2q3-1 3 2h-20l3-4z" style="fill:#bcb2aa"/><path d="m369 328 4 3-3 1h-1q-3-2-5 0h-1l-4-2q-2 1-2-2z" class="st404"/><path d="m303 328-4 2-3 2h-4l-2-3q-3-2-5 1-1-2-3-2z" style="fill:#bfb5ad"/><path d="m320 328-3 1v1c-4 1-7 3-8-2z" style="fill:#c4bbb4"/><path d="m280 328 1 4h4-7l1-3h-4c-1-1 5-1 5-1" style="fill:#a99e95"/><path d="m278 351 1-3q2 2 2 6l2 3c1 1-1 4 2 3v12c-2 1-4-3-2-4l-2-6-1 6-1 1v-12l-1-2z" class="st306"/><path d="M286 354v15l-1-2v-13z" style="fill:#857970"/><path d="M278 351v4l1 2v1h-1q0 1 0 0l-1-2zv-2q-2-1 0-2v-1q-2 0-1-1l1-1 1 2z" style="fill:#2a2825"/><path d="M279 334q4 0 4 6l2 5v6l-1-1-4-13-3-3z" class="st564"/><path d="M286 348v6h-1v-11h1z" style="fill:#8e8279"/><path d="m273 330-1 10 1 1v2l-3-1-3-1 3-1q0-6 3-10" style="fill:#aaa096"/><path d="M354 332h4v1h-33l-1 1h-10q-2 2-4 0h-24l8-1h-8 7z" style="fill:#9b8f84"/><path d="M285 334v11q-3-4-3-9l-3-2z" style="fill:#b3a89e"/><path d="M286 334v9h-1v3-12z" class="st678"/><path d="m269 343 4 2-4 1q-2-1-2-3z" class="st137"/><path d="m276 346 1 1-1 1h-37v-1h7l16-1h5v1h4q1-2 3-2z" style="fill:#aea49b"/><path d="M273 345h1l-3 2h-4v-1h2z" class="st439"/><path d="m92 435-2 1 10 1 36 2v1l70 2h46l4 1 72-1 57-2h18l-59 3q-117 6-236-4l-14-1-8-2 1-1z" style="fill:#c5c0bc"/><path d="M434 439h-8l-5 1h-7l-34 2q-53 3-105 3h-69l-15-1h-6l-37-2h-1l-13-1h-7l-10-1h-1l-8-1q-1 0 0 0a1609 1609 0 0 0 164 5l84-2 47-2q16-2 31-1" style="fill:#d1ccc8"/><path d="m186 444-28-1-10-1zm-78-5-14-1zm98 6-15-1zm-59-3h-13zm-14 0-6-1zm-6-1h-4l-6-1zm-11-1-7-1z" style="fill:#d4d0cd"/><path d="M95 436q9-1 4 1zq-1 0 0 0" style="fill:#786f69"/><path d="M95 436h-2z" class="st497"/><path d="M313 268v-1l3-3v-1h2l1-1 2 1 2-2 2 1q2 2 1 3h1c-3 1 0 1-1 3-2 1-2 5-4 4l-1 2q-4-1-2 1h-2l1-1h-3l1-2q1-2 3 0l3-3q4-2 0-4h-1q-5-1-5 3l-1 1q3 2 1 3z" style="fill:#c8a86f"/><path d="M352 323h-33z" style="fill:#5b4e3e"/><path d="M260 138q4-3 10-2l6 3q1 3-1 5l1 1-2 1 1 2-2 1-4 3v-1q-3 3-7-1l-2 1 1-1-2-1-1-3q-1-3 2-8" style="fill:#c7a66a"/><path d="m426 439-5 1zm-7 1h-5zm12-1h-4z" class="st551"/><path d="M445 435h8v1h-42v-1l14-1z" class="st565"/><path d="M453 436h-13l5-1h6z" style="fill:#746b65"/><path d="m446 437-6 1h-3v-1z" class="st431"/><path d="M434 438h2zl-31 1h-5l1-1h21l7-1z" class="st620"/><path d="M453 437h-6z" class="st246"/><path d="M438 438h2-6z" class="st508"/><path d="M443 426v1q1 1 0 0l-2-1-2-2-1-1c1-1 6-2 5 1l-1 1z" style="fill:#2d2a29"/><path d="M450 433q-2 0-2-2l-5-5z" style="fill:#242221"/><path d="M451 435h-26l-2 1h-51l20 1h12v1l-1 1h-2l-44-1q-11 2-23 1l-4 1h-1l-25 1-49 1h-2v-1h5l12-1h2l24-1 14-1q6-2 12 0l10-1h-22l-2-1-23-1h-9q-1-1 1-1z" style="fill:#b7b0aa"/><path d="m448 432 2 2q1 1-1 1l-174-2-1-2z" style="fill:#eceae8"/><path d="m449 435 1 1H275v-2z" style="fill:#c5bfba"/><path d="m107 398 2-2h46l1 16v20l-3 1-54 1q-3 0-2-2l1-5 1-2 6-21z" class="st744"/><path d="M156 432v3H96v-3h1v1h6l15-1h35l3-1z" style="fill:#eeedeb"/><path d="m98 427 1-2v3z" style="fill:#f3f2f2"/><path d="M157 434v1l-2 1-16 1 21 2v1h-3l-48-3-14-2 1-1zv-11h1z" class="st216"/><path d="m95 435 28 1-1 1H99l1-1z" style="fill:#948c84"/><path d="M108 254q17-1 34 1l3 1h1l10 2-6 1q-2 1-5-2l-6 1-13 2q-3-2-6 0h-9q-6-1-10 2l-7 3q-3 1-3 4l-3 9v7l2 7 4 5h1l6 3 1 1h3l-1 1h-3l-3-1 1-1-5-1-4-4-2-4a26 26 0 0 1-3-17q-1-5 3-7a6 6 0 0 1 5-6q0-4 3-3 2-2 5-2l1-1z" class="st594"/><path d="m71 272 1-1 3-1v-2l3 2 1 2-1 1v3l1 1-1 1h2v5q2 2 2 5l6 7-1 1v1l-3-2-3-2-5-6q1-3-3-4 0 1 0 0v-1l1-2v-4l-1-2q-3 1-2-2" class="st313"/><path d="m107 254-4 1-2 3q-3-2-4 2h-1l-1-2-1 4h-2l-3 3v2l-1 1q-3 3-2 5h-1l1 1-1 1v9l3 5v2h-1c-4-4-6-20-1-25q-1-4 3-7-1-2 2-3z" class="st303"/><path d="M91 256q-2 2-1 3l-4 5 1 2-1 1q-5 12 2 24l2 4q3 1 4 4c-3-1-1-1-2-2l-3-2q-8-8-8-20v-7q4-3 1-8l1-2z" style="fill:#c8beb5"/><path d="M83 258v2h1l-1 2 1 2-2 4c2 4-1 7 0 11l2 8 5 8-6-8-3-10v-9l1-2-4-4z" class="st664"/><path d="m142 255-34-1 10-1 16 1z" class="st303"/><path d="m87 297 7 3h-1l-6-2q-3 1-3-2v-1z" style="fill:#262221"/><path d="m98 301 3 1zq-2 1-6-1v-1h1z" style="fill:#2f2b29"/><path d="m145 256-3-1z" class="st303"/><path d="M196 278v1h-2q-3-5-7-8l-1-1v-1c3 2 9 6 10 9" class="st27"/><path d="m184 268-5-2h-1l-4-1v-1l-4-2 11 4z" class="st629"/><path d="M159 266q0-3 3-1c1-2 6-2 7 0h3l5 1h2l5 2 2 1v1q-1 1-1-1l-5-1q-1 5-4 3-5-4-11 0-1 4-3 0 0-3-5 0h-6v2q-2 2-5 1-3 2-1-3l3-1c-1-3 4-4 3-1q0 1 0 0 0-2 3-1z" class="st5"/><path d="m156 258 2 1h1q-1 2-2 0-4 4-9 2l-1 1-5-1-4-1-12 3-1-1h-10l-17 1-6 5-1 4-2 1-1 4 1 13v2q-2-3-2-7l-2-3v-3l1-1q0-6 3-10l1-2 2-1 4-4 6-1 7-1 4-1 6 1 4-1 2 1q8 0 14-2h2l3-1 4 3 1-1z" class="st391"/><path d="M162 259h-1q-2 1-1-1z" class="st629"/><path d="m159 259-2-1z" class="st594"/><path d="M162 260h1l3 1 4 1 4 2v1l-9-2q-4 3-6 0-1 2-2 1-2 4-4 1l-1 1-11 2-3-2q-5 4-11 1l-4 1q-3 2-7 1l-4 1q-5 4-11 1-4 2-5 5-4 3-3 8-3 7 2 12 2-1 2 1 2 0 2 2h1l1 1-7-3-3-4-1-5 1-6q-2-5 1-8l3-5h3q2-4 5-3 2-3 3 1l1-1q5 1 9-2h10l9-1q1-1 3 1 1-2 3-2a24 24 0 0 0 16-1q2-2 4-1z" class="st538"/><path d="m166 261-3-1z" class="st629"/><path d="M70 287q-1-2-2-1v-1l2-1z" class="st408"/><path d="m73 283 1 1-1 1-1-1z" style="fill:#3e3937"/><path d="m142 377 2 9h-1q0 3-2 5l-8 1q-4-2-7-1l-10-1h-3q-2 1-5-2h-6l-2 1 3 3-9-3c-3-2 1-6 3-7q3-2 5 0 2-1 3 2 2-4 4-1 2-1 4 2 3 3 8 2h6l5 2h8q2 0 2-3v-5c-2 0-1-5-1-5z" class="st746"/><path d="m148 376 1 7 1 2q2 2 1 4 2 0 1 2l1 1h1l5 2h2l4 1q1 0 0 0v1c1 5-3 2 0-1l-1 1h-7l-1-1q3 2 0 4 2 2 0 5l-1-8v-1l1-1-4 1h-15v-1h14l1-1q-4-3-4-7v-3c-1-1-2-6 0-7v-3z" style="fill:#23201e"/><path d="M147 390c-1-1 0-6 1-4q2 5 6 8h-3v-1h-4 1z" class="st581"/><path d="M145 390q2 0 3 3h-11 7v-4zq0-1 0 0" style="fill:#95887e"/><path d="m145 385-1 1-2-9h2z" class="st177"/><path d="m146 387 1 3 2 3h-1l-3-3-1-3 1-2z" style="fill:#231f1d"/><path d="m89 302 8 2 22 6q5 2 9 7l3 3 4 6-1-9 1-1q3 1 2 3l1 7 1 19v9q2 7 0 13-3 4-4 0l-2-2q-1-4-5-6l-4-8q-4-1-1-3-4-9-12-6-3-1-2-3l-3-2c-1 2-6 2-5-1h-2l-4-3q-1 2-3 0c-3 3-8 2-3-1 0-1 2-9 1-10l-5-3q0-3-3-2l-1-1v-3l2-5v-5l-2-2q-5 0-3-6l-2 1c-5-5-2 5-1 7l-1 1q2 5-1 5l-2-18 4-1h1l13 11z" class="st391"/><path d="m73 309 1-2c0-1-3-3 0-4q-2-1-1-4-2-2 0-6 2 0 3 2l2-1 1 6h2l2 3v4h1l-3 7 1-1-1 2 3 1 2 1v2l3 2q2 1 2-1h1l2-3 1 1-1 2h2q0 2-2 1l-1 1-2-1v7l-1 4q-2 1-2 3l5-4v2l2-1 2 1h2l-1 2h3l1 2 3 1c2-4 1-1 3 0q2 0 2 2v1l5-1q3 0 5 3l2 2 3 2-1 1-1 1v1l3 1-1 1 2 4 1 2 2 1 3 2 1 4q3 0 2 3 2 1 2-2l1-6v-10l1 3v3l1 7-1 4 1 6-1 1c-1 1-2 4-3 1q-4 0-5-4h-1q-2 3-2-2-3 0-3-2l-1-2q-2-1-2-3l-2-5q-5-2-6-6-3 1-7-1l-4-1q-1-3-3-3-2 4-4 0h-5q-2-3-3 0c-4 3-3-3 0-5l-5-4-2-3c-1-3-4 2-3 4q4 2 0 3 2 2 0 4 2 3 1 6l1 2q2 2 0 3v1l-1-4-5-29-2-13z" class="st165"/><path d="m81 293 3 2v1h-1l-7-6v-1q-2 1-2-1v-1l-1-2h1q2 0 3 3z" style="fill:#26211f"/><path d="m75 288 1 1-1 1-2 2h-2v-4z" class="st165"/><path d="m75 324-2-13q2 2 1 5zm-1-37h-3v-1z" class="st391"/><path d="M81 351h1q2-2 3 1l5 1q-1 4 3 5l1 2q5-1 4 2 3 2 1 4v2q2-1 3 1-2 2 3 2l1 1 2-1q5 4 9 1 4 1 5 4l4 1 3 3 8 3q4 6 2-3l1-5q-2 1 0-1v-10 3-4c1-1 2 3 1 3v5l1 2v5l-1-1v4l1 6q-1 3-5 1h-6q-2 1-3-1-4 0-5-2-4 1-7-1t-5-2h-4a7 7 0 0 0-6-4c-2 4-5-1-6-3q-3 1-5-1v1q1 3-2 3v4l-1-1-5-20-1-4z" class="st570"/><path d="m88 383-1-6h2l-1-2q2 0 2-2h-2l1-2 3 2c-2 4 3 0 4 1l3 5h1c1-4 4 0 7 0v2c3-2 4 2 6-1l2 2 1-1v2q4 3 7 1l1 1 4 2 1 1 2-1 1 1q1-2 3 0h5c3-2 0-5 1-7l1 1q-1 3 1 6-4 3-9 1l-2 1-3-1-2-1v1q-1 1-2-1h-3v1l-1-1h-6l-3-2-2-2q-2 1-3-2-1 3-3 2c-1-3-3 0-3-2l-4 1-3 4v2z" class="st264"/><path d="M156 399c3-5 6-1 7 2l1 1q1 3-1 4l-1 11q1 8-2 15v4q1 3-3 2 0 1 0 0l1-1v-8c1 0 2-30 0-28v7l-1 5v1l-1 3v-13z" class="st739"/><path d="m143 395 13-1-1 1zq-1 0 0 0" style="fill:#111112"/><path d="M143 395h-6z" class="st374"/><path d="M245 312q3 0-1 4 2 5 8 7l2 1q2 3 7 3 2 4 4 1l2 1v2l-3 3-2-1-2 1v-2c-2-4-5-2-8-5v-2q-2 1-5-2-2 1-4-3l-2-1v-3l-3-1 1-1h-2l1-2-2 1 1-2-2-2z" class="st266"/><path d="m245 312 4 2q1 1-2 1c-3 0-1 2-2 1l1 2h6v2l3 2 2 3 6 1-1-1 3 1v-5h1v8l-3 2-2-4c-2 1-8 0-7-3q-2 1-2-1l-6-3-3-4z" class="st613"/><path d="m185 269 1 1 10 9 1 2 1 3 5 6 5 6-1 4v6l1 2q2 0 2 2l2 2h4l4 2 5 5 6 5 1 1 4 1q0 3 4 2l1 2h1l1 3-2 1q-2 1-4-1h1c2-3-3-4-5-4l-9-6q-2-4-6-5l-3-2a23 23 0 0 1-11-8l-4-5v-5l-1-3q-4 0-2-4-3-1 0-4-1-4 0 0c0 2-5 1-6 0l-1-2q-2 0-3-3-3 2-4-2l-5 1-3-3-7 2-2 1c0 4-5 5-4 0l-2-2q0 3-2 1l-3 1-4-2a8 8 0 0 1-9 2q1 3-1 1l-7-1-6 3q-1 3-3 0l-4-2q1-4 5-3 3-2 6-1 1-2 3-1 5-3 7 1 2-2 5-1 0-3 2-1 1-2 3-1 6-5 11-2 5-3 7 0l2 1q3-2 7-2h2q1-5 4-3" class="st217"/><path d="m198 284-1-3z" class="st27"/><path d="m441 426-2-2q2 0 2 2" style="fill:#1a1918"/><path d="m266 393 1 1h-1l-4 6q0 2-3 2-2-3-2-7-1 0 0 0l-6-1h1v-1z" style="fill:#2d2925"/><path d="M279 361v10q2 4-1 8 1 4-1 8l-1 1-2 2q-2 3-7 4l-1-1 5-2q0-2 2-2l2-3q-2-1 0 0l1-2v-5l2-7v-13l1-1z" style="fill:#26231f"/><path d="M276 417v4h-1l-1-31 2-2v1l1 26z" style="fill:#776e63"/><path d="M266 394v2l-2 1-1 4-1 5-1-1v2q-3-2-2-5l2-1 3-6z" style="fill:#34302b"/><path d="M433 420v-86h9v24l1 59v1l1-18h1v11l-1 1 2-1h5v-70l1-1v80h-1q-1-1 0 0zq-1 0 0 0" style="fill:#ada198"/><path d="M423 334h9v86h-9z" class="st635"/><path d="M412 334q2 2 0 5v12h-1l1 3v47h-2v-24l1-2v2q-5 0-3 8c1 3-3 3-4 1h1v9l-1 1q1-3 4 0c1 3-1 10-3 7l-1-2 1 1v16l-1 1h8v2h-9v-77l-1-3-1-6 1-1z" class="st604"/><path d="M413 367v3l1 17v7l1 14h-1v11-11l1-1 3-4c0-2 1-6 3-3v13h1l-1-13v-3l1-2c0 3-3 7-4 2l-4-2v-8l1-1 3-4q-1-2-4 0l-1-12 1-1 3-1q-2-3 1-5 4-3 4 1v4l1 2v51h-10z" class="st360"/><path d="M382 374q0 4-3 4v5c-1 0-4 3-1 3q1-2 3-2c0 1 1 14-2 15q0 5-5 5v-1 17h-1l4-1h4v-41h1v42q1 0 0 0h-9q-1 0 0 0v-18l1-39v-7l1-1q0-5 4-7c-1-2 3-7 3-4z" class="st71"/><path d="M392 419v1h-9q-1 0 0 0v-39q1-3 4-1l4-10h1z" class="st656"/><path d="M393 368v14h-1v20q3 1 1 1l-1-21h1l1-1q1-3 4-3-1-3 2-2l1 4v41h-10z" class="st377"/><path d="M354 397q0-4 5 0l3 1h1v22l-1 1h-9v-18h1z" class="st294"/><path d="M343 409v11h-9v-4l1-10v-2q3-3 5 1h2v10-23l1-1zm10-6v18h-10l1-1v-11q0-7 5-3l2 3 1-4v-13h1z" class="st532"/><path d="m423 421-1-3v-79q-1-3 1-5 0-1 0 0z" class="st62"/><path d="m363 370 1 3v20l-1 3v8h1v16h-1v1h-1v-28h-1v-33l1-1v-9h1z" class="st315"/><path d="M413 360v60h-1v-67l1-1z" class="st62"/><path d="M403 420v-68h1z" style="fill:#958a81"/><path d="M433 420v-76l1 2z" style="fill:#8f857c"/><path d="M373 362v59h-1v-4l-1-2 1-54h1z" style="fill:#958b81"/><path d="M393 368v50l-1 3v-56h1z" class="st558"/><path d="M354 403v18h-1v-18q0-2 1 0" style="fill:#93887f"/><path d="M383 420v-20h1z" class="st693"/><path d="M372 417v4h-9v-1l3-1h4q1-4 2-2" class="st461"/><path d="M344 420v-11h1z" class="st704"/><path d="M233 395h24l2 7 2 5 1 5 1 20h-85l-1-5v-2l1-3q-2-1 0-2 1 1 0 0v-3q-2 0 0-1v-5l1-3v-5q-2-2 1-6v-1l51-1z" class="st744"/><path d="M263 413v21h-86v-3c-2 0-2-4 0-4v3l1-1v2h85z" class="st247"/><path d="M264 415v-1h1zm0-2h-1v-2z" class="st666"/><path d="m269 431 1 4c1 1-5 2-5 0l1-2 1-1z" class="st646"/><path d="m269 430-2 1z" class="st324"/><path d="m449 435-174-1v-1h3l55-1 112 2q2-1 4 1" style="fill:#dddad6"/><path d="m285 435 14 1q2 0-1 2l-30 1h-3q-14 2-30 2h-17l-12 1h-3v-1h-32v-1l103-2 1-1h11l-10-2h-1z" style="fill:#a8a099"/><path d="M263 435v1l-5 1h6c1-2 6-1 7 0h3v1h-22c-1 1-6 0-5-2z" class="st379"/><path d="m276 435 13 1 2 1-17 1v-1h4q2-1 0-1-2 2-2-1" class="st683"/><path d="m270 435 2 2h-14c0-2 3 0 4-2h1v1l2-1h2z" style="fill:#776f68"/><path d="M278 436q3 0 0 1h-4l1-2h1z" style="fill:#8c837a"/><path d="M263 436q-1 0 0 0v-13 2zm0-18v-3zm0 3v-2z" class="st666"/><path d="M286 383c3-1 3 5 2 7q3 1 4 5t2 1v-5q0-1 0 0v30h-9z" style="fill:#91847b"/><path d="M295 397h1q6 8 7 17h1l1 6q-1-1 0 0h-10q-1 0 0 0v-4h3q3 3-2 4h6-1q0-3-3-4l-1-8h-2z" style="fill:#978c83"/><path d="M286 369v51h-1q-1 0 0 0h-1l1-35q-2-6 0-13v-5z" style="fill:#7c7168"/><path d="M276 417q3 0 5 2l4 1v1h-9z" style="fill:#94877d"/><path d="M295 420v-28h1z" style="fill:#786e64"/><path d="m315 395 1 1-1 1q2-1 2 1-1 6 6 8v3l1 11h-9q-1 0 0 0h5q3-2 1-5l-4-3-1 4-1 1v-15zq0-1 0 0" class="st121"/><path d="m305 405 1 3q5 4 5 9l2 1v-1h1v4h-1l-8-1z" style="fill:#a1958c"/><path d="M315 402v18h-1v-23z" style="fill:#8c8178"/><path d="M313 421h-8v-1z" class="st552"/><path d="M333 368v53h-9v-1l1-23 1 2q7-3 6 5v10l1-10v-50h-1v-12l1-4z" class="st27"/><path d="M334 415v5h-1v-53h1z" style="fill:#958a80"/><path d="M324 420v-17z" style="fill:#8d8279"/><path d="m447 334 1 1 3-1 1 3v3l-1 73-2-2q-2 2-5 1v-12l-1 18v-84z" class="st521"/><path d="M452 333c-9 2-19-1-28 1h-1l-9-1z" style="fill:#887c72"/><path d="M452 334v3zq-3 3-4-1z" style="fill:#b2a89f"/><path d="M234 333h2l4 1 13 3-1 1-9-2-4-1-8-2z" style="fill:#2a2523"/><path d="M253 338q7 1 13 4l1 1-5 3-21 1h-45c-3 0-11 0-8-2l5-1h7q1-2 4-1l1-1h4q6 3 10-1 5 2 7-2 3-3 6 0 5-4 12-3z" class="st137"/><path d="m267 343 2 3h-7l1 1h-22l8-1q7 1 13-1l1-1z" class="st532"/><path d="M452 333h-31l-7 1h-21q0 2-1 0h-2l-7 1v-1h-30q0 1 0 0l-28-1h33l91-1z" style="fill:#91857a"/><path d="M369 332h-5c0-3 5-2 5 0" class="st723"/><path d="M356 332h-2z" class="st217"/><path d="M285 372v13q-1 4-3 0l-2-5q-2 1-2-2l1-7v-2l1-12 2 7 1 3v2z" style="fill:#92857c"/><path d="M279 369v2-10zm0-11-1-3z" class="st522"/><path d="M286 366q2 0 2 3l6 15v12q-2 0-2-4l-1-3-1-6-3-5-1-5z" class="st306"/><path d="m286 357 1 7q5 7 6 15h1v13-8l-1-1-4-10-2-4-1-3z" class="st452"/><path d="m286 355 7 18h1q1 0 0 0v10-3l-2-1c-1-7-1-8-5-14l-1-8v-4q2 0 0 2" style="fill:#a1968c"/><path d="M276 348h1v6l-4-3q0-2-4-1c1 4-5 3-6 0h-6q0 3 2 5 0 4-4 4 3 2-1 3-1 2-3 2 3 1-1 3-1 3-4 2-2 5-5 1-2 1-4-1l-1 1 3 3-3 5c-1 0-8 0-8-2q-2 1-2-1h-1q-2-4-2 0l-7 1q5-1 2 2-3 1-2-2l-1 1q-3-1-5 1 0 3-2 2-4 2-8-1h-1q-2 2-4 0 0 2-3 1l-11-1q-2 3-5-1l-4-1q-3 3-3-2-2-2-4-1h-4q-3-3-3 2l-3 8 1 2v2c-1 1-5 3-4 1q-1-1 1-2v-13q0-4 2-7-3 0-2-4-2-8 4-8l1-3c1 0 12-2 14-1v-1l46-1v-1z" class="st227"/><path d="M216 376s5-2 6-1l-1-2 3-1v2h2q1 2 2 1l1 2h6l2-2q3-3-1-2l1-1q-2-3-5-2v-2l3 1 2-1 2 2 3-1 1 2 3-2 3-1v-1l3-2-2-1c-1-3 3-1 3-1v-2h2l-1-2 3-1c3-3 0-2 0-4l-1-2q0-2-2-3h10v2l1 1 4-1-1-2 5 1c0 3 2 1 4 3v-1q0-1 0 0v4l1 9v3h-1q-2-5-2 0 2 2 0 5l-2 3-3 3q-3 1-5-1-3 2-5 1l-3-1-6 1q-3 4-6 2-1 3-4 2a14 14 0 0 1-11-1q-5 2-11 0l-6 2q-1 2-4 1h-14l-1-1h-7q-4 2-9-1-5 3-8 0-4 2-6 0c1 3-4 3-6 2l-1 2q0 4-4 3 0 2-1 1l-1-1c-1-3 2-3 1-1l1 1q3-2 2-4v-2l1-2c0-2 1-9 3-10l4 2 1-1 1 1 2-1 3 2v3l2-2 4 2 1 1 4-1h5l5 1 3 1q0-3 2-2l1 1c2-4 5 1 8 1l4-1c0-3 5-3 7-3v1l2 1v-2z" class="st189"/><path d="M277 347v1zl-4-1z" class="st319"/><path d="M278 365v-7z" class="st522"/><path d="M278 358v3l-1-5z" class="st731"/><path d="M277 352v-2z" class="st319"/><path d="m286 343 1 4 3 4 4 6v10q1 0 0 0h-1l-6-14-1-5z" class="st635"/><path d="M286 348v3l2 2 1 5 5 9v3q0 5-1 0l-7-15v-2z" class="st251"/><path d="M304 334v9l-1 1v14h-1l-1-6q-5 0-6-5v-13z" class="st155"/><path d="M314 334v9l-1 16-1-1v-9q-3 1-5-1l-1-5 1 11h-2v-18l1-2 4-1z" style="fill:#c8bfb6"/><path d="M317 334h3q5-1 3 4 1 2-2 2c1 3-3 9-5 4v11l-1 1v-14h-1l1-8z" style="fill:#c9bfb6"/><path d="M296 334v13l5 4 2-1 1 8v8l-1-1-1-5h-1l-3-6h-2l-1-6v-14z" style="fill:#c0b7ae"/><path d="M294 334v13q-1 1-1-1v-3q-3-1-4-4l-3-4v-1z" class="st155"/><path d="M325 334h2q1 0 0 0l-3 2v45l-1 16-1-1v-14h1v-48h-6z" class="st746"/><path d="M305 334q2 1 0 3v27h-1v-30z" class="st207"/><path d="M295 334v14l1 5v1q1 3-1 6 3 2 0 3z" class="st120"/><path d="M315 342v15h-1v-23h1z" style="fill:#a59a8f"/><path d="m310 334-2 2h-2v3l-1-2v-3z" style="fill:#cdc5bd"/><path d="m296 334 3-1 4 1z" style="fill:#8c7f73"/><path d="m286 335 1 1v6l1 1 5 7 1-3v-12 27-4l-2-1-3-5-3-5v-13z" class="st656"/><path d="M264 347h8z" class="st532"/><path d="M399 439h-12l-59 2q-36-1-71 1-47 1-95-2l-25-1 1-1 15 1h8l16 1h77l32-1 18 1 1-1h26l7-1 20-1z" class="st508"/><path d="m385 440-55 2h-31l-43 1 11-1 73-1q22-2 43-1z" class="st620"/><path d="M106 437h3l48 3h-21l-36-3z" class="st25"/><path d="M396 440h-9z" class="st620"/><path d="M315 269q1-6 6-5h1v1q2 1 1 4-3 3-6 1-1 1-2-1" style="fill:#d0b27b"/><path d="m322 265 2-1 1 5c-3-1-5 6-8 2l-1 1-1-3 1 1 1-1 3 2q3-3 2-6" style="fill:#ccad74"/><path d="M269 138q3-1 5 2l-1 1 2 2-2 4h-2q-2 3-5 4l-6-4-1-3q1-6 6-7 3-1 4 1c-2 0-7 3-7 5q2 7 8 4 4-3 1-7z" style="fill:#cdac71"/><path d="m425 435-1 1h-12l-1 1h27v1h-13l-30-1c-1 0-6 1-3-1l9-1z" class="st246"/><path d="M434 438h-9q-1 0 0 0z" class="st431"/><path d="M425 438h2l-7 1v-1z" class="st508"/><path d="m285 435 47 1 1 2-12 1q-5-2-11 0h-11l-27 1 3-1h6l18-2q5 0 0-1l-11-1z" class="st291"/><path d="M401 439h-44l-9 1h-18l3-1 1-1 2 1 15-1h50" class="st431"/><path d="M392 436q1 2 3 1l30 1h-21l-37-1v-1l6-1z" class="st291"/><path d="M299 436h10v1h-6l-1 1-21 1h-6l-3 1h-3v-1l28-2z" class="st220"/><path d="M248 441h5v1l-46 1-11-1h39l8-1z" class="st291"/><path d="M401 439h18-19z" class="st508"/><path d="M420 438h-17l1-1z" class="st431"/><path d="M264 440h6l-8 1h-4v-1z" class="st291"/><path d="M253 441q1 0 0 0h-5zm5-1h-3z" class="st276"/><path d="M254 441h3z" class="st291"/><path d="M158 438v-15l-1-4v-2l1-3h1v23z" style="fill:#3d3a38"/><path d="M157 423v-4z" style="fill:#43413f"/><path d="m263 435-15 1 1 1 3 1h21-10l-25 2h-64l-3 1-2-1h-9v-1h2l52-1 2-1-40-2v-1h86z" class="st683"/><path d="M157 436c-2-1-9 0-3 1l1 1h7-16l-11-2 23-2z" style="fill:#948b83"/><path d="M169 440h-9q-1 0 0 0z" class="st25"/><path d="M157 438q-2 1 0-2v-2z" class="st212"/><path d="M160 440h-3z" class="st276"/><path d="m92 293 2 4-1-1-1-1q-2-1-2-3v-1z" class="st427"/><path d="M73 283v-2l4 4q-1 2 2 4l1 1 1 3-7-8z" style="fill:#cdc5bc"/><path d="m84 296 3 2h-1l5 3q2 1 0 1h-2l-9-6-1-2-4-4 1-1z" style="fill:#c7beb5"/><path d="m87 298 6 2 6 2h1l-2 1-7-2zq-2-1 0-1" style="fill:#d3cbc3"/><path d="M101 302h3q4-1 9 1l2 1q1 1-1 1-3 0-5-2h-6l-3-1h-1z" class="st177"/><path d="m101 299-1-4q2-3 6-2 1-2 3-2 3-2 6-1 4-3 9 0 2-2 4-1 2-2 4 3l4-1 4-2q3 1 5-1h5q3 3 5-1l4 1h3l2 1q2-3 6 1 5-4 8 1 4-3 5 2 4 2 9 2l2 3 3 6q2-1 2 1 5 1 5 4 4 4 9 6l3 3q5 0 6 5l7 2q1 3 5 4 5 0 4 4h-3l2-1q-7 0-11-5l-7-3q0-3-4-2v-1q-4 0-4-4-4-1-6-4-5-2-7-5-4-1-6-5-4-2-2-4-5 1-9-3l-3-1q-4-3-9-2v-1c0 3-4 2-3-1q-3 2-7 1h-1q-2 2-4 1-2 1-5-1h-4l-8 2-2 1q-4 1-7-1h-5l-1-1q-3-4-7 0-1 5-4 1l-5 2q-2 0 1 4l-1 1h-1q1 1 0 0h-2q2 0-1-1z" class="st262"/><path d="M106 301h9q0 3-2 2l-9-1 1-1m-3-1 2 2z" class="st189"/><path d="m101 299 1 1v1l-1-1z" class="st202"/><path d="M95 296q-3-4-2-8l1-5-1-2q0-4 3-5c-1-2 5-6 6-5h1l5 1 4-2v-2l1 2 4-2 3 1 3-1 1-2h4l2 1h7l2-2 3 2 4-2h6l3-1 1 1 1-1 3-2 2-1v2l-1-1c-2 2 5 2 4 0l10 2 4 2c-1 2-1-1-2-1l-2 1-2-1-2 1v-1l-2 1v-2h-4l-1 2-3-1-1 1q-4 4-10 1-1 2-3 2-4 3-8 0-3 2-7 2l-6 3-4-2q0 2-1 0-1 1 0 0 0 2-3 1-2 4-4 2h-4q-4 2-5 0-4 0-6 3-4 2-3 5l-1 11q2 0 1 2" class="st377"/><path d="M185 269q-3 0-3 4l-2-1-1 1h-4l-1 1h-1l-1 1-1-1h-2l-1-2-5 3q-2-2-5-2l-4 1-2 1q-2 0-2 2l-3-1c3 3-1 1-2 1l-3 2-4-2q-1 2-4 0l-1 2-4-1-5 1-3 3q-3 3-7 0-2 2-5 1l-2 1h-3q-2 4-6 1l-2 5 2 7h-1l-2-1-1-2-1-7 2-7q4 0 6-3l2-1h6q5 3 9-1h1q2 2 5 1h6l3-1q2-3 4-1l8-3v3c2-3 2 0 3 0l2-1v-2l7-1 4-1c3 0 0 2 2 3 1-3 7-5 9-4h3v2l3 1 1-4z" class="st264"/><path d="m160 259 1 1q-8 4-17 4l-4-1-2 2-2-1h-5l-8 1q-1 2-3-1l-2 1q-3-1-4 2h-7l-1 1-1-2-2 1-2-1c-1 1-3 5-5 3l-2 5-1-1q1 3-2 3v8q-2 4 0 9l-1-2v-1l-1-2v-11q0-4 3-5l1-4q4-1 6-5l14 1q4-3 8-2 3-2 3 1h2l16-2h13l3-2z" class="st359"/><path d="m126 262-2 1h-3l-1-1-7 2-10-1-3 1-2 2-5 3-1 4-1 1-2 3q-1-5 3-5l1-4 1-1 4-5h4l20-1 3-1z" class="st427"/><path d="m158 259-1 1 1 1-3 1h-10l-5-1q-1 2-2 1l-12 2-2-1 2-1h4q4-2 9-2h3l4 1v-1l2 1h4z" class="st629"/><path d="m89 278 1 4v8c-2-1 0-5-2-7z" class="st427"/><path d="M143 377v-3l-1-2v-5h1v1l1 9z" style="fill:#1b1b19"/><path d="M142 376v-2z" style="fill:#302d2a"/><path d="M218 348h11-8l-3 1-3-1-6 1h-32l-5 1-1 1h-2l-11 1v3q-5 0-5 3v4q-1 3 1 4-2 10-2 21l-1 1-1-1v2l-1-5 1-4v-26q-1-5 3-5l57-1 2-1z" class="st252"/><path d="m214 388 4 1-1 1h-23l-8 1-4-1-20 2-4 1v1l-4-1-1-1 1-1h3q4-2 10-2l2-1z" style="fill:#968a80"/><path d="M205 348h8v1l-46 1h-13c-3 1-3 7-3 10l1 21-2 4-1-2v-5l1-3v-20l1-6h33l13-1z" class="st738"/><path d="m146 357 1 8v6l1 5v10h-1l1 2h-1v2l-1-3v-1l-1-12-2-23 1-2q-1 0 0 0c-2-1-3-9 0-8v3-3l1 1z" class="st207"/><path d="M150 348h34v1h-34l-1 21v9l-1-3v-4l-1-3v-7l-1-9v-8z" class="st289"/><path d="M158 393q1 0 0 0l1 1q-3 1-5-2z" class="st389"/><path d="M148 369v7l-1-5v-7z" class="st324"/><path d="M149 379v4l-1-7z" class="st53"/><path d="m154 391-1 1-1-1zq2 0 1 1" class="st615"/><path d="M148 386v-3z" class="st581"/><path d="m141 346 2 4v8q0 15 3 28l-1 1v1l-1-2-2-8-1-11-1-7v-13" style="fill:#afa59b"/><path d="M121 310q8 4 12 10c-1-2-1-7 2-4v4l1 5v3l-5-6q0-2-2-2v-1l-1-1v-1l-5-4-4-3z" class="st613"/><path d="m141 325-1 4v5l1 12h-1l-1 4-1-19-1-7v-5q4 2 4 6" class="st538"/><path d="m123 306 5 4h1l7 5v2h1l1 1 1 1q4 5 4 11h-1l-2-4-3-6-2-3-6-5-6-3q-2 1-2-1-1 1-1-1l-4-1h-2l1-1q4-1 7 2Z" style="fill:#241f1d"/><path d="m91 302 6 2 12 3 10 3 1 1h-2c-10-4-20-3-30-8z" style="fill:#c4bab2"/><path d="m87 302-1 3q-4-1 1-3" class="st165"/><path d="M79 345q1-3 3 0l1 1q3 5 9 4 0-4 3 0 3-2 5 1c-2 1 2 1 2 1q1-3 3-1c2-1 10 0 8 4q1 2-1 4l1 1q3-1 3 2c4-2 8 3 4 6q2-1 3 1-1 4 3 4l2 1q3-4 4 0l2 5h4q0-3 2-3v5q1 3-1 5l-2-2-5-2h-2l-4-3v-1h-2l-3-1v-2l-3-2-5 2-5-2v-1l-1 1-3-1c-1-1-2 1-4-2l1-2-2 1-1-4q3 0-1-2v-3l-4 1q-1-3-3-3l-1-2v-2q-5 1-5-3h-1l-1 2-1-2h-1z" class="st27"/><path d="M79 345v-5l2-1q-4 0-3-3l2-4c2-1 4 4 4 5l3 1 4 4q-3 1-4 4 2 0 2-2h2l1-1-1 2h6q3 5 2 0 4-1 6 2v2h2l3 2q4 1 4-1c1-2 2 3 3 3l4 3 2 4 1 2v1l2 2v2l1-1v2l2 1v2l2-1h2v3c2 2 5 0 5 3l2-2v2l-2 4h-5v-3l-1-1q0-3-3-2l-1 2q-2-3-6-3v-4l-2 1-1-2s3-1 1-4l-2-2-2 1-1-3q-2 1-4-1l2-2v-4l-3-1-2-1-3 1-2-1v2q-3-1-6 1v-2h2l-3-2v1q-2 0-3-3l-1 3q-5 1-8-2-1-3-3-3l-1-2z" class="st147"/><path d="M141 355v4l1 7h-1q0 1 0 0v-17q-1-1 0 0z" class="st255"/><path d="M140 354v-3l1-5z" class="st391"/><path d="M142 329v3q-2 3 1 7l-1 6-1 1v9q0 1 0 0v-6h-1q1-2 0 0v5-9c0-4-2-12-1-16l1-4z" style="fill:#aea59c"/><path d="m141 357-1-3v-5z" class="st370"/><path d="M103 338h2v1h-2z" class="st391"/><path d="m81 354-1-3h1z" class="st147"/><path d="M141 369v-3z" class="st666"/><path d="m142 373-1-2z" class="st255"/><path d="M157 414v-6 1c1-1-1-9 2-10l1 3-1 29v7h-1z" class="st212"/><path d="M156 399v-4h8l1 4v-4h7v1h-6q1 1-1 3v8l-1 4-1 4q1 0 0 0v4l-1-3 1-5c0-2-3-7 1-6v-3c-2 1-3-4-5-5z" style="fill:#322e29"/><path d="M162 417v2h1v-4l1 1-1 14-1 1v3l-1 1q2 0 0 1v3h-3q-1 0 0 0l1-1v-6l2-4 1-10v-3z" style="fill:#373430"/><path d="M157 439h-4q-3-3 2-2-1 1 0 0l1-1z" style="fill:#797068"/><path d="M172 394h54l-46 1zh-7l-4-1z" class="st632"/><path d="M160 393h10l2 1h-14v-1z" style="fill:#978d82"/><path d="M172 395q1 0 0 0h-7z" style="fill:#0b0907"/><path d="M158 281q0-2 2-3 0 3 2 3v3l3-4h2l3-2 4-1 4 3 1-1h3l2 3 3-1q0 5 5 3c-1-1-1-5 1-4l1 4-2 2-2-1v2h5l-1-2 2-1 2 4h-2l-1 2h1q2-3 5 0l-5 3 1 1h2l1 4-1 2q0 3 2 4l3 5 7 5q3-1 4 2h1l5 2 2 5h3l5 4h2v1q5 1 6 5h-2q-1-3-3-3l-7-3v-1l-6-3-2-2-5-3-4-4h-2l-1-2-5-3-1-2h-2l-2-1-1-2q-3-3-1-5v-2l-4-3q-4-1-3-3-3-2-4 0-3-1-4-5l-3-2-3 1q-1 3-3 2-2 2-3-1h-4c0 5-6 1-8-1l-3 1q-2 3-5 1-2 3-4 1-2 0-2-2l-4 2h-2c0 4-5 2-6 0l-4 1-12-2q-2 2-5 2-2 3-6 2l-3 1q-2-1-1 1 2 4-1 4c-2 0-4-7-2-8q3 0 3-3 2 0 2 2l2-2 8-2q1-2 3 0l2 1q3-3 7-1 3 3 6 0h2l6-1q1-2 3-1l1-1 8 2q3-3 8-3Z" style="fill:#a99f95"/><path d="M141 282q-2 3-5 2v1l-1-1q-3 0-3 2l-2-2-1 2q-2-1-2 1c-1 0-1-3-2 0h-1q-1-4-5-3l-1 1q-4 1-4-1h-1l-9 3q1 1-3 1v-1q0 2-2 3h-2q0 4 2 7 3 1 0 2l-2-2-1-7 1-4 1-2c1-1 3 2 4 1l1-2h2v1q2-2 5-2l1 1 1-2 1 1v-1q4 2 8 1l5 1v2h1v-2q3 0 4-2l3-1h2q3 0 5 2m1-1h5l3-2v-1l4 1 2 1 2 1h-3l-5 3-2-1-4-1z" class="st202"/><path d="M155 277v-2z" class="st264"/><path d="M271 391q-2 2-5 2l-14 1-12-1h-13l-32 1h-21l-4-1c0-3 14-3 17-2h41q2-2 4-1h19q4-1 8 2l6-1q4-2 6 0" class="st488"/><path d="M232 394h19l6 1h-77q-1 0 0 0l46-1z" style="fill:#171615"/><path d="M257 395h-14z" class="st632"/><path d="M251 394h-12z" class="st488"/><path d="M252 394h-12v-1h9z" class="st704"/><path d="m278 379 1 1v-1c2 0 3 6 5 7l1-1v35h-5l-1-1-3-3v-28z" style="fill:#8f8279"/><path d="m278 372-2 12q-3-1-6 4l-10 1-2-2q-5 2-10 1l-7-1-11 1v-1l-16 1q-3 0-4-2-1-1 2-1 4 1 5-1 15 1 29-1l5 1 5-1q5-2 8-1 1 3 6-1h1c3 2 3-5 3-6q1-4 4-6z" class="st459"/><path d="m218 390 1-1 9-1q12-1 24 1 4-2 8 1l10-2c1-2 5-7 5-3v2q-2 0-1 1l-1 1-2 2-3-1-2 2h-4l-3 1-4-2h-20q-1-2-3 1l-1-2-3 2-4-1h-25l-11 1q-1 1-1-1l7-1z" style="fill:#91857b"/><path d="M230 387c5 2 11-3 15 1q3-2 7 0 4-2 6-1l3 1h4l5-1 3-3q2-2 3 0l-1 1q-1-2-3 1 0 3-3 3l-8 2-5-2h-38l-4-1h14z" class="st306"/><path d="m275 386-1 2-1 1q-2-3 2-3" class="st488"/><path d="M278 372v-6z" class="st522"/><path d="M443 418v2h-1v-62l1-16v-3z" class="st669"/><path d="M452 420h-7 2l-1-3q2 2 3 0l1 1 1-4zm-7-3h-1v-2z" class="st521"/><path d="M420 334v4q3-2 2 1v25l-1-2q-4 2-3 5-1 3-4 2v13l2-2q4 0 3 3h-2v4l-3 1v6q2 0 3 2 2 0 2 3l2-2 1-2v18h-1v-13q-3 0-2 4c1 4-3 3-3 5l-2-1v11l-1-52v-26l-1 2v-9z" style="fill:#b1a69d"/><path d="M412 353v67h-7v-1h-1v-18h1l1 2 2-5q-1-3-4-2v-10l3 1c2-4-2-7 1-10l3-1v-1 26zc0-2-3-4-1-5l1 2v-4z" class="st18"/><path d="M402 334v7h1l-1 15q-3 4-7 2 0 4-2 3v-27z" class="st738"/><path d="M403 420v-76z" class="st18"/><path d="M403 344v9l-1 8v-20h1z" style="fill:#a39991"/><path d="M414 334h9-30l1-1z" class="st124"/><path d="M412 343v-4h1v13l-1 1z" style="fill:#9f968d"/><path d="M422 368v-25z" class="st635"/><path d="M382 378v42q-3 1-3-1h-1q-1 2-4 1v-17q2 1 2-1h2v-4l3-4v-9c-2-1-2 3-5 2-2-1 1-3 1-5l1 1v-5l3-2 1-2z" class="st206"/><path d="M377 334c2 0 0 4 0 4q-3 3-3-1l1 7-1 1q0-2 3-2v-3q6-1 3-6h2v44-35l-3 5-2 2-1 5-2 2v5h1q-3 3-1 5v32l-1 3v-68z" class="st461"/><path d="M383 337v63l-1 3v17-86h1z" style="fill:#958b82"/><path d="M373 402v18-58q0-1 0 0z" class="st454"/><path d="m392 334-1 34v2l-1 2-1 4q-1 6-5 4l-1 1v28l-1 1v-43l1-4 3-4a6 6 0 0 0 1-8l1-6q-2-6 2-7v-2l-1-2z" style="fill:#b7ada4"/><path d="M393 334v31l-1 54v-85z" class="st207"/><path d="M383 367v53-83h1q1 15-1 30" class="st217"/><path d="M402 356v24l-1-4c-2 1 0 5-3 3-4 3 0 3 0 4-2 6-4 3-3-1h-1v21l1-1-1 2v3l1 2-1 1v8l-1 2v-64l1 6v-5h6q-1-1 2-1" class="st604"/><path d="M362 393v5l-4-1-3-1-2 1v-30h1v-6q-1-4 3-4l4-1v-3q-1-3 1-3z" class="st502"/><path d="M354 362v41h-1v-43z" class="st454"/><path d="M343 388v3l-1 24v-10l-2 1-2-2h-3v-16q2 0 2-2l1-1q0-3 4-2v-32h1z" class="st618"/><path d="M335 374q1-1 2 2l4-1q2 0 2 2v10l-1-3h-2l-1-1c1 3-2 3-1 6l-3-1v18h-1v-21z" class="st391"/><path d="M344 390v6h1l-1 19v5l-1-1v-31z" style="fill:#998e84"/><path d="M334 416v-10h1z" class="st618"/><path d="M344 386v-10q3 0 3-2 1-6 5-5v7h-1l1 4v26h-1v-11q-4 0-3-3 0 2-3 1l-1 4z" class="st502"/><path d="m344 396 1-5 2 1c0-1 0-4 2-1v2l3-1v20q0-2-2-3l-5-4v4l-1 6zm9-4v-15h1z" style="fill:#bab0a6"/><path d="M423 334v4l-1 1-1-2-1 3c-2-1 0-4-2-5l2-1z" class="st635"/><path d="M373 362v-1q-1-18-1 0v56l-1-1v4l-2-1-6 1v-23q2-1 1 2l2-3q4-4 3-10-3-2-1-5 1-3 3-3l1-13v-6l-1-2c0-5-1-18 1-22v-1h1z" class="st404"/><path d="M372 334v31q-2 0-2-2l-5 8q-2 5-2-1v-29l1-7z" class="st461"/><path d="M372 365v20c-2-1 0-6-1-7l-2 4-1 1 1 3 1 7-3 3v2l-2 1q-2 3-1 5v-6l-1-1v-27l1 3q0-4 3-6l2-4 2-5v2q-1 2 1 5" class="st618"/><path d="M363 334v16h-1l-1-16z" class="st272"/><path d="M362 397v-4z" class="st294"/><path d="M413 360v-11z" class="st360"/><path d="m373 361 1-23z" class="st454"/><path d="M180 395v1l-1 6v10l-1 3v6l-1 3v9l-1 1q1 0 0 0c1 2-4 3-3 1v-6h1v-23q-2-4-1-8h-1v-4z" style="fill:#2d2824"/><path d="m231 395-2 1h-49v-1z" class="st632"/><path d="m180 396 8 1h-6l-1 4-1-4z" class="st169"/><path d="M178 418v2l1-3v8l-1-5zm1-14 1 5-1 2v-8" class="st247"/><path d="M242 395h-9z" style="fill:#282724"/><path d="M256 395h-5z" class="st507"/><path d="m177 425 1-3zm1-14 1-3zm-1 5v-3z" class="st247"/><path d="M251 395h-3z" class="st507"/><path d="M177 431v3l86-1v2h-87z" style="fill:#bcb7b2"/><path d="m268 439-4 1h-6l-4 1h-19l25-1q3-3 8-1" class="st220"/><path d="M191 441h12v1h-21l-3-1z" class="st276"/><path d="M191 441h-16zm27 0h-12l2-1z" class="st25"/><path d="M233 441h-2l-2-1zm-30 0h-6z" class="st220"/><path d="m169 440 2 1h4-12l-3-1z" class="st276"/><path d="M226 441h-5v-1z" class="st25"/><path d="M268 439h-5zm-39 2 2 1h-4l1-1z" class="st276"/><path d="M221 441h-3v-1zm7 0h-2v-1z" class="st220"/><path d="M235 441h-2v-1z" class="st25"/><path d="M278 436q4-1 6 1h-6l1-1z" class="st379"/><path d="M286 373q2 1 1 4l3 6 1 5 1 1v1q2 2 0 4l2 2v6l-3-6q0-4-4-5l1-4-1-1q1-2-1-3z" class="st131"/><path d="M295 386q2 6 0 11v23l-1-27v-20h1z" style="fill:#82776d"/><path d="M294 391v-12z" class="st306"/><path d="M295 386q3-3 3 2 2 3 1 6l2 4 2 1 1 7v8l-1 1-1-6-4-9-3-3z" style="fill:#9e938a"/><path d="M295 408h3v3h2q-2 1-1 5l3 2v2h-6 2v-3l-3-1z" class="st131"/><path d="M305 414v6h-1v-8z" style="fill:#80776d"/><path d="M315 375v5q3-2 4 1 3-1 4 1v15q1 0 0 0-2 2-4-2l-3-1q0 2-1 1v-29z" class="st259"/><path d="M315 395c1 0 0-4 1-3l5 4 2 1v12l-1-2-5-3-1-4q1-2-1-3v9-2z" class="st566"/><path d="m315 417 1-10q0 5 3 6 3 0 4 3l-1 4h-2l-1-2z" class="st564"/><path d="M315 377v25l-1-1v-23h-1l1-4z" class="st558"/><path d="M324 403v17l-1-2v-21l1-16z" class="st678"/><path d="M315 417h4l1 3h-5v-10z" style="fill:#a79c91"/><path d="M315 395v-7z" class="st566"/><path d="m305 386 1 4 3 2q0 5 4 7v19h-1v-7q-4-2-5-6l-2-1v-17z" class="st717"/><path d="M305 393v9l3 3v1l5 4v8l-3-1q0-4-3-8l-2 1v-5h-1z" class="st552"/><path d="M305 387v27l-1-2v-28h1z" style="fill:#897f75"/><path d="M314 417v-11h1z" class="st552"/><path d="M314 397v9h-1zv-2h1z" class="st717"/><path d="m325 353 2 2 2-1h4v45q-1 1-1-1v-18h-7z" class="st183"/><path d="M333 334v43-23l-1 1h-2l-4 2-1-4v-18l3-1z" class="st384"/><path d="m325 373 1 7 2-1 1 1 4-2v35l-1 1v-10h-1q1-4-2-5h-3l-1-2z" class="st175"/><path d="M325 375v35l-1 10v-45z" class="st121"/><path d="M334 344v24h-1v-30l1-2z" class="st207"/><path d="M325 397v1q0 1 0 0v-23q0-1 0 0zm9-63v10q0 1 0 0v-7l-1 1v-4z" class="st183"/><path d="M325 410v-12z" class="st175"/><path d="M334 351v64-71z" style="fill:#aea49a"/><path d="m106 301-2-5 1-1q4 0 6-2c2-1 1 3 2 2v-3q3 1 4-1c3-2 3 1 6 1v2l2-3v2q3-1 3 1l3 1h6v-2q5 2 6-1h4l2-1 3 2 2-1 2 1 4-2 2 1 3-1q0-2 2-2v4h2q0-3 1-1h5l3 2 3 1 4 3h6q-2 4 2 4c-1 1 3 5 4 5h2v1q3 4 6 4l4 4q3-1 3 3l4 2h3l2 4h3l6 4 7 3-2 1h-1v-1h-3l-5-1h-1v-1q3-3-5-4-3-3-8-4l-3-4q-4-5-12-7l-4-3v-1q-4 0-3-3h-1l-3-3-9-1-4-4-1-1c-1 3-7 3-8 1-1 3-6 0-7-2l-2 2-3-1q-3-1-6 1-1-2-2-1 0 4-6 1l-9 1q-4 1-3-2h-3q-4 3-7 1 0 2-3 1 0 4-4 1 0 2-2 3z" class="st189"/><path d="m228 334 7 1h4l4 1-6 1-6 2c-2 0-2-3-5 0l-1 2h-1l-1 1h-5v2h-5c-2 0-6-3-7-1h-1q0-2-2 1h-2l-2 1-7-1-2 2q-2-1-3 1h8-39v-1h10l23-3v-1q5-3 9-2l7-1q3 2 6-2 3-1 6 1 1-4 4-3t4-1z" class="st384"/><path d="m232 333 8 2h-4q-2 1-4-1l-4-1z" class="st747"/><path d="M231 332h3v1h-5l-3-1q-2-1 0-1z" style="fill:#2e2926"/><path d="M241 347h5-50z" style="fill:#c4bbb1"/><path d="M362 334v25l-1-2q-2 2-6 1l-1 7v2-33z" class="st403"/><path d="m390 334 1 2v3q-3 1-1 6l-1 7 1 2-2 5v2q-2-1-2 2l-2 1-1 3v-33z" class="st165"/><path d="M380 334h1v5c-1-1-2 2-4 1 2 5 0 4-3 5v-8l1 1h1l1-4z" class="st71"/><path d="M353 334h-26z" class="st207"/><path d="M354 334v10h-1l-1-3 1-3q-2-2 0-4z" style="fill:#b1a79f"/><path d="M354 344q-1 0 0 0v-10q1 5-1 10" class="st289"/><path d="M364 334q1 4-1 7z" style="fill:#c4bbb3"/><path d="M382 337v-3z" class="st71"/><path d="M286 355q3 1 2 3l2 4 2 4q3 2 2 6v-2 9-5l-2-1-1-6z" class="st552"/><path d="M151 348h88q2 0 0 0h-89q-1-1 1-1" style="fill:#312c29"/><path d="M260 348h-22v-1z" style="fill:#2a2421"/><path d="M272 348h4-15l-2-1z" class="st331"/><path d="M243 348h-3z" style="fill:#564f4b"/><path d="M278 368v1l-1 5v-4l-2 5v1l-1 5q-2 2-3 1l-5 3-2-1-1-2q-3-1-7 2h-4l-1 1-1-1-2 1 1-1h-3q-13 2-27 1h-2l-1 1h-7q-2 2-4 0l-10 1h-26q-4 3-9 2l-6 2-1-1 4-2-1-1 1-1 1-2h6l-1-1q1-2 2 0h5l2 1 6-2 5 2 4-1h8v2l7-2 8 1 2 1v-2q4 0 7-2l7 1 4-1 3 1h11v-2c4 3 5-1 6-2 1 0 6 1 7-1l1 1 4 1 4-2v2h5l1-1v-3l3-5q1-3-2-2l1-1v-2h3v-4z" class="st731"/><path d="m259 364-2 1q-2-1 1-3zm1-3-2-3q3 1 2 3" class="st227"/><path d="M295 363q3 1 0 2c1 2 2 8 1 9l-1 1q2 2 0 4v7l-1-13v-21z" style="fill:#938980"/><path d="M294 367v-11z" class="st251"/><path d="M304 354v10-20z" class="st259"/><path d="m305 346 1 9v-12l1 6h5l1-2v29l-1-1 1-9-2 2-4-5q1 3-2 3v-8z" class="st78"/><path d="M314 348v30l-1 8h-1v-5q-3-2-3-7l-4-1v-15 7c2 0 0-4 1-4l5 6 2-1v9-28l1-3z" style="fill:#beb4aa"/><path d="M323 340v22l-1-3-3-1-3 1q1 7-1 13v3q0 1 0 0v-33 14-12l3 1 2-3c0-2-2-3 2-3zv-2z" class="st78"/><path d="M295 360q3-1 4 1 3 2 2 5 2 0 2 2v-1l1-1v-2 14c0 3-1 7-2 1l-1-1-1-5-5-8z" class="st206"/><path d="m295 348 1 6 2-1 4 6h1l1 7v9l-1 1v-8l-2-1-1-1q0-4-5-6z" class="st259"/><path d="M286 335q3 1 2 2l2 1 2 3 2 1v14-4l-2-1q0-2-2-3l-2-4-2-1zm37 47h-5v-1l-3-1v-8l2 1 5-6 1-6v-1z" style="fill:#beb3aa"/><path d="M324 375v6-35z" style="fill:#a1958b"/><path d="M325 355v20h-1v-35h1z" class="st183"/><path d="M327 334h1l-3 2v19q0 1 0 0v-15l-1-4v-2z" style="fill:#c8bfb7"/><path d="M323 360v-20z" class="st587"/><path d="M325 340v-4z" class="st384"/><path d="M305 364v23l-1-3v-30l1 9z" style="fill:#94897f"/><path d="M315 357v20l-1-3v-26z" class="st207"/><path d="M239 347h-33v-1z" class="st439"/><path d="M156 440h-4z" class="st276"/><path d="M269 138q4 1 4 6l-5 5h-5q1-2-1-3-2-2-1-5l5-3z" style="fill:#d2b278"/><path d="M281 439h-6zm-38 2-8 1v-1zm-35 1h-2z" class="st276"/><path d="M176 435h8l31 1q3 0 3 2l-4 1h-52q0-2 3 0l28-1-15-3q-1 2-2 0" style="fill:#938b83"/><path d="M173 436q2 1 3-1h2q5 0 3 3l-16 1h-5l1-1v-2l1-2h6q3 1 4-2v-23q0-1 0 0z" style="fill:#7c736c"/><path d="M156 437h-3l1 1-5-1q4-3 7-1" style="fill:#847b73"/><path d="M99 297v-5l1 1 1-2h7c0-4 3-2 4-2l2-2 3 1 9 1 1-1h3l2 2h3l1-2h3l-2-2 2 1q3-2 4 1l3-1-1 2h1l1-2 4 1 1-1 4-2 6 3h2l-1-2 5 1c1 3 2 0 2 0h3v-2h2l2-1 2 1 1 1 4 5 1-2q3 3 5 1l-1 3 3 1v2l2 1h2v2l-1 1v1l1 4h-2l-1-2c-1-2 1-5-2-3l-1-3q-5 1-9-2 1-2-2-3l-1 1-5-3-4 2s-4-4-5-2v1q-4-2-5 1l-1-2h-2s-2-3-2 0l-4 1-1-1-1 1-2-2q0 2-2 1l-2 1h-2l-5 2h-2c-1 0-1 3-2 1l-3-4-1 2q-3-2-4 0-3-3-7-1l-2 1-2-1-3 2-3 1-1 1-2-1-3 2q2 2 0 4h-2z" class="st341"/><path d="m92 301 4 1-1 1 2-1v1h1l6 1 5 1q2-2 3 1 1 0 0 0t-2 0l-15-3-4-1z" style="fill:#cfc7bf"/><path d="m100 302 2 1h7l5 2h2q1 2 4 1l1 1q3 3-1 2l-2-1-6-2-3-1-5-1-6-1z" style="fill:#dbd4cb"/><path d="M107 301q2-3 6-1 0-3 2-3l2-1q3 4 7 1l4 1h6q2-2 5 1h3q5-7 10-3l2 1q3 0 3 2 4-1 7 2 2-2 3 0 3 1 6-2l3 1v2q3-1 7 1 7 1 10 7l4 2h2q8 3 13 10l4 1 5 4c3-1 8 3 1 3q-2 1-5-1 0-3-5-4l-7-7q-2 1-2-1l-3-1-2 1-12-9h-12l-5-3q-1 2-3 1h-10q-3 0-4-3l-2 1-8-1q0 2-1 1-3-2-7 0l-1-1q-1 2-2 1l-7 2-3-3q2 0 1 2 3 0 0 1l-7-2-2-1 2-1-10-1z" class="st120"/><path d="M106 303h-3z" style="fill:#2f2c2a"/><path d="M109 303h-2z" style="fill:#35302e"/><path d="M120 272q1 3-1 3l-1 2-6 1-3-1-2 1-4-1-4 4h-3l-2 6v7l-1-7 1-1-1-4 3-4h2l1-3h1l4-1 1 1c2 0 4-3 6 1l1-2h2l1 2 1-4q3 1 4-1zm39-6q-2 3-5 3h-3l-2-1-1 3h-4l-3 1q-3 3-6 0l-4 1q1 3-2 1l-5 2-3-4 1-1 1 1q1-2 1 1l7-3h3c3 1 2-3 5-2v1l4 1 3-2h2l1-2 4 1z" style="fill:#b1a79d"/><path d="M144 271c0 2-5 3-6 3h-2q-1 2-5 2v2l-2-1-3-1-5 2-2-3 1-3h1l3 3 6-2v1l1-2 4-1 1 2q3 0 5-2z" class="st5"/><path d="M151 269h1z" class="st264"/><path d="M171 271h-2v-1z" class="st217"/><path d="m154 391 3-1 3-2h2q4 0 7-3 0 2 2 1h18l1-1v2l2-1v1l12-1 3 1 2-1h1l4 1 11-1 3 1h2q-3 2-8 0l-1 1h-52v1h-6q-4 2-9 2" class="st615"/><path d="m194 390-7 1-2 1-3-1h-8l-4 2 4 1h-2l-4-1h-10l4-2 16-1c5-1 4 0 8 1z" class="st714"/><path d="M180 349h-29l-1 12v13q0 3-1 0v-3l-1-13 1 4v-8l1-5z" style="fill:#c1b8ae"/><path d="M151 349c-2 9 1 18 0 27l-2 2v-4c2 2 1-2 1-3v-19z" class="st53"/><path d="M205 348h-36z" class="st252"/><path d="m197 348-13 1v-1z" style="fill:#c3b8af"/><path d="m144 349 2 33 1 3-1 1-1-4v-5q-3-10-1-21-2-3 0-7m0-8v3zq-2 2 0 7l-2-3 1-7-2-4 1-4 1 1v-2l1 1z" class="st227"/><path d="m143 329 8-1 2 1h3l-3 1h-4l-3 1-1-1-1 5 1 5-1 1-2-11zq0-1 0 0 1 0 0 0" style="fill:#24211f"/><path d="M146 344v12l-2-16 1-1h1z" style="fill:#1e1d1a"/><path d="M147 362v3l-1-8v-4z" style="fill:#302b28"/><path d="M147 364v3-5z" style="fill:#13100d"/><path d="M147 371v-3z" class="st475"/><path d="M169 348h-18z" style="fill:#332e2c"/><path d="M147 345q1-1 1 1 0-1 0 0 2-1 3 1l-1 1-4-2v1l-1-1z" style="fill:#36322f"/><path d="M148 372v-3z" class="st475"/><path d="M149 373v-2z" class="st53"/><path d="M141 359v-4z" class="st370"/><path d="M121 310h2l5 3q-1-2 1-2l6 5h-2l2 6-1 1q-5-9-13-13" class="st326"/><path d="M128 309c-4-3 2-6 4-2l2-2h4q4 3 9 2h12l7 1q3 3 5 1h3q2-2 2 1h8q3 4 7 4l2 1q1-1 3 1l1 1q2 3 5 3v1c5-2 10 7 4 7h-1q-2-1-2-3l-9-5-1 2-14-4q-2 1-6-1-3 3-6-1-4 1-7-2-3 2-6 1-1-2-4-1-1-2-4-1l-6 1-1-1q-1 3-3 3z" class="st315"/><path d="m136 316 2-4h1l1 1c1-2 3 0 5-2q2 2 5 0 0 3 4 2l1 2 2-1v1l3-2 5 3q1-2 3 0l3 2 2-2h3l2 2v-2l15 5 1-1q3 0 7 3 3 1 2 3 2 0 2 2h-4l-4-1h-8l1-1-1-2q-4 4-9-1-2 1-3-1l-5 1-6-2h-4q-2-3-6-1-2-3-6 0-4 1-5-3l-3-1q-3 2-4 0c-2-1 2 1 0 1z" class="st302"/><path d="m138 317-1-1q3 1 5-1h1q1 2 3 2l1 1 2 1c2 1 3-2 6-1l2 1 2-1 2 1 2 1v-2h1q2 3 6 3l2 1 2-1h3l2 2 2-1c1 4 6 4 7 0l5 4-3 1h-19l-4-2q-5 3-8-3l-12 2-4 5z" class="st116"/><path d="m123 306-2-2 1 2q2-1 1-3h2c-2 6 3 2 6 1h1l1-1 2 1 3-1h3v2l1-2 8 2 2-2q2 1 2 3 6-2 8 1l-3 1h-12v1h-5l-4-2q-3 2-3 0l-3 2-2-2-3 1 1 1v1z" class="st452"/><path d="m129 311-1 3-7-4-1-1 2-1h1z" style="fill:#d5cdc4"/><path d="M123 308h-3 1v-1h-1l1-1zm-3-2h-5l1-1z" class="st450"/><path d="m112 306 6 2 1 1h1l-10-3z" class="st326"/><path d="M140 349v-3q2 0 1 3z" class="st554"/><path d="M159 420v9c-2 0-1-6-1-8z" style="fill:#575450"/><path d="m165 399 1 1q0-5 2 0c1 1-1 6-2 7q1 6-1 11l1 6-2 6h7q-1-6 1-11v13l-1 1h-8q-2-1-1-2l1-16 1-4z" class="st478"/><path d="m163 415 1-4z" class="st739"/><path d="M162 431v1h10v3h-10l-1-1z" class="st479"/><path d="M161 439v-3z" class="st739"/><path d="M240 393h-59q-1 0 0 0h15l32-1z" style="fill:#9f958c"/><path d="M180 395h-8z" style="fill:#1a1917"/><path d="M176 394h4-6z" class="st669"/><path d="M169 393h-9l3-1z" class="st389"/><path d="M167 393h-4z" class="st714"/><path d="M172 396q-5 1 0 1v34h-9v-3l2-4-1-6 1-3v-8l1-1 2-6-2-2v2l-1-1v-3z" class="st744"/><path d="M172 398v21-23q-1 0 0 0z" class="st479"/><path d="M196 288q-1 3-2 0z" class="st217"/><path d="M134 286v1h-2z" class="st341"/><path d="m227 393-32 1zm-34 1h-4z" class="st669"/><path d="M176 394h-2z" class="st714"/><path d="M239 394h-7z" class="st704"/><path d="M382 348v-9zm0 19v-6z" class="st71"/><path d="M383 399v-28z" class="st693"/><path d="M354 344v18l-1-2v-13q-2-2 0-4z" class="st626"/><path d="M353 360v17h-1v-30h1z" class="st502"/><path d="M343 334v24h-1l-1-8q-3 4-6 1v-17z" class="st271"/><path d="m335 364 3-1c0-3 5-5 4-1l1 3v12l-2-1-4 1-2-3z" class="st403"/><path d="M343 358v6l-1-3q-3-1-2 3h-5v-13l4 1 2-2q-1-4 1-6z" class="st613"/><path d="M344 352v38l-1-2v-42z" style="fill:#a2968c"/><path d="M344 334v5l-1-1v13-17zm-9 40-1 11v-19h1z" class="st613"/><path d="m344 365 1-14q3-3 2-6c-4-3 2-11 3-6q1 3 2 0l1-1v9l-1 2v30-2c-1-1-5-4 0-3v-6l-3 1c-2 2 1 6-4 6v2l3-1 1 3h-3q1-3-2-1v8z" style="fill:#bfb5ac"/><path d="m172 399 1-2 1 1-1 6 2 7-1 18q1 1-1 1v1l1 4-1 1-1-1z" class="st380"/><path d="M173 430v-24z" style="fill:#3c3835"/><path d="M172 399v10-11q0-1 0 0z" class="st549"/><path d="M172 398v-2z" class="st380"/><path d="M295 379q2-1 2 3 5 4 5 10 2 1 1 2l1-2v14l-1 4v-6l-1-4-1-1-1-3-1-1-1-4-1-2c-1-1 1-4-2-3z" style="fill:#a3988f"/><path d="M315 380v5-10z" class="st587"/><path d="M314 395v-9l1-8zm-9-22v6q2 1 2 4l5 3v20-7q-2 0-4-3l-1-5-2-1-1 1v-6z" class="st570"/><path d="M295 375q1-2 3 0l5 9h1l-1 7 1-7v-1 10l-1 9v-8l-2-2-1-5-4-6-1-2z" style="fill:#a89e94"/><path d="M305 366v7h5c-1 1 1 8 2 7l1-2v19-10l-6-2-1-5-1 3v-10z" class="st404"/><path d="M325 373v2-20z" class="st384"/><path d="M335 351v-17h1z" style="fill:#cbc3ba"/><path d="M335 364v2h-1v-15h1z" class="st271"/><path d="m107 301 1-5 4 3v-3l3 1c0-4 3-1 5-1l2-1 4-1 1 1-1 1 1 1 8-1 4-1 4 2v-2c1 0 4-3 3 0l1-2 2 1 3 1c1 1 1-2 3 0v-2l4 2 4 1 1-2h1v1q2 2 6 1v-1q4-1 5 3h1v1q4-1 8 1l1 1h2l1 3q-1 2-3-1h-2l-4-2q-2 1-4-1-3-1-3 1c-3-1-4 2-7 1v-2l-2 2-4-3q-2 2-5 0l2-1h-3l-1-1v1h-1q-1-2-5-3l-2 2-3 3-1-1-2 1-4-2-1 1-3 1-7-1 1-1-4 1-4-1v-1q-1-1-1 1l-2 1v1h-4z" class="st38"/><path d="M176 300h1q1 2 3 0l3 2h1l3 1q1 2 3 1v2h4v2h2l2 3h3l8 6 2 1q0 4 4 3v2l2-1 4 4h2l1 1q2-1 2 2 1 1-1 2t-3-1q2 0 3-2l-2-1-2 1-2-3h-1l-1-1-5-1-2-3-5-5-6-2-1-1-2 1q-1-3-3-2l-6-6-4-1-5-2c-1 0-3 3-3 0z" style="fill:#a1978d"/><path d="M207 328h10v1l5 1 3 1h1v1h-1l-14-2-1-1h-3q0 1 0 0h-3z" style="fill:#24201f"/><path d="m231 332 4 1h-1z" class="st262"/><path d="M167 330h6q2 5 6 4h5q1-2 4-1 1-2 3-1 4-5 8 0 5-2 9-1l8 1h2v1c1 1-5 1-6 1h-3l-13 2q-3 4-7 1l-5 4-9 1q-3 2-7 2-3-1-7 1l-3 1h-1q-3 0 0 1h26l-20 1h-12l-3-2q0-2 4-3l5-4q9-3 5-6-1-2 1-3z" class="st458"/><path d="m219 332 1 1q-2 4-6 3l-3 1q-1 2-3 2l-1 1c-5-2-6-2-11 0l-7 2q0 2-2 1h-3l-16 2-2 1h-8c0-3 2-1 3-2v-1h7l2 1v-2q2 1 4-1l9-1 6-4 2 1 4-1v-1h9l7-1 1-1h5l1-1z" class="st486"/><path d="M228 334q-2 0-2 2h-6c0 1-3 1-1 2h1c-2 2-4-1-5-1l-6 3h-3l-7 1h-4l-4 1v2l-7 1-18 1q3-2 7-2l5-1 6-1 1 1v-2q2 2 3 1l-1-1h3l9-3h4l3 1 2-2 2 1 1-2h1l2-1h2l4-2q4-1 8 1" class="st685"/><path d="M183 347h23v1h-43l2-1z" style="fill:#49433f"/><path d="m227 333 3 1h-3l-8-1-1-1z" class="st458"/><path d="m232 334 4 1-3 1zl-3-1z" class="st685"/><path d="m157 346-7-1z" class="st486"/><path d="M170 329h37l3 1 16 2 3 1h-2l-10-1h-1l-18-2-16-1h-7l-1 1-7-1q-1 0 0 0z" style="fill:#dad2ca"/><path d="M353 334v4l-1 4-2-1-1-3q-3 2-2 5l1 1-1 5q-5 6-3 14v2-31z" style="fill:#c2b8b0"/><path d="m192 387 5-1h2l6-1c1 0 2 3 3 0l1 1-1 1h-13l-1 1v-1z" class="st459"/><path d="M295 365q3 2 4 6l1 1 1 5q3 1 2 5l1-4v5l-1 8v-7q-3-2-4-6l-1-1q0-2-3-2z" style="fill:#afa59c"/><path d="M323 362v11l-1-6-5 7-2-2v-14h1c0 1 4-2 4 0h1l1-2z" class="st587"/><path d="M268 140h3l-1 2 1 1h-1l-1 2-2 1-1 2q-4-3-3-6t5-3" style="fill:#d7b87f"/><path d="m178 435 15 2h6l-2 1-32 1 12-1 4-1v-1z" style="fill:#7f766e"/><path d="M104 304h6l-1 1zm14 4-6-2q4 0 6 2" class="st450"/><path d="M162 306v-1l2 1c2-3 3 0 4-1l2-1v1h1l4 2 1-2 1 2c1-2 3 1 4-1q2 4 6 1 0 2 3 3l3 3 5 3 3-1v1h3l-1 1q1 2-2 3l-5-4-3-1-3-2q-2 1-3-1l-1-2-7-1q-1 1-3-1l-4 1-1 1a4 4 0 0 1-5-2q-4 1-4-2" class="st452"/><path d="M196 316c3 1 1 1 2 2l3 1 2-2h3l1 1 2 4 4 3h3c1 0 5 4 1 4l-10-1h-1q2 0 2-4l-2 1 1-1-1-3-4 1v-2l-4-2-1-1q-1 1-1-1m-34-10 2 1h2c1 0 2 4 4 2h1v2l-5-2-7-2c-3 3-6 0-9 1l-1 1-1-2h4l-1-1 5 1z" class="st615"/><path d="M143 329q1-5 4-6l12-1 4 3c2 1 4-2 6 0l1 1h2l6 1a1 1 0 0 1-2 0h21-30v1h-14q-3 1-1-1l-6 1q-1 2-3 1" style="fill:#8f837a"/><path d="M153 330h10-1l2 1-2 1 2 1q1 5-4 6l-6 2-2 3q-3 0-4 2h-1q0-2 2-3l7-5 1-3-3-3-3-2q-1 2-2 0z" class="st289"/><path d="m145 330 2 1q6 5 1 12l-1 2h-1v-1l-1-9h-1v-5z" class="st217"/><path d="M149 330h2l1 2q5 8-3 11l-2 2v-2l2-3q2-3-1-7v-1l-1-1-2-1z" class="st165"/><path d="m143 329 3-2q4-2 8 1h-3 2v1l-8 1z" style="fill:#8a7d73"/><path d="m146 344-1-4-1-5 1-2q2 6 1 11" class="st38"/><path d="M156 329h3v1h-6z" class="st526"/><path d="m157 328 4 1q1 0 0 0h-8v-1z" class="st281"/><path d="m151 330 3 1 4 3v2q-2 1-1 3-6 2-10 7v-1c1-2 6-5 6-7z" class="st403"/><path d="m172 309 2-1h2l2 1 2-2 1 2 2-1h1v1h3l-1 2q3-1 2 2l1-1 4 3-4-1-5-2-1-2h-5l-3 1v-2q-2 3-3 0" class="st615"/><path d="m196 327 5 1h5l-2 1h-1l-4-1h-22 1l15-1z" style="fill:#362f2c"/><path d="m197 327 4 1-5-1z" class="st663"/><path d="M178 327h11-13v-1z" class="st302"/><path d="M172 396h-6l2-1z" style="fill:#f5f5f4"/><path d="M344 339v13l-1-1v-14z" class="st202"/><path d="M207 329h-3z" class="st615"/><path d="m210 330-3-1z" class="st747"/><path d="m175 329 4 1q1-2 2-1h19l7 1h-4l-1 1-4 1-2-2-1-1-5 3h-3c-2 1-2-1-4 2l-2-1-2 1h-3l-2-1-2 1c2-2-1-3 0-5l-1 1-5-2z" class="st526"/><path d="m198 330 12 1 6 1-8-1-1-1zm29 3-8-1h-2l1-1z" class="st747"/><path d="M167 329h-8v-1h8m10-1h22v1h-29v-1zm5 1-2 1h-2l-1-1-3-1z" style="fill:#d0c9c2"/><path d="M198 330h-15v-1z" class="st747"/><path d="M170 328h-6z" class="st281"/><path d="M199 328h4v1z" class="st663"/><path d="M178 327h-8l-6 1h-3l-4-1h10l7-1z" style="fill:#2b2421"/><path d="m193 327-15 1v-1z" style="fill:#1e1917"/><path d="M170 327h4l-7 1v-1zm-7 1h-4z" class="st281"/><path d="M167 327h-4zm3 0h-2zm6-1h-2z" class="st116"/><path d="M147 331h2l1 2 1 5-4 5 2-5-1-4c0-1-3-2-1-3" style="fill:#b4aaa1"/><path d="M164 329h2-5z" class="st526"/></svg>